<svg width="41" height="40" viewBox="0 0 41 40" fill="none" xmlns="http://www.w3.org/2000/svg">
<path d="M24.6166 22.5707C24.6167 22.5705 24.6168 22.5703 24.19 22.31L24.6168 22.5703L23.915 21.8924C23.5366 22.1416 23.1805 22.3144 22.8659 22.4313L22.856 22.4349L22.8463 22.439C22.379 22.6353 21.9357 22.764 21.5061 22.8371L21.506 22.837L21.4978 22.8386C20.6105 23.0049 19.7945 22.9595 19.0933 22.8288C18.5606 22.7259 18.1008 22.576 17.7121 22.4244C17.4996 22.3412 17.276 22.2426 17.0558 22.1202C17.0295 22.104 17.0059 22.0916 16.9911 22.0841L16.974 22.0669L16.9128 22.0329C16.8317 21.9879 16.7697 21.9502 16.7294 21.9248C16.7093 21.912 16.6946 21.9024 16.6857 21.8965L16.6768 21.8904L16.6767 21.8904L16.6766 21.8903L16.6764 21.8907L15.9612 22.5572L16.3899 22.3C15.9612 22.5572 15.9613 22.5575 15.9615 22.5577L15.9617 22.5581L15.9623 22.559L15.9635 22.5611L15.9666 22.566L15.975 22.5794C15.9817 22.5898 15.9905 22.6031 16.0015 22.6191C16.0235 22.6509 16.0543 22.6933 16.0946 22.7436C16.1751 22.8441 16.294 22.9769 16.4567 23.1214C16.6689 23.3098 16.9546 23.517 17.3244 23.6976C17.3176 23.7059 17.311 23.7141 17.3044 23.7222C17.2833 23.7482 17.2631 23.773 17.2442 23.7962C16.3868 23.7226 15.7978 23.4151 15.4196 23.1263C15.2111 22.9672 15.064 22.8114 14.9711 22.6991C14.9521 22.6761 14.9355 22.6551 14.9211 22.6362C14.943 21.1583 15.2762 19.8163 15.6132 18.829C15.787 18.3196 15.9605 17.9084 16.0896 17.6262C16.1146 17.5715 16.1379 17.5218 16.1593 17.4771L16.3792 17.7786L16.3793 17.779L16.3794 17.7789L16.3804 17.7784L16.3864 17.7752L16.4131 17.761C16.4372 17.7483 16.4739 17.7292 16.522 17.7049C16.6176 17.6565 16.7581 17.5874 16.9349 17.5061C17.9464 17.0624 18.7402 16.9441 19.0427 16.9182L19.0631 16.9164L19.0833 16.913L19.1057 16.9092L19.1063 16.9091C19.1599 16.9 19.1656 16.9 19.1698 16.9H19.17H19.2026L19.235 16.8958C19.8081 16.8206 20.4573 16.8018 21.1338 16.8768C22.0261 16.9803 22.9825 17.2429 23.9596 17.7785L24.288 17.3285C24.3238 17.3999 24.3726 17.5 24.4303 17.6262C24.5594 17.9084 24.7329 18.3196 24.9067 18.829C25.2436 19.816 25.5767 21.1575 25.5988 22.6349C25.5843 22.6537 25.5676 22.6747 25.5485 22.6975C25.4547 22.8101 25.3062 22.9661 25.0963 23.1256C24.7151 23.4152 24.1227 23.7231 23.2634 23.7963C23.2461 23.7754 23.2278 23.7532 23.2086 23.7299C23.2073 23.7283 23.206 23.7267 23.2047 23.7251C23.588 23.5448 23.8843 23.3349 24.1044 23.1434C24.2726 22.9971 24.3956 22.862 24.479 22.7597C24.5207 22.7085 24.5526 22.6654 24.5753 22.633C24.5866 22.6168 24.5957 22.6033 24.6026 22.5927L24.6113 22.5792L24.6145 22.5741L24.6158 22.5721L24.6163 22.5711L24.6166 22.5707ZM16.8163 22.0387C16.8158 22.038 16.8157 22.0379 16.8162 22.0386L16.8163 22.0387ZM23.7654 22.0459L23.7656 22.0456L23.7654 22.0459ZM28.6189 31.6247L29.45 32.3591V31.25V13.31C29.45 11.8954 28.3077 10.75 26.9 10.75H13.5C12.0922 10.75 10.95 11.8954 10.95 13.31V26.83C10.95 28.2446 12.0922 29.39 13.5 29.39H24.84H25.5033L25.3206 28.7523L25.2854 28.6294L26.4603 29.7169L26.4602 29.717L26.4689 29.7247L28.6189 31.6247ZM18.39 19.14C17.502 19.14 16.87 19.9076 16.87 20.75C16.87 21.5957 17.515 22.36 18.39 22.36C19.2765 22.36 19.9079 21.5949 19.9099 20.7541C19.9219 19.8992 19.2695 19.14 18.39 19.14ZM22.04 19.14C21.152 19.14 20.52 19.9076 20.52 20.75C20.52 21.5957 21.165 22.36 22.04 22.36C22.9279 22.36 23.56 21.5924 23.56 20.75C23.56 19.9076 22.9279 19.14 22.04 19.14ZM20.2 0.5C30.9695 0.5 39.7 9.23045 39.7 20C39.7 30.7696 30.9695 39.5 20.2 39.5C9.4304 39.5 0.699951 30.7696 0.699951 20C0.699951 9.23045 9.4304 0.5 20.2 0.5Z" fill="white" stroke="white"/>
</svg>
