<svg width="41" height="40" viewBox="0 0 41 40" fill="none" xmlns="http://www.w3.org/2000/svg">
<path d="M30.7 20.2094L30.7 20.2094L30.6999 20.2039C30.6357 14.4286 25.9512 9.74 20.1694 9.74C14.3886 9.74 9.69995 14.4287 9.69995 20.2094C9.69995 24.8361 12.7192 28.7506 16.8264 30.1624L16.8755 30.1792L16.9269 30.1857C17.287 30.2307 17.6126 30.1456 17.8491 29.926C18.0737 29.7173 18.1617 29.4385 18.1617 29.2002V27.4877V26.8644L17.5533 26.9996C16.3123 27.2754 15.6332 26.9638 15.2671 26.6597C15.0738 26.499 14.9471 26.3232 14.8694 26.1885C14.8308 26.1216 14.8051 26.0663 14.79 26.0305C14.7825 26.0127 14.7777 25.9999 14.7753 25.9933L14.7738 25.9892L14.7738 25.989L14.7713 25.9811L14.767 25.9693C14.754 25.9341 14.7408 25.8995 14.7274 25.8656C15.2052 26.4017 15.7676 26.6387 16.3123 26.6932C16.9721 26.7592 17.555 26.5532 17.8648 26.4156L18.1331 26.2963L18.1597 26.0039C18.2079 25.4739 18.4442 25.1494 18.6269 24.9667L19.3626 24.231L18.3286 24.1161C17.2579 23.9972 16.2489 23.7363 15.5081 23.1079C14.7906 22.4993 14.2473 21.4778 14.2473 19.659C14.2473 18.6878 14.5642 17.9509 15.1557 17.3057L15.3547 17.0886L15.2613 16.8093L15.2577 16.7985L15.2576 16.7982L15.2565 16.795C15.2031 16.6356 14.953 15.8903 15.2636 14.8905C15.3207 14.8972 15.3884 14.9082 15.467 14.9255C15.8434 15.0085 16.4735 15.2378 17.3813 15.8527L17.5797 15.9871L17.8088 15.9167C18.5337 15.6936 19.3319 15.633 20.1694 15.633C20.9794 15.633 21.7972 15.7489 22.5646 15.926L22.7769 15.975L22.9574 15.8527C23.8652 15.2378 24.4953 15.0085 24.8717 14.9255C24.9503 14.9082 25.018 14.8972 25.0752 14.8905C25.3658 15.826 25.1667 16.5443 25.0899 16.8215L25.0895 16.8229L25.0894 16.8233L25.0884 16.8268C25.0813 16.8523 25.073 16.882 25.0666 16.9077L25.0017 17.1673L25.1817 17.3653C25.7182 17.9555 26.0914 18.7558 26.0914 19.7201C26.0914 21.5389 25.5484 22.5425 24.8347 23.1351C24.0951 23.7493 23.0869 23.9965 22.0102 24.1161L20.8436 24.2458L21.7453 24.9972C21.9678 25.1826 22.2382 25.634 22.2382 26.448V29.2002C22.2382 29.4385 22.3262 29.7173 22.5508 29.926C22.7873 30.1456 23.1129 30.2307 23.473 30.1857L23.5232 30.1794L23.5712 30.1631C27.7449 28.7505 30.7 24.8326 30.7 20.2094ZM14.7748 25.9924C14.7749 25.9927 14.775 25.993 14.2978 26.1421L14.2978 26.1421L14.775 25.993L14.7748 25.9924ZM0.699951 20C0.699951 9.23045 9.4304 0.5 20.2 0.5C30.9695 0.5 39.7 9.23045 39.7 20C39.7 30.7696 30.9695 39.5 20.2 39.5C9.4304 39.5 0.699951 30.7696 0.699951 20Z" fill="white" stroke="white"/>
</svg>
