<svg width="41" height="40" viewBox="0 0 41 40" fill="none" xmlns="http://www.w3.org/2000/svg">
<path d="M11.9409 14.9451L11.9554 14.9625L11.9714 14.9785C11.981 14.9882 12.0106 15.0254 12.0372 15.0876C12.063 15.1476 12.0749 15.2054 12.0749 15.25V24V24.0812L12.1006 24.1581C12.1345 24.2598 12.1237 24.3039 12.1162 24.3263C12.1044 24.3617 12.0713 24.4216 11.9714 24.5215L11.9571 24.5358L11.944 24.5512L9.81898 27.0512L9.69995 27.1912V27.375V27.75V28.25H10.2H16.075H16.575V27.75V27.375V27.1912L16.4559 27.0512L14.3704 24.5976C14.2634 24.3812 14.1999 24.2291 14.1999 24V18.6515L18.496 27.9595L18.63 28.25H18.95H19.4499H19.7898L19.9149 27.9339L23.45 18.9981V25.5C23.45 25.5653 23.4499 25.6092 23.4484 25.646C23.448 25.6558 23.4475 25.664 23.4471 25.6708L21.8464 27.2715L21.7 27.4179V27.625V28V28.5H22.2H30.0749H30.5749V28V27.625V27.4179L30.4285 27.2715L28.9608 25.8037C28.9601 25.8005 28.9595 25.7969 28.9588 25.7928C28.9509 25.7452 28.95 25.6904 28.95 25.625V14.375V14.257L28.9337 14.2244L30.5391 12.7424L30.7 12.5939V12.375V12V11.5H30.2H24.7H24.363L24.2365 11.8123L20.6729 20.6099L16.6549 11.7927L16.5216 11.5H16.1999H10.45H9.94997V12V12.375V12.556L10.0659 12.6951L11.9409 14.9451ZM23.4714 25.6464L23.4714 25.6465C23.4715 25.6463 23.4715 25.6463 23.4714 25.6464ZM20.2 39.5C9.43041 39.5 0.699951 30.7695 0.699951 20C0.699951 9.23044 9.43041 0.5 20.2 0.5C30.9695 0.5 39.7 9.23044 39.7 20C39.7 30.7695 30.9695 39.5 20.2 39.5Z" fill="white" stroke="white"/>
</svg>
