<svg width="416" height="277" viewBox="0 0 416 277" fill="none" xmlns="http://www.w3.org/2000/svg">
<g opacity="0.95">
<path d="M152.505 99.6472L88.475 56.642" stroke="#5C5C5C" stroke-width="1.19033"/>
<path d="M97.3611 194.149L55.3456 218.432" stroke="#5C5C5C" stroke-width="1.19033"/>
<path d="M314.97 185.048L271.945 211.525" stroke="#5C5C5C" stroke-width="1.19033"/>
<path d="M336.474 206.561L408.468 246.699" stroke="#5C5C5C" stroke-width="1.19033"/>
<path d="M328.03 22.875L272.92 51.5451" stroke="#5C5C5C" stroke-width="1.19033"/>
<path d="M61.7144 276V245.884M61.7144 276L17.9644 250.554V220.643M61.7144 276L83.5894 263.054V233.143M61.7144 245.884L83.5894 233.143M61.7144 245.884L17.9644 220.643M83.5894 233.143L39.3929 207.696L17.9644 220.643M250.107 224.214L271.982 211.714V181.357M250.107 224.214V194.304M250.107 224.214L227.786 211.714V181.357M271.982 181.357L250.107 168.857L227.786 181.357M271.982 181.357L250.107 194.304M227.786 181.357L250.107 194.304M336.714 206.804V197.429M336.714 206.804L315.286 195.196V184.929M336.714 206.804L380.911 181.357V171.536M336.714 197.429L315.286 184.929M336.714 197.429L380.911 171.536M315.286 184.929L358.589 159.036L380.911 171.536M393.857 59.9286V89.3929M393.857 59.9286L415.286 47.4286M393.857 59.9286L328.232 21.9822L328.679 51.4464L393.857 89.3929M393.857 89.3929L415.286 76.8929V47.4286M415.286 47.4286L349.661 8.58929L327.786 21.5357" stroke="#F45D22" stroke-width="1.28448"/>
<path d="M44.75 52.3393V82.25M44.75 52.3393L88.0536 26.8929M44.75 52.3393L1 26.8929M44.75 82.25L88.0536 57.25V26.8929M44.75 82.25L1 57.25V26.8929M88.0536 26.8929L44.75 1L1 26.8929" stroke="#F45D22" stroke-width="1.28448"/>
<path d="M185.375 51.893V81.3572L229.125 107.25L272.875 81.8037L272.429 51.4465L228.679 76.893L185.375 51.893Z" stroke="white" stroke-width="1.28448"/>
<path d="M185.375 51.8927L228.679 26.4463" stroke="white" stroke-width="1.28448"/>
<path d="M272.428 51.8928L228.232 26.8928" stroke="white" stroke-width="1.28448"/>
<path d="M229.125 107.25L184.929 132.697M229.125 107.25L184.929 81.3572M229.125 107.25V76.893M184.929 132.697V163.139M184.929 132.697L140.732 107.697M184.929 163.139L229.125 137.607V167.518L140.732 219.75M184.929 163.139L140.732 189.393M184.929 163.139L140.732 138.054M140.732 219.75V189.393M140.732 219.75L96.9822 194.304V163.139M140.732 189.393L96.9822 163.139M140.732 107.697V138.054M140.732 107.697L184.929 81.3572M140.732 138.054L96.9822 163.139M184.929 81.3572V51.4465" stroke="white" stroke-width="1.28448"/>
<path d="M272.875 81.8035V142.518L229.125 167.518V107.696" stroke="white" stroke-width="1.28448"/>
<path d="M229.125 137.607L272.875 112.161" stroke="white" stroke-width="1.28448"/>
<path d="M184.928 163.054V193.857" stroke="white" stroke-width="1.28448"/>
</g>
</svg>
