<svg width="599" height="143" viewBox="0 0 599 143" fill="none" xmlns="http://www.w3.org/2000/svg">
<path d="M472.767 98.264C471.557 98.264 470.336 98.22 469.104 98.132C467.872 98.066 466.794 97.912 465.87 97.67V75.461C466.354 75.373 466.871 75.296 467.421 75.23C467.971 75.142 468.532 75.076 469.104 75.032C469.676 74.988 470.237 74.955 470.787 74.933C471.359 74.911 471.898 74.9 472.404 74.9C473.79 74.9 475.077 75.01 476.265 75.23C477.453 75.428 478.476 75.769 479.334 76.253C480.214 76.737 480.896 77.375 481.38 78.167C481.864 78.959 482.106 79.938 482.106 81.104C482.106 82.182 481.842 83.106 481.314 83.876C480.808 84.646 480.093 85.262 479.169 85.724C480.555 86.186 481.578 86.868 482.238 87.77C482.898 88.672 483.228 89.816 483.228 91.202C483.228 93.556 482.37 95.327 480.654 96.515C478.938 97.681 476.309 98.264 472.767 98.264ZM469.962 87.704V94.667C470.424 94.711 470.919 94.744 471.447 94.766C471.975 94.788 472.459 94.799 472.899 94.799C473.757 94.799 474.549 94.744 475.275 94.634C476.023 94.524 476.661 94.337 477.189 94.073C477.739 93.787 478.168 93.413 478.476 92.951C478.806 92.489 478.971 91.895 478.971 91.169C478.971 89.871 478.498 88.969 477.552 88.463C476.606 87.957 475.297 87.704 473.625 87.704H469.962ZM469.962 84.437H472.899C474.483 84.437 475.726 84.217 476.628 83.777C477.53 83.315 477.981 82.501 477.981 81.335C477.981 80.235 477.508 79.454 476.562 78.992C475.638 78.53 474.428 78.299 472.932 78.299C472.294 78.299 471.722 78.31 471.216 78.332C470.732 78.354 470.314 78.387 469.962 78.431V84.437ZM501.517 97.472C500.747 97.67 499.746 97.868 498.514 98.066C497.282 98.286 495.929 98.396 494.455 98.396C493.069 98.396 491.903 98.198 490.957 97.802C490.033 97.406 489.285 96.856 488.713 96.152C488.163 95.448 487.767 94.612 487.525 93.644C487.283 92.654 487.162 91.576 487.162 90.41V80.741H491.155V89.783C491.155 91.631 491.419 92.951 491.947 93.743C492.497 94.535 493.443 94.931 494.785 94.931C495.269 94.931 495.775 94.909 496.303 94.865C496.853 94.821 497.26 94.766 497.524 94.7V80.741H501.517V97.472ZM520.691 80.741C518.909 87.297 516.841 93.237 514.487 98.561C514.047 99.551 513.596 100.398 513.134 101.102C512.672 101.806 512.155 102.389 511.583 102.851C511.011 103.313 510.373 103.643 509.669 103.841C508.965 104.061 508.151 104.171 507.227 104.171C506.611 104.171 505.995 104.105 505.379 103.973C504.785 103.841 504.334 103.698 504.026 103.544L504.752 100.343C505.544 100.651 506.325 100.805 507.095 100.805C508.129 100.805 508.932 100.552 509.504 100.046C510.098 99.562 510.615 98.803 511.055 97.769C509.801 95.349 508.591 92.709 507.425 89.849C506.281 86.989 505.258 83.953 504.356 80.741H508.613C508.833 81.665 509.097 82.666 509.405 83.744C509.735 84.822 510.087 85.922 510.461 87.044C510.835 88.144 511.231 89.244 511.649 90.344C512.067 91.444 512.485 92.467 512.903 93.413C513.607 91.455 514.267 89.376 514.883 87.176C515.499 84.954 516.06 82.809 516.566 80.741H520.691ZM524.372 104.105H520.28L531.434 72.161H535.46L524.372 104.105ZM543.182 94.898C544.678 94.898 545.767 94.645 546.449 94.139C547.131 93.633 547.472 92.918 547.472 91.994C547.472 91.444 547.351 90.971 547.109 90.575C546.889 90.179 546.559 89.827 546.119 89.519C545.701 89.189 545.184 88.892 544.568 88.628C543.952 88.342 543.248 88.067 542.456 87.803C541.664 87.517 540.894 87.209 540.146 86.879C539.42 86.527 538.771 86.098 538.199 85.592C537.649 85.086 537.198 84.481 536.846 83.777C536.516 83.073 536.351 82.226 536.351 81.236C536.351 79.168 537.066 77.551 538.496 76.385C539.926 75.197 541.873 74.603 544.337 74.603C545.767 74.603 547.032 74.768 548.132 75.098C549.254 75.406 550.134 75.747 550.772 76.121L549.485 79.487C548.737 79.069 547.912 78.75 547.01 78.53C546.13 78.31 545.217 78.2 544.271 78.2C543.149 78.2 542.269 78.431 541.631 78.893C541.015 79.355 540.707 80.004 540.707 80.84C540.707 81.346 540.806 81.786 541.004 82.16C541.224 82.512 541.521 82.831 541.895 83.117C542.291 83.403 542.742 83.667 543.248 83.909C543.776 84.151 544.348 84.382 544.964 84.602C546.042 84.998 546.999 85.405 547.835 85.823C548.693 86.219 549.408 86.703 549.98 87.275C550.574 87.825 551.025 88.485 551.333 89.255C551.641 90.003 551.795 90.916 551.795 91.994C551.795 94.062 551.058 95.668 549.584 96.812C548.132 97.934 545.998 98.495 543.182 98.495C542.236 98.495 541.367 98.429 540.575 98.297C539.805 98.187 539.112 98.044 538.496 97.868C537.902 97.692 537.385 97.516 536.945 97.34C536.505 97.142 536.153 96.966 535.889 96.812L537.11 93.413C537.704 93.743 538.507 94.073 539.519 94.403C540.531 94.733 541.752 94.898 543.182 94.898ZM554.305 89.453C554.305 87.935 554.525 86.604 554.965 85.46C555.427 84.316 556.032 83.37 556.78 82.622C557.528 81.852 558.386 81.28 559.354 80.906C560.322 80.51 561.312 80.312 562.324 80.312C564.7 80.312 566.548 81.049 567.868 82.523C569.21 83.997 569.881 86.197 569.881 89.123C569.881 89.343 569.87 89.596 569.848 89.882C569.848 90.146 569.837 90.388 569.815 90.608H558.43C558.54 91.994 559.024 93.072 559.882 93.842C560.762 94.59 562.027 94.964 563.677 94.964C564.645 94.964 565.525 94.876 566.317 94.7C567.131 94.524 567.769 94.337 568.231 94.139L568.759 97.406C568.539 97.516 568.231 97.637 567.835 97.769C567.461 97.879 567.021 97.978 566.515 98.066C566.031 98.176 565.503 98.264 564.931 98.33C564.359 98.396 563.776 98.429 563.182 98.429C561.664 98.429 560.344 98.209 559.222 97.769C558.1 97.307 557.176 96.68 556.45 95.888C555.724 95.074 555.185 94.128 554.833 93.05C554.481 91.95 554.305 90.751 554.305 89.453ZM565.888 87.671C565.888 87.121 565.811 86.604 565.657 86.12C565.503 85.614 565.272 85.185 564.964 84.833C564.678 84.459 564.315 84.173 563.875 83.975C563.457 83.755 562.951 83.645 562.357 83.645C561.741 83.645 561.202 83.766 560.74 84.008C560.278 84.228 559.882 84.525 559.552 84.899C559.244 85.273 559.002 85.702 558.826 86.186C558.65 86.67 558.529 87.165 558.463 87.671H565.888ZM580.12 98.33C578.932 98.308 577.942 98.176 577.15 97.934C576.38 97.692 575.764 97.351 575.302 96.911C574.84 96.449 574.51 95.888 574.312 95.228C574.136 94.546 574.048 93.776 574.048 92.918V73.052L578.041 72.392V92.159C578.041 92.643 578.074 93.05 578.14 93.38C578.228 93.71 578.371 93.996 578.569 94.238C578.767 94.458 579.031 94.634 579.361 94.766C579.713 94.876 580.153 94.964 580.681 95.03L580.12 98.33ZM589.917 98.33C588.729 98.308 587.739 98.176 586.947 97.934C586.177 97.692 585.561 97.351 585.099 96.911C584.637 96.449 584.307 95.888 584.109 95.228C583.933 94.546 583.845 93.776 583.845 92.918V73.052L587.838 72.392V92.159C587.838 92.643 587.871 93.05 587.937 93.38C588.025 93.71 588.168 93.996 588.366 94.238C588.564 94.458 588.828 94.634 589.158 94.766C589.51 94.876 589.95 94.964 590.478 95.03L589.917 98.33ZM506.588 122.338C506.258 122.228 505.796 122.118 505.202 122.008C504.63 121.876 503.959 121.81 503.189 121.81C502.749 121.81 502.276 121.854 501.77 121.942C501.286 122.03 500.945 122.107 500.747 122.173V136H496.754V119.566C497.524 119.28 498.481 119.016 499.625 118.774C500.791 118.51 502.078 118.378 503.486 118.378C503.75 118.378 504.058 118.4 504.41 118.444C504.762 118.466 505.114 118.51 505.466 118.576C505.818 118.62 506.159 118.686 506.489 118.774C506.819 118.84 507.083 118.906 507.281 118.972L506.588 122.338ZM516.136 133.195C517.368 133.195 518.303 133.129 518.941 132.997V128.575C518.721 128.509 518.402 128.443 517.984 128.377C517.566 128.311 517.104 128.278 516.598 128.278C516.158 128.278 515.707 128.311 515.245 128.377C514.805 128.443 514.398 128.564 514.024 128.74C513.672 128.916 513.386 129.169 513.166 129.499C512.946 129.807 512.836 130.203 512.836 130.687C512.836 131.633 513.133 132.293 513.727 132.667C514.321 133.019 515.124 133.195 516.136 133.195ZM515.806 118.312C517.126 118.312 518.237 118.477 519.139 118.807C520.041 119.137 520.756 119.599 521.284 120.193C521.834 120.787 522.219 121.513 522.439 122.371C522.681 123.207 522.802 124.131 522.802 125.143V135.604C522.186 135.736 521.251 135.89 519.997 136.066C518.765 136.264 517.368 136.363 515.806 136.363C514.772 136.363 513.826 136.264 512.968 136.066C512.11 135.868 511.373 135.549 510.757 135.109C510.163 134.669 509.69 134.097 509.338 133.393C509.008 132.689 508.843 131.82 508.843 130.786C508.843 129.796 509.03 128.96 509.404 128.278C509.8 127.596 510.328 127.046 510.988 126.628C511.648 126.188 512.407 125.88 513.265 125.704C514.145 125.506 515.058 125.407 516.004 125.407C516.444 125.407 516.906 125.44 517.39 125.506C517.874 125.55 518.391 125.638 518.941 125.77V125.11C518.941 124.648 518.886 124.208 518.776 123.79C518.666 123.372 518.468 123.009 518.182 122.701C517.918 122.371 517.555 122.118 517.093 121.942C516.653 121.766 516.092 121.678 515.41 121.678C514.486 121.678 513.639 121.744 512.869 121.876C512.099 122.008 511.472 122.162 510.988 122.338L510.493 119.104C510.999 118.928 511.736 118.752 512.704 118.576C513.672 118.4 514.706 118.312 515.806 118.312ZM527.494 114.187L531.487 113.527V118.741H537.625V122.074H531.487V129.103C531.487 130.489 531.707 131.479 532.147 132.073C532.587 132.667 533.335 132.964 534.391 132.964C535.117 132.964 535.755 132.887 536.305 132.733C536.877 132.579 537.328 132.436 537.658 132.304L538.318 135.472C537.856 135.67 537.251 135.868 536.503 136.066C535.755 136.286 534.875 136.396 533.863 136.396C532.631 136.396 531.597 136.231 530.761 135.901C529.947 135.571 529.298 135.098 528.814 134.482C528.33 133.844 527.989 133.085 527.791 132.205C527.593 131.303 527.494 130.28 527.494 129.136V114.187ZM545.511 136H541.518V118.741H545.511V136ZM545.94 113.692C545.94 114.44 545.698 115.034 545.214 115.474C544.73 115.914 544.158 116.134 543.498 116.134C542.816 116.134 542.233 115.914 541.749 115.474C541.265 115.034 541.023 114.44 541.023 113.692C541.023 112.922 541.265 112.317 541.749 111.877C542.233 111.437 542.816 111.217 543.498 111.217C544.158 111.217 544.73 111.437 545.214 111.877C545.698 112.317 545.94 112.922 545.94 113.692ZM566.214 127.354C566.214 128.718 566.016 129.961 565.62 131.083C565.224 132.205 564.663 133.162 563.937 133.954C563.211 134.746 562.331 135.362 561.297 135.802C560.285 136.242 559.163 136.462 557.931 136.462C556.699 136.462 555.577 136.242 554.565 135.802C553.553 135.362 552.684 134.746 551.958 133.954C551.232 133.162 550.66 132.205 550.242 131.083C549.846 129.961 549.648 128.718 549.648 127.354C549.648 125.99 549.846 124.758 550.242 123.658C550.66 122.536 551.232 121.579 551.958 120.787C552.706 119.995 553.586 119.39 554.598 118.972C555.61 118.532 556.721 118.312 557.931 118.312C559.141 118.312 560.252 118.532 561.264 118.972C562.298 119.39 563.178 119.995 563.904 120.787C564.63 121.579 565.191 122.536 565.587 123.658C566.005 124.758 566.214 125.99 566.214 127.354ZM562.122 127.354C562.122 125.638 561.748 124.285 561 123.295C560.274 122.283 559.251 121.777 557.931 121.777C556.611 121.777 555.577 122.283 554.829 123.295C554.103 124.285 553.74 125.638 553.74 127.354C553.74 129.092 554.103 130.467 554.829 131.479C555.577 132.491 556.611 132.997 557.931 132.997C559.251 132.997 560.274 132.491 561 131.479C561.748 130.467 562.122 129.092 562.122 127.354Z" fill="#F45D22"/>
<path d="M468.037 30.2L489.587 21.1L491.237 26.05L474.487 32.75L491.237 39.45L489.587 44.4L468.037 35.3V30.2ZM513.004 37.1C513.004 36 512.788 35.0167 512.354 34.15C511.921 33.2833 511.154 32.55 510.054 31.95C508.988 31.35 507.538 30.9 505.704 30.6C503.904 30.3 501.621 30.15 498.854 30.15C499.221 26.95 499.504 23.9167 499.704 21.05C499.904 18.15 500.071 15.25 500.204 12.35H517.904V17.45H505.354C505.321 18.0167 505.271 18.6667 505.204 19.4C505.171 20.1 505.121 20.8167 505.054 21.55C505.021 22.2833 504.971 22.9833 504.904 23.65C504.838 24.3167 504.771 24.8833 504.704 25.35C509.638 25.6167 513.271 26.75 515.604 28.75C517.971 30.7167 519.154 33.4167 519.154 36.85C519.154 38.4167 518.888 39.8667 518.354 41.2C517.821 42.5333 517.004 43.6833 515.904 44.65C514.804 45.6167 513.421 46.3833 511.754 46.95C510.088 47.4833 508.138 47.75 505.904 47.75C505.004 47.75 504.088 47.6833 503.154 47.55C502.221 47.4167 501.321 47.25 500.454 47.05C499.621 46.8833 498.871 46.7 498.204 46.5C497.538 46.3 497.038 46.1167 496.704 45.95L497.854 40.85C498.554 41.1833 499.554 41.55 500.854 41.95C502.188 42.3167 503.804 42.5 505.704 42.5C507.004 42.5 508.121 42.3667 509.054 42.1C509.988 41.8 510.738 41.4 511.304 40.9C511.904 40.4 512.338 39.8333 512.604 39.2C512.871 38.5333 513.004 37.8333 513.004 37.1ZM541.422 37.1C541.422 36 541.206 35.0167 540.772 34.15C540.339 33.2833 539.572 32.55 538.472 31.95C537.406 31.35 535.956 30.9 534.122 30.6C532.322 30.3 530.039 30.15 527.272 30.15C527.639 26.95 527.922 23.9167 528.122 21.05C528.322 18.15 528.489 15.25 528.622 12.35H546.322V17.45H533.772C533.739 18.0167 533.689 18.6667 533.622 19.4C533.589 20.1 533.539 20.8167 533.472 21.55C533.439 22.2833 533.389 22.9833 533.322 23.65C533.256 24.3167 533.189 24.8833 533.122 25.35C538.056 25.6167 541.689 26.75 544.022 28.75C546.389 30.7167 547.572 33.4167 547.572 36.85C547.572 38.4167 547.306 39.8667 546.772 41.2C546.239 42.5333 545.422 43.6833 544.322 44.65C543.222 45.6167 541.839 46.3833 540.172 46.95C538.506 47.4833 536.556 47.75 534.322 47.75C533.422 47.75 532.506 47.6833 531.572 47.55C530.639 47.4167 529.739 47.25 528.872 47.05C528.039 46.8833 527.289 46.7 526.622 46.5C525.956 46.3 525.456 46.1167 525.122 45.95L526.272 40.85C526.972 41.1833 527.972 41.55 529.272 41.95C530.606 42.3167 532.222 42.5 534.122 42.5C535.422 42.5 536.539 42.3667 537.472 42.1C538.406 41.8 539.156 41.4 539.722 40.9C540.322 40.4 540.756 39.8333 541.022 39.2C541.289 38.5333 541.422 37.8333 541.422 37.1ZM569.84 21.05C569.84 24.0833 569.057 26.4167 567.49 28.05C565.957 29.6833 563.94 30.5 561.44 30.5C560.207 30.5 559.074 30.3 558.04 29.9C557.007 29.4667 556.124 28.85 555.39 28.05C554.657 27.25 554.074 26.2667 553.64 25.1C553.24 23.9 553.04 22.55 553.04 21.05C553.04 17.9833 553.807 15.65 555.34 14.05C556.907 12.4167 558.94 11.6 561.44 11.6C563.94 11.6 565.957 12.4167 567.49 14.05C569.057 15.65 569.84 17.9833 569.84 21.05ZM565.09 21.05C565.09 19.2833 564.757 17.9667 564.09 17.1C563.457 16.2 562.574 15.75 561.44 15.75C560.307 15.75 559.424 16.2 558.79 17.1C558.157 17.9667 557.84 19.2833 557.84 21.05C557.84 22.8167 558.157 24.15 558.79 25.05C559.424 25.9167 560.307 26.35 561.44 26.35C562.574 26.35 563.457 25.9167 564.09 25.05C564.757 24.15 565.09 22.8167 565.09 21.05ZM579.99 12.35H585.74L566.19 47H560.44L579.99 12.35ZM593.19 38.35C593.19 41.3833 592.407 43.7167 590.84 45.35C589.307 46.9833 587.29 47.8 584.79 47.8C583.557 47.8 582.424 47.5833 581.39 47.15C580.357 46.75 579.474 46.15 578.74 45.35C578.007 44.55 577.424 43.5667 576.99 42.4C576.59 41.2 576.39 39.85 576.39 38.35C576.39 35.2833 577.157 32.95 578.69 31.35C580.257 29.7167 582.29 28.9 584.79 28.9C587.29 28.9 589.307 29.7167 590.84 31.35C592.407 32.95 593.19 35.2833 593.19 38.35ZM588.44 38.35C588.44 36.5833 588.107 35.2667 587.44 34.4C586.807 33.5 585.924 33.05 584.79 33.05C583.657 33.05 582.774 33.5 582.14 34.4C581.507 35.2667 581.19 36.5833 581.19 38.35C581.19 40.1167 581.507 41.45 582.14 42.35C582.774 43.2167 583.657 43.65 584.79 43.65C585.924 43.65 586.807 43.2167 587.44 42.35C588.107 41.45 588.44 40.1167 588.44 38.35Z" fill="white"/>
<path d="M16.283 94.898C17.779 94.898 18.868 94.645 19.55 94.139C20.232 93.633 20.573 92.918 20.573 91.994C20.573 91.444 20.452 90.971 20.21 90.575C19.99 90.179 19.66 89.827 19.22 89.519C18.802 89.189 18.285 88.892 17.669 88.628C17.053 88.342 16.349 88.067 15.557 87.803C14.765 87.517 13.995 87.209 13.247 86.879C12.521 86.527 11.872 86.098 11.3 85.592C10.75 85.086 10.299 84.481 9.947 83.777C9.617 83.073 9.452 82.226 9.452 81.236C9.452 79.168 10.167 77.551 11.597 76.385C13.027 75.197 14.974 74.603 17.438 74.603C18.868 74.603 20.133 74.768 21.233 75.098C22.355 75.406 23.235 75.747 23.873 76.121L22.586 79.487C21.838 79.069 21.013 78.75 20.111 78.53C19.231 78.31 18.318 78.2 17.372 78.2C16.25 78.2 15.37 78.431 14.732 78.893C14.116 79.355 13.808 80.004 13.808 80.84C13.808 81.346 13.907 81.786 14.105 82.16C14.325 82.512 14.622 82.831 14.996 83.117C15.392 83.403 15.843 83.667 16.349 83.909C16.877 84.151 17.449 84.382 18.065 84.602C19.143 84.998 20.1 85.405 20.936 85.823C21.794 86.219 22.509 86.703 23.081 87.275C23.675 87.825 24.126 88.485 24.434 89.255C24.742 90.003 24.896 90.916 24.896 91.994C24.896 94.062 24.159 95.668 22.685 96.812C21.233 97.934 19.099 98.495 16.283 98.495C15.337 98.495 14.468 98.429 13.676 98.297C12.906 98.187 12.213 98.044 11.597 97.868C11.003 97.692 10.486 97.516 10.046 97.34C9.606 97.142 9.254 96.966 8.99 96.812L10.211 93.413C10.805 93.743 11.608 94.073 12.62 94.403C13.632 94.733 14.853 94.898 16.283 94.898ZM39.8133 89.453C39.8133 87.671 39.4063 86.285 38.5923 85.295C37.8003 84.305 36.5133 83.81 34.7313 83.81C34.3573 83.81 33.9613 83.832 33.5433 83.876C33.1473 83.898 32.7513 83.964 32.3553 84.074V93.941C32.7073 94.183 33.1693 94.414 33.7413 94.634C34.3353 94.832 34.9623 94.931 35.6223 94.931C37.0743 94.931 38.1303 94.436 38.7903 93.446C39.4723 92.456 39.8133 91.125 39.8133 89.453ZM43.9053 89.387C43.9053 90.707 43.7293 91.917 43.3773 93.017C43.0473 94.117 42.5633 95.063 41.9253 95.855C41.2873 96.647 40.4843 97.263 39.5163 97.703C38.5703 98.143 37.4923 98.363 36.2823 98.363C35.4683 98.363 34.7203 98.264 34.0383 98.066C33.3563 97.868 32.7953 97.648 32.3553 97.406V104.105H28.3623V81.302C29.1763 81.082 30.1773 80.873 31.3653 80.675C32.5533 80.477 33.8073 80.378 35.1273 80.378C36.4913 80.378 37.7123 80.587 38.7903 81.005C39.8683 81.423 40.7813 82.028 41.5293 82.82C42.2993 83.59 42.8823 84.536 43.2783 85.658C43.6963 86.758 43.9053 88.001 43.9053 89.387ZM57.8545 84.338C57.5245 84.228 57.0625 84.118 56.4685 84.008C55.8965 83.876 55.2255 83.81 54.4555 83.81C54.0155 83.81 53.5425 83.854 53.0365 83.942C52.5525 84.03 52.2115 84.107 52.0135 84.173V98H48.0205V81.566C48.7905 81.28 49.7475 81.016 50.8915 80.774C52.0575 80.51 53.3445 80.378 54.7525 80.378C55.0165 80.378 55.3245 80.4 55.6765 80.444C56.0285 80.466 56.3805 80.51 56.7325 80.576C57.0845 80.62 57.4255 80.686 57.7555 80.774C58.0855 80.84 58.3495 80.906 58.5475 80.972L57.8545 84.338ZM60.3731 89.453C60.3731 87.935 60.5931 86.604 61.0331 85.46C61.4951 84.316 62.1001 83.37 62.8481 82.622C63.5961 81.852 64.4541 81.28 65.4221 80.906C66.3901 80.51 67.3801 80.312 68.3921 80.312C70.7681 80.312 72.6161 81.049 73.9361 82.523C75.2781 83.997 75.9491 86.197 75.9491 89.123C75.9491 89.343 75.9381 89.596 75.9161 89.882C75.9161 90.146 75.9051 90.388 75.8831 90.608H64.4981C64.6081 91.994 65.0921 93.072 65.9501 93.842C66.8301 94.59 68.0951 94.964 69.7451 94.964C70.7131 94.964 71.5931 94.876 72.3851 94.7C73.1991 94.524 73.8371 94.337 74.2991 94.139L74.8271 97.406C74.6071 97.516 74.2991 97.637 73.9031 97.769C73.5291 97.879 73.0891 97.978 72.5831 98.066C72.0991 98.176 71.5711 98.264 70.9991 98.33C70.4271 98.396 69.8441 98.429 69.2501 98.429C67.7321 98.429 66.4121 98.209 65.2901 97.769C64.1681 97.307 63.2441 96.68 62.5181 95.888C61.7921 95.074 61.2531 94.128 60.9011 93.05C60.5491 91.95 60.3731 90.751 60.3731 89.453ZM71.9561 87.671C71.9561 87.121 71.8791 86.604 71.7251 86.12C71.5711 85.614 71.3401 85.185 71.0321 84.833C70.7461 84.459 70.3831 84.173 69.9431 83.975C69.5251 83.755 69.0191 83.645 68.4251 83.645C67.8091 83.645 67.2701 83.766 66.8081 84.008C66.3461 84.228 65.9501 84.525 65.6201 84.899C65.3121 85.273 65.0701 85.702 64.8941 86.186C64.7181 86.67 64.5971 87.165 64.5311 87.671H71.9561ZM86.2546 95.195C87.4866 95.195 88.4216 95.129 89.0596 94.997V90.575C88.8396 90.509 88.5206 90.443 88.1026 90.377C87.6846 90.311 87.2226 90.278 86.7166 90.278C86.2766 90.278 85.8256 90.311 85.3636 90.377C84.9236 90.443 84.5166 90.564 84.1426 90.74C83.7906 90.916 83.5046 91.169 83.2846 91.499C83.0646 91.807 82.9546 92.203 82.9546 92.687C82.9546 93.633 83.2516 94.293 83.8456 94.667C84.4396 95.019 85.2426 95.195 86.2546 95.195ZM85.9246 80.312C87.2446 80.312 88.3556 80.477 89.2576 80.807C90.1596 81.137 90.8746 81.599 91.4026 82.193C91.9526 82.787 92.3376 83.513 92.5576 84.371C92.7996 85.207 92.9206 86.131 92.9206 87.143V97.604C92.3046 97.736 91.3696 97.89 90.1156 98.066C88.8836 98.264 87.4866 98.363 85.9246 98.363C84.8906 98.363 83.9446 98.264 83.0866 98.066C82.2286 97.868 81.4916 97.549 80.8756 97.109C80.2816 96.669 79.8086 96.097 79.4566 95.393C79.1266 94.689 78.9616 93.82 78.9616 92.786C78.9616 91.796 79.1486 90.96 79.5226 90.278C79.9186 89.596 80.4466 89.046 81.1066 88.628C81.7666 88.188 82.5256 87.88 83.3836 87.704C84.2636 87.506 85.1766 87.407 86.1226 87.407C86.5626 87.407 87.0246 87.44 87.5086 87.506C87.9926 87.55 88.5096 87.638 89.0596 87.77V87.11C89.0596 86.648 89.0046 86.208 88.8946 85.79C88.7846 85.372 88.5866 85.009 88.3006 84.701C88.0366 84.371 87.6736 84.118 87.2116 83.942C86.7716 83.766 86.2106 83.678 85.5286 83.678C84.6046 83.678 83.7576 83.744 82.9876 83.876C82.2176 84.008 81.5906 84.162 81.1066 84.338L80.6116 81.104C81.1176 80.928 81.8546 80.752 82.8226 80.576C83.7906 80.4 84.8246 80.312 85.9246 80.312ZM100.946 89.321C100.946 91.081 101.364 92.467 102.2 93.479C103.036 94.469 104.191 94.964 105.665 94.964C106.303 94.964 106.842 94.942 107.282 94.898C107.744 94.832 108.118 94.766 108.404 94.7V84.8C108.052 84.558 107.579 84.338 106.985 84.14C106.413 83.92 105.797 83.81 105.137 83.81C103.685 83.81 102.618 84.305 101.936 85.295C101.276 86.285 100.946 87.627 100.946 89.321ZM112.397 97.472C111.605 97.714 110.604 97.934 109.394 98.132C108.206 98.33 106.952 98.429 105.632 98.429C104.268 98.429 103.047 98.22 101.969 97.802C100.891 97.384 99.9665 96.79 99.1965 96.02C98.4485 95.228 97.8655 94.282 97.4475 93.182C97.0515 92.06 96.8535 90.806 96.8535 89.42C96.8535 88.056 97.0185 86.824 97.3485 85.724C97.7005 84.602 98.2065 83.645 98.8665 82.853C99.5265 82.061 100.33 81.456 101.276 81.038C102.222 80.598 103.311 80.378 104.543 80.378C105.379 80.378 106.116 80.477 106.754 80.675C107.392 80.873 107.942 81.093 108.404 81.335V73.052L112.397 72.392V97.472Z" fill="#F45D22"/>
<path d="M11.8 47.75C10.9 47.75 9.96667 47.6833 9 47.55C8.06667 47.45 7.16667 47.3 6.3 47.1C5.46667 46.9333 4.7 46.75 4 46.55C3.3 46.3167 2.76667 46.1 2.4 45.9L3.6 40.75C4.3 41.0833 5.31667 41.4667 6.65 41.9C7.98333 42.3 9.63333 42.5 11.6 42.5C14.2333 42.5 16.1333 42 17.3 41C18.4667 39.9667 19.05 38.6 19.05 36.9C19.05 35.8 18.8167 34.8833 18.35 34.15C17.9167 33.4167 17.3 32.8333 16.5 32.4C15.7333 31.9333 14.8333 31.6167 13.8 31.45C12.8 31.25 11.7333 31.15 10.6 31.15H8.55V26.25H11.05C11.8167 26.25 12.5833 26.1833 13.35 26.05C14.15 25.8833 14.8667 25.6167 15.5 25.25C16.1333 24.85 16.65 24.3333 17.05 23.7C17.45 23.0667 17.65 22.25 17.65 21.25C17.65 20.45 17.5 19.7667 17.2 19.2C16.9 18.6333 16.5 18.1667 16 17.8C15.5333 17.4333 14.9833 17.1667 14.35 17C13.7167 16.8333 13.05 16.75 12.35 16.75C10.85 16.75 9.51667 16.9833 8.35 17.45C7.18333 17.8833 6.15 18.3833 5.25 18.95L3.05 14.45C3.51667 14.15 4.08333 13.8333 4.75 13.5C5.41667 13.1667 6.15 12.85 6.95 12.55C7.78333 12.25 8.66667 12.0167 9.6 11.85C10.5333 11.65 11.5167 11.55 12.55 11.55C14.4833 11.55 16.15 11.7833 17.55 12.25C18.95 12.7167 20.1 13.3833 21 14.25C21.9333 15.0833 22.6167 16.0833 23.05 17.25C23.5167 18.3833 23.75 19.6333 23.75 21C23.75 22.6 23.3 24.0333 22.4 25.3C21.5333 26.5667 20.4 27.5333 19 28.2C20.8 28.8333 22.2833 29.8833 23.45 31.35C24.65 32.8167 25.25 34.7 25.25 37C25.25 38.5333 24.9833 39.9667 24.45 41.3C23.9167 42.6 23.1 43.7333 22 44.7C20.9 45.6333 19.5 46.3833 17.8 46.95C16.1333 47.4833 14.1333 47.75 11.8 47.75ZM61.2879 33.85C61.2879 31.2833 60.7712 29.25 59.7379 27.75C58.7379 26.25 57.1379 25.5 54.9379 25.5C53.9379 25.5 52.9879 25.65 52.0879 25.95C51.2212 26.25 50.5212 26.5833 49.9879 26.95V42C50.4212 42.1 50.9712 42.2 51.6379 42.3C52.3379 42.3667 53.1712 42.4 54.1379 42.4C56.3712 42.4 58.1212 41.65 59.3879 40.15C60.6546 38.6167 61.2879 36.5167 61.2879 33.85ZM67.4879 33.95C67.4879 36.05 67.1712 37.95 66.5379 39.65C65.9379 41.3167 65.0546 42.75 63.8879 43.95C62.7546 45.15 61.3712 46.0667 59.7379 46.7C58.1046 47.3333 56.2546 47.65 54.1879 47.65C52.1879 47.65 50.2712 47.5 48.4379 47.2C46.6379 46.9 45.1379 46.5667 43.9379 46.2V9.2L49.9879 8.2V21.75C50.6879 21.3833 51.5379 21.05 52.5379 20.75C53.5712 20.45 54.7046 20.3 55.9379 20.3C57.7712 20.3 59.4046 20.6333 60.8379 21.3C62.3046 21.9333 63.5212 22.85 64.4879 24.05C65.4546 25.25 66.1879 26.7 66.6879 28.4C67.2212 30.0667 67.4879 31.9167 67.4879 33.95ZM91.073 34.05C91.073 31.35 90.4564 29.25 89.223 27.75C88.023 26.25 86.073 25.5 83.373 25.5C82.8064 25.5 82.2064 25.5333 81.573 25.6C80.973 25.6333 80.373 25.7333 79.773 25.9V40.85C80.3064 41.2167 81.0064 41.5667 81.873 41.9C82.773 42.2 83.723 42.35 84.723 42.35C86.923 42.35 88.523 41.6 89.523 40.1C90.5564 38.6 91.073 36.5833 91.073 34.05ZM97.273 33.95C97.273 35.95 97.0064 37.7833 96.473 39.45C95.973 41.1167 95.2397 42.55 94.273 43.75C93.3064 44.95 92.0897 45.8833 90.623 46.55C89.1897 47.2167 87.5564 47.55 85.723 47.55C84.4897 47.55 83.3564 47.4 82.323 47.1C81.2897 46.8 80.4397 46.4667 79.773 46.1V56.25H73.723V21.7C74.9564 21.3667 76.473 21.05 78.273 20.75C80.073 20.45 81.973 20.3 83.973 20.3C86.0397 20.3 87.8897 20.6167 89.523 21.25C91.1564 21.8833 92.5397 22.8 93.673 24C94.8397 25.1667 95.723 26.6 96.323 28.3C96.9564 29.9667 97.273 31.85 97.273 33.95ZM110.058 42.65C111.658 42.65 112.825 42.4667 113.558 42.1C114.292 41.7 114.658 41.0333 114.658 40.1C114.658 39.2333 114.258 38.5167 113.458 37.95C112.692 37.3833 111.408 36.7667 109.608 36.1C108.508 35.7 107.492 35.2833 106.558 34.85C105.658 34.3833 104.875 33.85 104.208 33.25C103.542 32.65 103.008 31.9333 102.608 31.1C102.242 30.2333 102.058 29.1833 102.058 27.95C102.058 25.55 102.942 23.6667 104.708 22.3C106.475 20.9 108.875 20.2 111.908 20.2C113.442 20.2 114.908 20.35 116.308 20.65C117.708 20.9167 118.758 21.1833 119.458 21.45L118.358 26.35C117.692 26.05 116.842 25.7833 115.808 25.55C114.775 25.2833 113.575 25.15 112.208 25.15C110.975 25.15 109.975 25.3667 109.208 25.8C108.442 26.2 108.058 26.8333 108.058 27.7C108.058 28.1333 108.125 28.5167 108.258 28.85C108.425 29.1833 108.692 29.5 109.058 29.8C109.425 30.0667 109.908 30.35 110.508 30.65C111.108 30.9167 111.842 31.2 112.708 31.5C114.142 32.0333 115.358 32.5667 116.358 33.1C117.358 33.6 118.175 34.1833 118.808 34.85C119.475 35.4833 119.958 36.2167 120.258 37.05C120.558 37.8833 120.708 38.8833 120.708 40.05C120.708 42.55 119.775 44.45 117.908 45.75C116.075 47.0167 113.442 47.65 110.008 47.65C107.708 47.65 105.858 47.45 104.458 47.05C103.058 46.6833 102.075 46.3833 101.508 46.15L102.558 41.1C103.458 41.4667 104.525 41.8167 105.758 42.15C107.025 42.4833 108.458 42.65 110.058 42.65Z" fill="white"/>
<path d="M231.729 98C230.079 94.436 228.484 90.707 226.944 86.813C225.426 82.919 224.007 79.025 222.687 75.131H227.274C227.802 76.671 228.341 78.244 228.891 79.85C229.441 81.456 229.991 83.04 230.541 84.602C231.091 86.142 231.641 87.638 232.191 89.09C232.741 90.542 233.28 91.873 233.808 93.083C234.314 91.873 234.842 90.553 235.392 89.123C235.942 87.671 236.492 86.164 237.042 84.602C237.614 83.04 238.175 81.456 238.725 79.85C239.275 78.244 239.803 76.671 240.309 75.131H244.764C243.422 79.025 241.992 82.919 240.474 86.813C238.956 90.707 237.372 94.436 235.722 98H231.729ZM261.811 89.354C261.811 90.718 261.613 91.961 261.217 93.083C260.821 94.205 260.26 95.162 259.534 95.954C258.808 96.746 257.928 97.362 256.894 97.802C255.882 98.242 254.76 98.462 253.528 98.462C252.296 98.462 251.174 98.242 250.162 97.802C249.15 97.362 248.281 96.746 247.555 95.954C246.829 95.162 246.257 94.205 245.839 93.083C245.443 91.961 245.245 90.718 245.245 89.354C245.245 87.99 245.443 86.758 245.839 85.658C246.257 84.536 246.829 83.579 247.555 82.787C248.303 81.995 249.183 81.39 250.195 80.972C251.207 80.532 252.318 80.312 253.528 80.312C254.738 80.312 255.849 80.532 256.861 80.972C257.895 81.39 258.775 81.995 259.501 82.787C260.227 83.579 260.788 84.536 261.184 85.658C261.602 86.758 261.811 87.99 261.811 89.354ZM257.719 89.354C257.719 87.638 257.345 86.285 256.597 85.295C255.871 84.283 254.848 83.777 253.528 83.777C252.208 83.777 251.174 84.283 250.426 85.295C249.7 86.285 249.337 87.638 249.337 89.354C249.337 91.092 249.7 92.467 250.426 93.479C251.174 94.491 252.208 94.997 253.528 94.997C254.848 94.997 255.871 94.491 256.597 93.479C257.345 92.467 257.719 91.092 257.719 89.354ZM271.931 98.33C270.743 98.308 269.753 98.176 268.961 97.934C268.191 97.692 267.575 97.351 267.113 96.911C266.651 96.449 266.321 95.888 266.123 95.228C265.947 94.546 265.859 93.776 265.859 92.918V73.052L269.852 72.392V92.159C269.852 92.643 269.885 93.05 269.951 93.38C270.039 93.71 270.182 93.996 270.38 94.238C270.578 94.458 270.842 94.634 271.172 94.766C271.524 94.876 271.964 94.964 272.492 95.03L271.931 98.33ZM281.794 95.195C283.026 95.195 283.961 95.129 284.599 94.997V90.575C284.379 90.509 284.06 90.443 283.642 90.377C283.224 90.311 282.762 90.278 282.256 90.278C281.816 90.278 281.365 90.311 280.903 90.377C280.463 90.443 280.056 90.564 279.682 90.74C279.33 90.916 279.044 91.169 278.824 91.499C278.604 91.807 278.494 92.203 278.494 92.687C278.494 93.633 278.791 94.293 279.385 94.667C279.979 95.019 280.782 95.195 281.794 95.195ZM281.464 80.312C282.784 80.312 283.895 80.477 284.797 80.807C285.699 81.137 286.414 81.599 286.942 82.193C287.492 82.787 287.877 83.513 288.097 84.371C288.339 85.207 288.46 86.131 288.46 87.143V97.604C287.844 97.736 286.909 97.89 285.655 98.066C284.423 98.264 283.026 98.363 281.464 98.363C280.43 98.363 279.484 98.264 278.626 98.066C277.768 97.868 277.031 97.549 276.415 97.109C275.821 96.669 275.348 96.097 274.996 95.393C274.666 94.689 274.501 93.82 274.501 92.786C274.501 91.796 274.688 90.96 275.062 90.278C275.458 89.596 275.986 89.046 276.646 88.628C277.306 88.188 278.065 87.88 278.923 87.704C279.803 87.506 280.716 87.407 281.662 87.407C282.102 87.407 282.564 87.44 283.048 87.506C283.532 87.55 284.049 87.638 284.599 87.77V87.11C284.599 86.648 284.544 86.208 284.434 85.79C284.324 85.372 284.126 85.009 283.84 84.701C283.576 84.371 283.213 84.118 282.751 83.942C282.311 83.766 281.75 83.678 281.068 83.678C280.144 83.678 279.297 83.744 278.527 83.876C277.757 84.008 277.13 84.162 276.646 84.338L276.151 81.104C276.657 80.928 277.394 80.752 278.362 80.576C279.33 80.4 280.364 80.312 281.464 80.312ZM293.152 76.187L297.145 75.527V80.741H303.283V84.074H297.145V91.103C297.145 92.489 297.365 93.479 297.805 94.073C298.245 94.667 298.993 94.964 300.049 94.964C300.775 94.964 301.413 94.887 301.963 94.733C302.535 94.579 302.986 94.436 303.316 94.304L303.976 97.472C303.514 97.67 302.909 97.868 302.161 98.066C301.413 98.286 300.533 98.396 299.521 98.396C298.289 98.396 297.255 98.231 296.419 97.901C295.605 97.571 294.956 97.098 294.472 96.482C293.988 95.844 293.647 95.085 293.449 94.205C293.251 93.303 293.152 92.28 293.152 91.136V76.187ZM311.169 98H307.176V80.741H311.169V98ZM311.598 75.692C311.598 76.44 311.356 77.034 310.872 77.474C310.388 77.914 309.816 78.134 309.156 78.134C308.474 78.134 307.891 77.914 307.407 77.474C306.923 77.034 306.681 76.44 306.681 75.692C306.681 74.922 306.923 74.317 307.407 73.877C307.891 73.437 308.474 73.217 309.156 73.217C309.816 73.217 310.388 73.437 310.872 73.877C311.356 74.317 311.598 74.922 311.598 75.692ZM322.269 98.33C321.081 98.308 320.091 98.176 319.299 97.934C318.529 97.692 317.913 97.351 317.451 96.911C316.989 96.449 316.659 95.888 316.461 95.228C316.285 94.546 316.197 93.776 316.197 92.918V73.052L320.19 72.392V92.159C320.19 92.643 320.223 93.05 320.289 93.38C320.377 93.71 320.52 93.996 320.718 94.238C320.916 94.458 321.18 94.634 321.51 94.766C321.862 94.876 322.302 94.964 322.83 95.03L322.269 98.33ZM330.086 98H326.093V80.741H330.086V98ZM330.515 75.692C330.515 76.44 330.273 77.034 329.789 77.474C329.305 77.914 328.733 78.134 328.073 78.134C327.391 78.134 326.808 77.914 326.324 77.474C325.84 77.034 325.598 76.44 325.598 75.692C325.598 74.922 325.84 74.317 326.324 73.877C326.808 73.437 327.391 73.217 328.073 73.217C328.733 73.217 329.305 73.437 329.789 73.877C330.273 74.317 330.515 74.922 330.515 75.692ZM334.982 76.187L338.975 75.527V80.741H345.113V84.074H338.975V91.103C338.975 92.489 339.195 93.479 339.635 94.073C340.075 94.667 340.823 94.964 341.879 94.964C342.605 94.964 343.243 94.887 343.793 94.733C344.365 94.579 344.816 94.436 345.146 94.304L345.806 97.472C345.344 97.67 344.739 97.868 343.991 98.066C343.243 98.286 342.363 98.396 341.351 98.396C340.119 98.396 339.085 98.231 338.249 97.901C337.435 97.571 336.786 97.098 336.302 96.482C335.818 95.844 335.477 95.085 335.279 94.205C335.081 93.303 334.982 92.28 334.982 91.136V76.187ZM363.064 80.741C361.282 87.297 359.214 93.237 356.86 98.561C356.42 99.551 355.969 100.398 355.507 101.102C355.045 101.806 354.528 102.389 353.956 102.851C353.384 103.313 352.746 103.643 352.042 103.841C351.338 104.061 350.524 104.171 349.6 104.171C348.984 104.171 348.368 104.105 347.752 103.973C347.158 103.841 346.707 103.698 346.399 103.544L347.125 100.343C347.917 100.651 348.698 100.805 349.468 100.805C350.502 100.805 351.305 100.552 351.877 100.046C352.471 99.562 352.988 98.803 353.428 97.769C352.174 95.349 350.964 92.709 349.798 89.849C348.654 86.989 347.631 83.953 346.729 80.741H350.986C351.206 81.665 351.47 82.666 351.778 83.744C352.108 84.822 352.46 85.922 352.834 87.044C353.208 88.144 353.604 89.244 354.022 90.344C354.44 91.444 354.858 92.467 355.276 93.413C355.98 91.455 356.64 89.376 357.256 87.176C357.872 84.954 358.433 82.809 358.939 80.741H363.064ZM261.16 122.338C260.83 122.228 260.368 122.118 259.774 122.008C259.202 121.876 258.531 121.81 257.761 121.81C257.321 121.81 256.848 121.854 256.342 121.942C255.858 122.03 255.517 122.107 255.319 122.173V136H251.326V119.566C252.096 119.28 253.053 119.016 254.197 118.774C255.363 118.51 256.65 118.378 258.058 118.378C258.322 118.378 258.63 118.4 258.982 118.444C259.334 118.466 259.686 118.51 260.038 118.576C260.39 118.62 260.731 118.686 261.061 118.774C261.391 118.84 261.655 118.906 261.853 118.972L261.16 122.338ZM270.708 133.195C271.94 133.195 272.875 133.129 273.513 132.997V128.575C273.293 128.509 272.974 128.443 272.556 128.377C272.138 128.311 271.676 128.278 271.17 128.278C270.73 128.278 270.279 128.311 269.817 128.377C269.377 128.443 268.97 128.564 268.596 128.74C268.244 128.916 267.958 129.169 267.738 129.499C267.518 129.807 267.408 130.203 267.408 130.687C267.408 131.633 267.705 132.293 268.299 132.667C268.893 133.019 269.696 133.195 270.708 133.195ZM270.378 118.312C271.698 118.312 272.809 118.477 273.711 118.807C274.613 119.137 275.328 119.599 275.856 120.193C276.406 120.787 276.791 121.513 277.011 122.371C277.253 123.207 277.374 124.131 277.374 125.143V135.604C276.758 135.736 275.823 135.89 274.569 136.066C273.337 136.264 271.94 136.363 270.378 136.363C269.344 136.363 268.398 136.264 267.54 136.066C266.682 135.868 265.945 135.549 265.329 135.109C264.735 134.669 264.262 134.097 263.91 133.393C263.58 132.689 263.415 131.82 263.415 130.786C263.415 129.796 263.602 128.96 263.976 128.278C264.372 127.596 264.9 127.046 265.56 126.628C266.22 126.188 266.979 125.88 267.837 125.704C268.717 125.506 269.63 125.407 270.576 125.407C271.016 125.407 271.478 125.44 271.962 125.506C272.446 125.55 272.963 125.638 273.513 125.77V125.11C273.513 124.648 273.458 124.208 273.348 123.79C273.238 123.372 273.04 123.009 272.754 122.701C272.49 122.371 272.127 122.118 271.665 121.942C271.225 121.766 270.664 121.678 269.982 121.678C269.058 121.678 268.211 121.744 267.441 121.876C266.671 122.008 266.044 122.162 265.56 122.338L265.065 119.104C265.571 118.928 266.308 118.752 267.276 118.576C268.244 118.4 269.278 118.312 270.378 118.312ZM282.264 119.302C283.034 119.082 284.035 118.873 285.267 118.675C286.499 118.477 287.863 118.378 289.359 118.378C290.767 118.378 291.944 118.576 292.89 118.972C293.836 119.346 294.584 119.885 295.134 120.589C295.706 121.271 296.102 122.107 296.322 123.097C296.564 124.065 296.685 125.132 296.685 126.298V136H292.692V126.925C292.692 126.001 292.626 125.22 292.494 124.582C292.384 123.922 292.186 123.394 291.9 122.998C291.636 122.58 291.262 122.283 290.778 122.107C290.316 121.909 289.744 121.81 289.062 121.81C288.556 121.81 288.028 121.843 287.478 121.909C286.928 121.975 286.521 122.03 286.257 122.074V136H282.264V119.302ZM304.702 126.925C304.702 128.619 305.065 129.862 305.791 130.654C306.539 131.424 307.496 131.809 308.662 131.809C309.3 131.809 309.894 131.721 310.444 131.545C311.016 131.369 311.478 131.16 311.83 130.918V121.975C311.544 121.909 311.192 121.854 310.774 121.81C310.356 121.744 309.828 121.711 309.19 121.711C307.738 121.711 306.627 122.195 305.857 123.163C305.087 124.109 304.702 125.363 304.702 126.925ZM315.823 134.251C315.823 137.001 315.119 139.014 313.711 140.29C312.325 141.566 310.191 142.204 307.309 142.204C306.253 142.204 305.219 142.116 304.207 141.94C303.217 141.764 302.315 141.533 301.501 141.247L302.227 137.848C302.909 138.134 303.679 138.365 304.537 138.541C305.417 138.717 306.363 138.805 307.375 138.805C308.981 138.805 310.125 138.475 310.807 137.815C311.489 137.155 311.83 136.176 311.83 134.878V134.218C311.434 134.416 310.906 134.614 310.246 134.812C309.608 135.01 308.871 135.109 308.035 135.109C306.935 135.109 305.923 134.933 304.999 134.581C304.097 134.229 303.316 133.712 302.656 133.03C302.018 132.348 301.512 131.501 301.138 130.489C300.786 129.455 300.61 128.267 300.61 126.925C300.61 125.671 300.797 124.516 301.171 123.46C301.567 122.404 302.128 121.502 302.854 120.754C303.602 120.006 304.504 119.423 305.56 119.005C306.616 118.587 307.815 118.378 309.157 118.378C310.455 118.378 311.687 118.477 312.853 118.675C314.019 118.873 315.009 119.082 315.823 119.302V134.251ZM319.946 127.453C319.946 125.935 320.166 124.604 320.606 123.46C321.068 122.316 321.673 121.37 322.421 120.622C323.169 119.852 324.027 119.28 324.995 118.906C325.963 118.51 326.953 118.312 327.965 118.312C330.341 118.312 332.189 119.049 333.509 120.523C334.851 121.997 335.522 124.197 335.522 127.123C335.522 127.343 335.511 127.596 335.489 127.882C335.489 128.146 335.478 128.388 335.456 128.608H324.071C324.181 129.994 324.665 131.072 325.523 131.842C326.403 132.59 327.668 132.964 329.318 132.964C330.286 132.964 331.166 132.876 331.958 132.7C332.772 132.524 333.41 132.337 333.872 132.139L334.4 135.406C334.18 135.516 333.872 135.637 333.476 135.769C333.102 135.879 332.662 135.978 332.156 136.066C331.672 136.176 331.144 136.264 330.572 136.33C330 136.396 329.417 136.429 328.823 136.429C327.305 136.429 325.985 136.209 324.863 135.769C323.741 135.307 322.817 134.68 322.091 133.888C321.365 133.074 320.826 132.128 320.474 131.05C320.122 129.95 319.946 128.751 319.946 127.453ZM331.529 125.671C331.529 125.121 331.452 124.604 331.298 124.12C331.144 123.614 330.913 123.185 330.605 122.833C330.319 122.459 329.956 122.173 329.516 121.975C329.098 121.755 328.592 121.645 327.998 121.645C327.382 121.645 326.843 121.766 326.381 122.008C325.919 122.228 325.523 122.525 325.193 122.899C324.885 123.273 324.643 123.702 324.467 124.186C324.291 124.67 324.17 125.165 324.104 125.671H331.529Z" fill="#F45D22"/>
<path d="M250.8 47.75C249.9 47.75 248.967 47.6833 248 47.55C247.067 47.45 246.167 47.3 245.3 47.1C244.467 46.9333 243.7 46.75 243 46.55C242.3 46.3167 241.767 46.1 241.4 45.9L242.6 40.75C243.3 41.0833 244.317 41.4667 245.65 41.9C246.983 42.3 248.633 42.5 250.6 42.5C253.233 42.5 255.133 42 256.3 41C257.467 39.9667 258.05 38.6 258.05 36.9C258.05 35.8 257.817 34.8833 257.35 34.15C256.917 33.4167 256.3 32.8333 255.5 32.4C254.733 31.9333 253.833 31.6167 252.8 31.45C251.8 31.25 250.733 31.15 249.6 31.15H247.55V26.25H250.05C250.817 26.25 251.583 26.1833 252.35 26.05C253.15 25.8833 253.867 25.6167 254.5 25.25C255.133 24.85 255.65 24.3333 256.05 23.7C256.45 23.0667 256.65 22.25 256.65 21.25C256.65 20.45 256.5 19.7667 256.2 19.2C255.9 18.6333 255.5 18.1667 255 17.8C254.533 17.4333 253.983 17.1667 253.35 17C252.717 16.8333 252.05 16.75 251.35 16.75C249.85 16.75 248.517 16.9833 247.35 17.45C246.183 17.8833 245.15 18.3833 244.25 18.95L242.05 14.45C242.517 14.15 243.083 13.8333 243.75 13.5C244.417 13.1667 245.15 12.85 245.95 12.55C246.783 12.25 247.667 12.0167 248.6 11.85C249.533 11.65 250.517 11.55 251.55 11.55C253.483 11.55 255.15 11.7833 256.55 12.25C257.95 12.7167 259.1 13.3833 260 14.25C260.933 15.0833 261.617 16.0833 262.05 17.25C262.517 18.3833 262.75 19.6333 262.75 21C262.75 22.6 262.3 24.0333 261.4 25.3C260.533 26.5667 259.4 27.5333 258 28.2C259.8 28.8333 261.283 29.8833 262.45 31.35C263.65 32.8167 264.25 34.7 264.25 37C264.25 38.5333 263.983 39.9667 263.45 41.3C262.917 42.6 262.1 43.7333 261 44.7C259.9 45.6333 258.5 46.3833 256.8 46.95C255.133 47.4833 253.133 47.75 250.8 47.75ZM268.568 29.95H282.018V35.5H268.568V29.95ZM302.339 37.1C302.339 36 302.123 35.0167 301.689 34.15C301.256 33.2833 300.489 32.55 299.389 31.95C298.323 31.35 296.873 30.9 295.039 30.6C293.239 30.3 290.956 30.15 288.189 30.15C288.556 26.95 288.839 23.9167 289.039 21.05C289.239 18.15 289.406 15.25 289.539 12.35H307.239V17.45H294.689C294.656 18.0167 294.606 18.6667 294.539 19.4C294.506 20.1 294.456 20.8167 294.389 21.55C294.356 22.2833 294.306 22.9833 294.239 23.65C294.173 24.3167 294.106 24.8833 294.039 25.35C298.973 25.6167 302.606 26.75 304.939 28.75C307.306 30.7167 308.489 33.4167 308.489 36.85C308.489 38.4167 308.223 39.8667 307.689 41.2C307.156 42.5333 306.339 43.6833 305.239 44.65C304.139 45.6167 302.756 46.3833 301.089 46.95C299.423 47.4833 297.473 47.75 295.239 47.75C294.339 47.75 293.423 47.6833 292.489 47.55C291.556 47.4167 290.656 47.25 289.789 47.05C288.956 46.8833 288.206 46.7 287.539 46.5C286.873 46.3 286.373 46.1167 286.039 45.95L287.189 40.85C287.889 41.1833 288.889 41.55 290.189 41.95C291.523 42.3167 293.139 42.5 295.039 42.5C296.339 42.5 297.456 42.3667 298.389 42.1C299.323 41.8 300.073 41.4 300.639 40.9C301.239 40.4 301.673 39.8333 301.939 39.2C302.206 38.5333 302.339 37.8333 302.339 37.1ZM330.757 21.05C330.757 24.0833 329.974 26.4167 328.407 28.05C326.874 29.6833 324.857 30.5 322.357 30.5C321.124 30.5 319.991 30.3 318.957 29.9C317.924 29.4667 317.041 28.85 316.307 28.05C315.574 27.25 314.991 26.2667 314.557 25.1C314.157 23.9 313.957 22.55 313.957 21.05C313.957 17.9833 314.724 15.65 316.257 14.05C317.824 12.4167 319.857 11.6 322.357 11.6C324.857 11.6 326.874 12.4167 328.407 14.05C329.974 15.65 330.757 17.9833 330.757 21.05ZM326.007 21.05C326.007 19.2833 325.674 17.9667 325.007 17.1C324.374 16.2 323.491 15.75 322.357 15.75C321.224 15.75 320.341 16.2 319.707 17.1C319.074 17.9667 318.757 19.2833 318.757 21.05C318.757 22.8167 319.074 24.15 319.707 25.05C320.341 25.9167 321.224 26.35 322.357 26.35C323.491 26.35 324.374 25.9167 325.007 25.05C325.674 24.15 326.007 22.8167 326.007 21.05ZM340.907 12.35H346.657L327.107 47H321.357L340.907 12.35ZM354.107 38.35C354.107 41.3833 353.324 43.7167 351.757 45.35C350.224 46.9833 348.207 47.8 345.707 47.8C344.474 47.8 343.341 47.5833 342.307 47.15C341.274 46.75 340.391 46.15 339.657 45.35C338.924 44.55 338.341 43.5667 337.907 42.4C337.507 41.2 337.307 39.85 337.307 38.35C337.307 35.2833 338.074 32.95 339.607 31.35C341.174 29.7167 343.207 28.9 345.707 28.9C348.207 28.9 350.224 29.7167 351.757 31.35C353.324 32.95 354.107 35.2833 354.107 38.35ZM349.357 38.35C349.357 36.5833 349.024 35.2667 348.357 34.4C347.724 33.5 346.841 33.05 345.707 33.05C344.574 33.05 343.691 33.5 343.057 34.4C342.424 35.2667 342.107 36.5833 342.107 38.35C342.107 40.1167 342.424 41.45 343.057 42.35C343.691 43.2167 344.574 43.65 345.707 43.65C346.841 43.65 347.724 43.2167 348.357 42.35C349.024 41.45 349.357 40.1167 349.357 38.35Z" fill="white"/>
</svg>
