<svg width="633" height="200" viewBox="0 0 633 200" fill="none" xmlns="http://www.w3.org/2000/svg">
<rect x="227.5" y="1.5" width="197" height="197" rx="18.5" stroke="#5C5C5C" stroke-width="3"/>
<rect x="252.5" y="16.5" width="147" height="77" rx="18.5" stroke="#F45D22" stroke-width="3"/>
<rect x="252.5" y="106.5" width="97" height="77" rx="18.5" stroke="#F45D22" stroke-width="3"/>
<path d="M267.11 28.5C268.61 28.5 269.755 28.775 270.545 29.325C271.345 29.875 271.745 30.715 271.745 31.845C271.745 33.255 271.05 34.21 269.66 34.71C269.85 34.94 270.065 35.22 270.305 35.55C270.545 35.88 270.79 36.24 271.04 36.63C271.29 37.01 271.53 37.405 271.76 37.815C271.99 38.215 272.195 38.61 272.375 39H270.26C270.07 38.64 269.865 38.28 269.645 37.92C269.425 37.55 269.2 37.195 268.97 36.855C268.75 36.505 268.53 36.18 268.31 35.88C268.09 35.57 267.885 35.295 267.695 35.055C267.555 35.065 267.435 35.07 267.335 35.07C267.235 35.07 267.14 35.07 267.05 35.07H266.135V39H264.245V28.755C264.705 28.655 265.195 28.59 265.715 28.56C266.235 28.52 266.7 28.5 267.11 28.5ZM267.245 30.135C266.845 30.135 266.475 30.15 266.135 30.18V33.54H266.96C267.42 33.54 267.825 33.515 268.175 33.465C268.525 33.415 268.815 33.325 269.045 33.195C269.285 33.065 269.465 32.89 269.585 32.67C269.705 32.45 269.765 32.17 269.765 31.83C269.765 31.51 269.705 31.24 269.585 31.02C269.465 30.8 269.29 30.625 269.06 30.495C268.84 30.365 268.575 30.275 268.265 30.225C267.955 30.165 267.615 30.135 267.245 30.135ZM273.315 35.115C273.315 34.425 273.415 33.82 273.615 33.3C273.825 32.78 274.1 32.35 274.44 32.01C274.78 31.66 275.17 31.4 275.61 31.23C276.05 31.05 276.5 30.96 276.96 30.96C278.04 30.96 278.88 31.295 279.48 31.965C280.09 32.635 280.395 33.635 280.395 34.965C280.395 35.065 280.39 35.18 280.38 35.31C280.38 35.43 280.375 35.54 280.365 35.64H275.19C275.24 36.27 275.46 36.76 275.85 37.11C276.25 37.45 276.825 37.62 277.575 37.62C278.015 37.62 278.415 37.58 278.775 37.5C279.145 37.42 279.435 37.335 279.645 37.245L279.885 38.73C279.785 38.78 279.645 38.835 279.465 38.895C279.295 38.945 279.095 38.99 278.865 39.03C278.645 39.08 278.405 39.12 278.145 39.15C277.885 39.18 277.62 39.195 277.35 39.195C276.66 39.195 276.06 39.095 275.55 38.895C275.04 38.685 274.62 38.4 274.29 38.04C273.96 37.67 273.715 37.24 273.555 36.75C273.395 36.25 273.315 35.705 273.315 35.115ZM278.58 34.305C278.58 34.055 278.545 33.82 278.475 33.6C278.405 33.37 278.3 33.175 278.16 33.015C278.03 32.845 277.865 32.715 277.665 32.625C277.475 32.525 277.245 32.475 276.975 32.475C276.695 32.475 276.45 32.53 276.24 32.64C276.03 32.74 275.85 32.875 275.7 33.045C275.56 33.215 275.45 33.41 275.37 33.63C275.29 33.85 275.235 34.075 275.205 34.305H278.58ZM284.284 37.695C284.764 37.695 285.114 37.64 285.334 37.53C285.554 37.41 285.664 37.21 285.664 36.93C285.664 36.67 285.544 36.455 285.304 36.285C285.074 36.115 284.689 35.93 284.149 35.73C283.819 35.61 283.514 35.485 283.234 35.355C282.964 35.215 282.729 35.055 282.529 34.875C282.329 34.695 282.169 34.48 282.049 34.23C281.939 33.97 281.884 33.655 281.884 33.285C281.884 32.565 282.149 32 282.679 31.59C283.209 31.17 283.929 30.96 284.839 30.96C285.299 30.96 285.739 31.005 286.159 31.095C286.579 31.175 286.894 31.255 287.104 31.335L286.774 32.805C286.574 32.715 286.319 32.635 286.009 32.565C285.699 32.485 285.339 32.445 284.929 32.445C284.559 32.445 284.259 32.51 284.029 32.64C283.799 32.76 283.684 32.95 283.684 33.21C283.684 33.34 283.704 33.455 283.744 33.555C283.794 33.655 283.874 33.75 283.984 33.84C284.094 33.92 284.239 34.005 284.419 34.095C284.599 34.175 284.819 34.26 285.079 34.35C285.509 34.51 285.874 34.67 286.174 34.83C286.474 34.98 286.719 35.155 286.909 35.355C287.109 35.545 287.254 35.765 287.344 36.015C287.434 36.265 287.479 36.565 287.479 36.915C287.479 37.665 287.199 38.235 286.639 38.625C286.089 39.005 285.299 39.195 284.269 39.195C283.579 39.195 283.024 39.135 282.604 39.015C282.184 38.905 281.889 38.815 281.719 38.745L282.034 37.23C282.304 37.34 282.624 37.445 282.994 37.545C283.374 37.645 283.804 37.695 284.284 37.695ZM288.74 35.115C288.74 34.425 288.84 33.82 289.04 33.3C289.25 32.78 289.525 32.35 289.865 32.01C290.205 31.66 290.595 31.4 291.035 31.23C291.475 31.05 291.925 30.96 292.385 30.96C293.465 30.96 294.305 31.295 294.905 31.965C295.515 32.635 295.82 33.635 295.82 34.965C295.82 35.065 295.815 35.18 295.805 35.31C295.805 35.43 295.8 35.54 295.79 35.64H290.615C290.665 36.27 290.885 36.76 291.275 37.11C291.675 37.45 292.25 37.62 293 37.62C293.44 37.62 293.84 37.58 294.2 37.5C294.57 37.42 294.86 37.335 295.07 37.245L295.31 38.73C295.21 38.78 295.07 38.835 294.89 38.895C294.72 38.945 294.52 38.99 294.29 39.03C294.07 39.08 293.83 39.12 293.57 39.15C293.31 39.18 293.045 39.195 292.775 39.195C292.085 39.195 291.485 39.095 290.975 38.895C290.465 38.685 290.045 38.4 289.715 38.04C289.385 37.67 289.14 37.24 288.98 36.75C288.82 36.25 288.74 35.705 288.74 35.115ZM294.005 34.305C294.005 34.055 293.97 33.82 293.9 33.6C293.83 33.37 293.725 33.175 293.585 33.015C293.455 32.845 293.29 32.715 293.09 32.625C292.9 32.525 292.67 32.475 292.4 32.475C292.12 32.475 291.875 32.53 291.665 32.64C291.455 32.74 291.275 32.875 291.125 33.045C290.985 33.215 290.875 33.41 290.795 33.63C290.715 33.85 290.66 34.075 290.63 34.305H294.005ZM302.214 32.79C302.064 32.74 301.854 32.69 301.584 32.64C301.324 32.58 301.019 32.55 300.669 32.55C300.469 32.55 300.254 32.57 300.024 32.61C299.804 32.65 299.649 32.685 299.559 32.715V39H297.744V31.53C298.094 31.4 298.529 31.28 299.049 31.17C299.579 31.05 300.164 30.99 300.804 30.99C300.924 30.99 301.064 31 301.224 31.02C301.384 31.03 301.544 31.05 301.704 31.08C301.864 31.1 302.019 31.13 302.169 31.17C302.319 31.2 302.439 31.23 302.529 31.26L302.214 32.79ZM306.067 39C305.567 37.97 305.052 36.79 304.522 35.46C304.002 34.12 303.527 32.685 303.097 31.155H305.032C305.142 31.595 305.267 32.07 305.407 32.58C305.557 33.08 305.712 33.585 305.872 34.095C306.042 34.595 306.212 35.085 306.382 35.565C306.562 36.035 306.727 36.46 306.877 36.84C307.027 36.46 307.187 36.035 307.357 35.565C307.527 35.085 307.692 34.595 307.852 34.095C308.022 33.585 308.182 33.08 308.332 32.58C308.482 32.07 308.612 31.595 308.722 31.155H310.597C310.167 32.685 309.687 34.12 309.157 35.46C308.637 36.79 308.127 37.97 307.627 39H306.067ZM311.342 35.115C311.342 34.425 311.442 33.82 311.642 33.3C311.852 32.78 312.127 32.35 312.467 32.01C312.807 31.66 313.197 31.4 313.637 31.23C314.077 31.05 314.527 30.96 314.987 30.96C316.067 30.96 316.907 31.295 317.507 31.965C318.117 32.635 318.422 33.635 318.422 34.965C318.422 35.065 318.417 35.18 318.407 35.31C318.407 35.43 318.402 35.54 318.392 35.64H313.217C313.267 36.27 313.487 36.76 313.877 37.11C314.277 37.45 314.852 37.62 315.602 37.62C316.042 37.62 316.442 37.58 316.802 37.5C317.172 37.42 317.462 37.335 317.672 37.245L317.912 38.73C317.812 38.78 317.672 38.835 317.492 38.895C317.322 38.945 317.122 38.99 316.892 39.03C316.672 39.08 316.432 39.12 316.172 39.15C315.912 39.18 315.647 39.195 315.377 39.195C314.687 39.195 314.087 39.095 313.577 38.895C313.067 38.685 312.647 38.4 312.317 38.04C311.987 37.67 311.742 37.24 311.582 36.75C311.422 36.25 311.342 35.705 311.342 35.115ZM316.607 34.305C316.607 34.055 316.572 33.82 316.502 33.6C316.432 33.37 316.327 33.175 316.187 33.015C316.057 32.845 315.892 32.715 315.692 32.625C315.502 32.525 315.272 32.475 315.002 32.475C314.722 32.475 314.477 32.53 314.267 32.64C314.057 32.74 313.877 32.875 313.727 33.045C313.587 33.215 313.477 33.41 313.397 33.63C313.317 33.85 313.262 34.075 313.232 34.305H316.607ZM322.311 37.695C322.791 37.695 323.141 37.64 323.361 37.53C323.581 37.41 323.691 37.21 323.691 36.93C323.691 36.67 323.571 36.455 323.331 36.285C323.101 36.115 322.716 35.93 322.176 35.73C321.846 35.61 321.541 35.485 321.261 35.355C320.991 35.215 320.756 35.055 320.556 34.875C320.356 34.695 320.196 34.48 320.076 34.23C319.966 33.97 319.911 33.655 319.911 33.285C319.911 32.565 320.176 32 320.706 31.59C321.236 31.17 321.956 30.96 322.866 30.96C323.326 30.96 323.766 31.005 324.186 31.095C324.606 31.175 324.921 31.255 325.131 31.335L324.801 32.805C324.601 32.715 324.346 32.635 324.036 32.565C323.726 32.485 323.366 32.445 322.956 32.445C322.586 32.445 322.286 32.51 322.056 32.64C321.826 32.76 321.711 32.95 321.711 33.21C321.711 33.34 321.731 33.455 321.771 33.555C321.821 33.655 321.901 33.75 322.011 33.84C322.121 33.92 322.266 34.005 322.446 34.095C322.626 34.175 322.846 34.26 323.106 34.35C323.536 34.51 323.901 34.67 324.201 34.83C324.501 34.98 324.746 35.155 324.936 35.355C325.136 35.545 325.281 35.765 325.371 36.015C325.461 36.265 325.506 36.565 325.506 36.915C325.506 37.665 325.226 38.235 324.666 38.625C324.116 39.005 323.326 39.195 322.296 39.195C321.606 39.195 321.051 39.135 320.631 39.015C320.211 38.905 319.916 38.815 319.746 38.745L320.061 37.23C320.331 37.34 320.651 37.445 321.021 37.545C321.401 37.645 321.831 37.695 322.311 37.695Z" fill="white"/>
<path d="M274.765 140.59C275.445 140.59 275.94 140.475 276.25 140.245C276.56 140.015 276.715 139.69 276.715 139.27C276.715 139.02 276.66 138.805 276.55 138.625C276.45 138.445 276.3 138.285 276.1 138.145C275.91 137.995 275.675 137.86 275.395 137.74C275.115 137.61 274.795 137.485 274.435 137.365C274.075 137.235 273.725 137.095 273.385 136.945C273.055 136.785 272.76 136.59 272.5 136.36C272.25 136.13 272.045 135.855 271.885 135.535C271.735 135.215 271.66 134.83 271.66 134.38C271.66 133.44 271.985 132.705 272.635 132.175C273.285 131.635 274.17 131.365 275.29 131.365C275.94 131.365 276.515 131.44 277.015 131.59C277.525 131.73 277.925 131.885 278.215 132.055L277.63 133.585C277.29 133.395 276.915 133.25 276.505 133.15C276.105 133.05 275.69 133 275.26 133C274.75 133 274.35 133.105 274.06 133.315C273.78 133.525 273.64 133.82 273.64 134.2C273.64 134.43 273.685 134.63 273.775 134.8C273.875 134.96 274.01 135.105 274.18 135.235C274.36 135.365 274.565 135.485 274.795 135.595C275.035 135.705 275.295 135.81 275.575 135.91C276.065 136.09 276.5 136.275 276.88 136.465C277.27 136.645 277.595 136.865 277.855 137.125C278.125 137.375 278.33 137.675 278.47 138.025C278.61 138.365 278.68 138.78 278.68 139.27C278.68 140.21 278.345 140.94 277.675 141.46C277.015 141.97 276.045 142.225 274.765 142.225C274.335 142.225 273.94 142.195 273.58 142.135C273.23 142.085 272.915 142.02 272.635 141.94C272.365 141.86 272.13 141.78 271.93 141.7C271.73 141.61 271.57 141.53 271.45 141.46L272.005 139.915C272.275 140.065 272.64 140.215 273.1 140.365C273.56 140.515 274.115 140.59 274.765 140.59ZM280.166 132.085L281.981 131.785V134.155H284.771V135.67H281.981V138.865C281.981 139.495 282.081 139.945 282.281 140.215C282.481 140.485 282.821 140.62 283.301 140.62C283.631 140.62 283.921 140.585 284.171 140.515C284.431 140.445 284.636 140.38 284.786 140.32L285.086 141.76C284.876 141.85 284.601 141.94 284.261 142.03C283.921 142.13 283.521 142.18 283.061 142.18C282.501 142.18 282.031 142.105 281.651 141.955C281.281 141.805 280.986 141.59 280.766 141.31C280.546 141.02 280.391 140.675 280.301 140.275C280.211 139.865 280.166 139.4 280.166 138.88V132.085ZM290.995 135.79C290.845 135.74 290.635 135.69 290.365 135.64C290.105 135.58 289.8 135.55 289.45 135.55C289.25 135.55 289.035 135.57 288.805 135.61C288.585 135.65 288.43 135.685 288.34 135.715V142H286.525V134.53C286.875 134.4 287.31 134.28 287.83 134.17C288.36 134.05 288.945 133.99 289.585 133.99C289.705 133.99 289.845 134 290.005 134.02C290.165 134.03 290.325 134.05 290.485 134.08C290.645 134.1 290.8 134.13 290.95 134.17C291.1 134.2 291.22 134.23 291.31 134.26L290.995 135.79ZM295.335 140.725C295.895 140.725 296.32 140.695 296.61 140.635V138.625C296.51 138.595 296.365 138.565 296.175 138.535C295.985 138.505 295.775 138.49 295.545 138.49C295.345 138.49 295.14 138.505 294.93 138.535C294.73 138.565 294.545 138.62 294.375 138.7C294.215 138.78 294.085 138.895 293.985 139.045C293.885 139.185 293.835 139.365 293.835 139.585C293.835 140.015 293.97 140.315 294.24 140.485C294.51 140.645 294.875 140.725 295.335 140.725ZM295.185 133.96C295.785 133.96 296.29 134.035 296.7 134.185C297.11 134.335 297.435 134.545 297.675 134.815C297.925 135.085 298.1 135.415 298.2 135.805C298.31 136.185 298.365 136.605 298.365 137.065V141.82C298.085 141.88 297.66 141.95 297.09 142.03C296.53 142.12 295.895 142.165 295.185 142.165C294.715 142.165 294.285 142.12 293.895 142.03C293.505 141.94 293.17 141.795 292.89 141.595C292.62 141.395 292.405 141.135 292.245 140.815C292.095 140.495 292.02 140.1 292.02 139.63C292.02 139.18 292.105 138.8 292.275 138.49C292.455 138.18 292.695 137.93 292.995 137.74C293.295 137.54 293.64 137.4 294.03 137.32C294.43 137.23 294.845 137.185 295.275 137.185C295.475 137.185 295.685 137.2 295.905 137.23C296.125 137.25 296.36 137.29 296.61 137.35V137.05C296.61 136.84 296.585 136.64 296.535 136.45C296.485 136.26 296.395 136.095 296.265 135.955C296.145 135.805 295.98 135.69 295.77 135.61C295.57 135.53 295.315 135.49 295.005 135.49C294.585 135.49 294.2 135.52 293.85 135.58C293.5 135.64 293.215 135.71 292.995 135.79L292.77 134.32C293 134.24 293.335 134.16 293.775 134.08C294.215 134 294.685 133.96 295.185 133.96ZM300.498 132.085L302.313 131.785V134.155H305.103V135.67H302.313V138.865C302.313 139.495 302.413 139.945 302.613 140.215C302.813 140.485 303.153 140.62 303.633 140.62C303.963 140.62 304.253 140.585 304.503 140.515C304.763 140.445 304.968 140.38 305.118 140.32L305.418 141.76C305.208 141.85 304.933 141.94 304.593 142.03C304.253 142.13 303.853 142.18 303.393 142.18C302.833 142.18 302.363 142.105 301.983 141.955C301.613 141.805 301.318 141.59 301.098 141.31C300.878 141.02 300.723 140.675 300.633 140.275C300.543 139.865 300.498 139.4 300.498 138.88V132.085ZM306.29 138.115C306.29 137.425 306.39 136.82 306.59 136.3C306.8 135.78 307.075 135.35 307.415 135.01C307.755 134.66 308.145 134.4 308.585 134.23C309.025 134.05 309.475 133.96 309.935 133.96C311.015 133.96 311.855 134.295 312.455 134.965C313.065 135.635 313.37 136.635 313.37 137.965C313.37 138.065 313.365 138.18 313.355 138.31C313.355 138.43 313.35 138.54 313.34 138.64H308.165C308.215 139.27 308.435 139.76 308.825 140.11C309.225 140.45 309.8 140.62 310.55 140.62C310.99 140.62 311.39 140.58 311.75 140.5C312.12 140.42 312.41 140.335 312.62 140.245L312.86 141.73C312.76 141.78 312.62 141.835 312.44 141.895C312.27 141.945 312.07 141.99 311.84 142.03C311.62 142.08 311.38 142.12 311.12 142.15C310.86 142.18 310.595 142.195 310.325 142.195C309.635 142.195 309.035 142.095 308.525 141.895C308.015 141.685 307.595 141.4 307.265 141.04C306.935 140.67 306.69 140.24 306.53 139.75C306.37 139.25 306.29 138.705 306.29 138.115ZM311.555 137.305C311.555 137.055 311.52 136.82 311.45 136.6C311.38 136.37 311.275 136.175 311.135 136.015C311.005 135.845 310.84 135.715 310.64 135.625C310.45 135.525 310.22 135.475 309.95 135.475C309.67 135.475 309.425 135.53 309.215 135.64C309.005 135.74 308.825 135.875 308.675 136.045C308.535 136.215 308.425 136.41 308.345 136.63C308.265 136.85 308.21 137.075 308.18 137.305H311.555ZM316.72 137.875C316.72 138.645 316.885 139.21 317.215 139.57C317.555 139.92 317.99 140.095 318.52 140.095C318.81 140.095 319.08 140.055 319.33 139.975C319.59 139.895 319.8 139.8 319.96 139.69V135.625C319.83 135.595 319.67 135.57 319.48 135.55C319.29 135.52 319.05 135.505 318.76 135.505C318.1 135.505 317.595 135.725 317.245 136.165C316.895 136.595 316.72 137.165 316.72 137.875ZM321.775 141.205C321.775 142.455 321.455 143.37 320.815 143.95C320.185 144.53 319.215 144.82 317.905 144.82C317.425 144.82 316.955 144.78 316.495 144.7C316.045 144.62 315.635 144.515 315.265 144.385L315.595 142.84C315.905 142.97 316.255 143.075 316.645 143.155C317.045 143.235 317.475 143.275 317.935 143.275C318.665 143.275 319.185 143.125 319.495 142.825C319.805 142.525 319.96 142.08 319.96 141.49V141.19C319.78 141.28 319.54 141.37 319.24 141.46C318.95 141.55 318.615 141.595 318.235 141.595C317.735 141.595 317.275 141.515 316.855 141.355C316.445 141.195 316.09 140.96 315.79 140.65C315.5 140.34 315.27 139.955 315.1 139.495C314.94 139.025 314.86 138.485 314.86 137.875C314.86 137.305 314.945 136.78 315.115 136.3C315.295 135.82 315.55 135.41 315.88 135.07C316.22 134.73 316.63 134.465 317.11 134.275C317.59 134.085 318.135 133.99 318.745 133.99C319.335 133.99 319.895 134.035 320.425 134.125C320.955 134.215 321.405 134.31 321.775 134.41V141.205ZM330.489 134.155C329.679 137.135 328.739 139.835 327.669 142.255C327.469 142.705 327.264 143.09 327.054 143.41C326.844 143.73 326.609 143.995 326.349 144.205C326.089 144.415 325.799 144.565 325.479 144.655C325.159 144.755 324.789 144.805 324.369 144.805C324.089 144.805 323.809 144.775 323.529 144.715C323.259 144.655 323.054 144.59 322.914 144.52L323.244 143.065C323.604 143.205 323.959 143.275 324.309 143.275C324.779 143.275 325.144 143.16 325.404 142.93C325.674 142.71 325.909 142.365 326.109 141.895C325.539 140.795 324.989 139.595 324.459 138.295C323.939 136.995 323.474 135.615 323.064 134.155H324.999C325.099 134.575 325.219 135.03 325.359 135.52C325.509 136.01 325.669 136.51 325.839 137.02C326.009 137.52 326.189 138.02 326.379 138.52C326.569 139.02 326.759 139.485 326.949 139.915C327.269 139.025 327.569 138.08 327.849 137.08C328.129 136.07 328.384 135.095 328.614 134.155H330.489ZM279.25 159C278.91 158.43 278.53 157.82 278.11 157.17C277.69 156.51 277.255 155.85 276.805 155.19C276.355 154.52 275.895 153.875 275.425 153.255C274.965 152.625 274.525 152.06 274.105 151.56V159H272.245V148.605H273.79C274.19 149.025 274.62 149.525 275.08 150.105C275.54 150.675 276 151.27 276.46 151.89C276.93 152.51 277.38 153.135 277.81 153.765C278.25 154.385 278.64 154.965 278.98 155.505V148.605H280.855V159H279.25ZM283.349 159V148.605H289.919V150.21H285.239V152.865H289.394V154.47H285.239V159H283.349ZM299.031 148.605V150.24H295.836V159H293.931V150.24H290.736V148.605H299.031ZM302.123 147.63C302.133 147.75 302.138 147.875 302.138 148.005C302.148 148.135 302.148 148.24 302.138 148.32C302.118 148.92 301.998 149.5 301.778 150.06C301.568 150.61 301.308 151.1 300.998 151.53L299.678 151.185C299.878 150.745 300.033 150.28 300.143 149.79C300.253 149.3 300.308 148.83 300.308 148.38C300.308 148.31 300.303 148.2 300.293 148.05C300.293 147.9 300.283 147.76 300.263 147.63H302.123ZM306.127 157.695C306.607 157.695 306.957 157.64 307.177 157.53C307.397 157.41 307.507 157.21 307.507 156.93C307.507 156.67 307.387 156.455 307.147 156.285C306.917 156.115 306.532 155.93 305.992 155.73C305.662 155.61 305.357 155.485 305.077 155.355C304.807 155.215 304.572 155.055 304.372 154.875C304.172 154.695 304.012 154.48 303.892 154.23C303.782 153.97 303.727 153.655 303.727 153.285C303.727 152.565 303.992 152 304.522 151.59C305.052 151.17 305.772 150.96 306.682 150.96C307.142 150.96 307.582 151.005 308.002 151.095C308.422 151.175 308.737 151.255 308.947 151.335L308.617 152.805C308.417 152.715 308.162 152.635 307.852 152.565C307.542 152.485 307.182 152.445 306.772 152.445C306.402 152.445 306.102 152.51 305.872 152.64C305.642 152.76 305.527 152.95 305.527 153.21C305.527 153.34 305.547 153.455 305.587 153.555C305.637 153.655 305.717 153.75 305.827 153.84C305.937 153.92 306.082 154.005 306.262 154.095C306.442 154.175 306.662 154.26 306.922 154.35C307.352 154.51 307.717 154.67 308.017 154.83C308.317 154.98 308.562 155.155 308.752 155.355C308.952 155.545 309.097 155.765 309.187 156.015C309.277 156.265 309.322 156.565 309.322 156.915C309.322 157.665 309.042 158.235 308.482 158.625C307.932 159.005 307.142 159.195 306.112 159.195C305.422 159.195 304.867 159.135 304.447 159.015C304.027 158.905 303.732 158.815 303.562 158.745L303.877 157.23C304.147 157.34 304.467 157.445 304.837 157.545C305.217 157.645 305.647 157.695 306.127 157.695Z" fill="white"/>
<path d="M566.145 147C566.005 146.59 565.86 146.185 565.71 145.785C565.56 145.385 565.415 144.975 565.275 144.555H560.895C560.755 144.975 560.61 145.39 560.46 145.8C560.32 146.2 560.18 146.6 560.04 147H558.075C558.465 145.89 558.835 144.865 559.185 143.925C559.535 142.985 559.875 142.095 560.205 141.255C560.545 140.415 560.88 139.615 561.21 138.855C561.54 138.095 561.88 137.345 562.23 136.605H564.015C564.365 137.345 564.705 138.095 565.035 138.855C565.365 139.615 565.695 140.415 566.025 141.255C566.365 142.095 566.71 142.985 567.06 143.925C567.42 144.865 567.795 145.89 568.185 147H566.145ZM563.085 138.615C562.855 139.145 562.59 139.79 562.29 140.55C562 141.31 561.695 142.135 561.375 143.025H564.795C564.475 142.135 564.165 141.305 563.865 140.535C563.565 139.765 563.305 139.125 563.085 138.615ZM575.653 146.76C575.303 146.85 574.848 146.94 574.288 147.03C573.728 147.13 573.113 147.18 572.443 147.18C571.813 147.18 571.283 147.09 570.853 146.91C570.433 146.73 570.093 146.48 569.833 146.16C569.583 145.84 569.403 145.46 569.293 145.02C569.183 144.57 569.128 144.08 569.128 143.55V139.155H570.943V143.265C570.943 144.105 571.063 144.705 571.303 145.065C571.553 145.425 571.983 145.605 572.593 145.605C572.813 145.605 573.043 145.595 573.283 145.575C573.533 145.555 573.718 145.53 573.838 145.5V139.155H575.653V146.76ZM577.874 137.085L579.689 136.785V139.155H582.479V140.67H579.689V143.865C579.689 144.495 579.789 144.945 579.989 145.215C580.189 145.485 580.529 145.62 581.009 145.62C581.339 145.62 581.629 145.585 581.879 145.515C582.139 145.445 582.344 145.38 582.494 145.32L582.794 146.76C582.584 146.85 582.309 146.94 581.969 147.03C581.629 147.13 581.229 147.18 580.769 147.18C580.209 147.18 579.739 147.105 579.359 146.955C578.989 146.805 578.694 146.59 578.474 146.31C578.254 146.02 578.099 145.675 578.009 145.275C577.919 144.865 577.874 144.4 577.874 143.88V137.085ZM584.233 147V135.66L586.048 135.36V139.245C586.248 139.175 586.478 139.115 586.738 139.065C587.008 139.015 587.273 138.99 587.533 138.99C588.163 138.99 588.683 139.08 589.093 139.26C589.513 139.43 589.848 139.675 590.098 139.995C590.348 140.305 590.523 140.68 590.623 141.12C590.733 141.56 590.788 142.05 590.788 142.59V147H588.973V142.875C588.973 142.455 588.943 142.1 588.883 141.81C588.833 141.51 588.743 141.27 588.613 141.09C588.493 140.9 588.328 140.765 588.118 140.685C587.908 140.595 587.648 140.55 587.338 140.55C587.098 140.55 586.853 140.575 586.603 140.625C586.353 140.675 586.168 140.72 586.048 140.76V147H584.233ZM600.059 143.07C600.059 143.69 599.969 144.255 599.789 144.765C599.609 145.275 599.354 145.71 599.024 146.07C598.694 146.43 598.294 146.71 597.824 146.91C597.364 147.11 596.854 147.21 596.294 147.21C595.734 147.21 595.224 147.11 594.764 146.91C594.304 146.71 593.909 146.43 593.579 146.07C593.249 145.71 592.989 145.275 592.799 144.765C592.619 144.255 592.529 143.69 592.529 143.07C592.529 142.45 592.619 141.89 592.799 141.39C592.989 140.88 593.249 140.445 593.579 140.085C593.919 139.725 594.319 139.45 594.779 139.26C595.239 139.06 595.744 138.96 596.294 138.96C596.844 138.96 597.349 139.06 597.809 139.26C598.279 139.45 598.679 139.725 599.009 140.085C599.339 140.445 599.594 140.88 599.774 141.39C599.964 141.89 600.059 142.45 600.059 143.07ZM598.199 143.07C598.199 142.29 598.029 141.675 597.689 141.225C597.359 140.765 596.894 140.535 596.294 140.535C595.694 140.535 595.224 140.765 594.884 141.225C594.554 141.675 594.389 142.29 594.389 143.07C594.389 143.86 594.554 144.485 594.884 144.945C595.224 145.405 595.694 145.635 596.294 145.635C596.894 145.635 597.359 145.405 597.689 144.945C598.029 144.485 598.199 143.86 598.199 143.07ZM606.398 140.79C606.248 140.74 606.038 140.69 605.768 140.64C605.508 140.58 605.203 140.55 604.853 140.55C604.653 140.55 604.438 140.57 604.208 140.61C603.988 140.65 603.833 140.685 603.743 140.715V147H601.928V139.53C602.278 139.4 602.713 139.28 603.233 139.17C603.763 139.05 604.348 138.99 604.988 138.99C605.108 138.99 605.248 139 605.408 139.02C605.568 139.03 605.728 139.05 605.888 139.08C606.048 139.1 606.203 139.13 606.353 139.17C606.503 139.2 606.623 139.23 606.713 139.26L606.398 140.79Z" fill="white"/>
<path d="M264.35 55.765C264.93 55.535 265.51 55.24 266.09 54.88C266.68 54.52 267.2 54.095 267.65 53.605H268.925V64H267.11V56.035C266.84 56.245 266.5 56.45 266.09 56.65C265.68 56.85 265.285 57.015 264.905 57.145L264.35 55.765ZM279.4 58.795C279.4 60.545 279.08 61.89 278.44 62.83C277.8 63.76 276.915 64.225 275.785 64.225C274.655 64.225 273.77 63.76 273.13 62.83C272.49 61.89 272.17 60.545 272.17 58.795C272.17 57.925 272.25 57.155 272.41 56.485C272.58 55.805 272.82 55.235 273.13 54.775C273.45 54.315 273.83 53.965 274.27 53.725C274.72 53.485 275.225 53.365 275.785 53.365C276.915 53.365 277.8 53.835 278.44 54.775C279.08 55.705 279.4 57.045 279.4 58.795ZM277.525 58.795C277.525 58.255 277.495 57.75 277.435 57.28C277.375 56.81 277.275 56.405 277.135 56.065C277.005 55.715 276.83 55.44 276.61 55.24C276.39 55.04 276.115 54.94 275.785 54.94C275.455 54.94 275.175 55.04 274.945 55.24C274.725 55.44 274.545 55.715 274.405 56.065C274.275 56.405 274.18 56.81 274.12 57.28C274.07 57.75 274.045 58.255 274.045 58.795C274.045 59.335 274.07 59.84 274.12 60.31C274.18 60.78 274.275 61.19 274.405 61.54C274.545 61.88 274.725 62.15 274.945 62.35C275.175 62.55 275.455 62.65 275.785 62.65C276.115 62.65 276.39 62.55 276.61 62.35C276.83 62.15 277.005 61.88 277.135 61.54C277.275 61.19 277.375 60.78 277.435 60.31C277.495 59.84 277.525 59.335 277.525 58.795ZM287.926 58.795C287.926 60.545 287.606 61.89 286.966 62.83C286.326 63.76 285.441 64.225 284.311 64.225C283.181 64.225 282.296 63.76 281.656 62.83C281.016 61.89 280.696 60.545 280.696 58.795C280.696 57.925 280.776 57.155 280.936 56.485C281.106 55.805 281.346 55.235 281.656 54.775C281.976 54.315 282.356 53.965 282.796 53.725C283.246 53.485 283.751 53.365 284.311 53.365C285.441 53.365 286.326 53.835 286.966 54.775C287.606 55.705 287.926 57.045 287.926 58.795ZM286.051 58.795C286.051 58.255 286.021 57.75 285.961 57.28C285.901 56.81 285.801 56.405 285.661 56.065C285.531 55.715 285.356 55.44 285.136 55.24C284.916 55.04 284.641 54.94 284.311 54.94C283.981 54.94 283.701 55.04 283.471 55.24C283.251 55.44 283.071 55.715 282.931 56.065C282.801 56.405 282.706 56.81 282.646 57.28C282.596 57.75 282.571 58.255 282.571 58.795C282.571 59.335 282.596 59.84 282.646 60.31C282.706 60.78 282.801 61.19 282.931 61.54C283.071 61.88 283.251 62.15 283.471 62.35C283.701 62.55 283.981 62.65 284.311 62.65C284.641 62.65 284.916 62.55 285.136 62.35C285.356 62.15 285.531 61.88 285.661 61.54C285.801 61.19 285.901 60.78 285.961 60.31C286.021 59.84 286.051 59.335 286.051 58.795ZM264.065 71.085L265.88 70.785V73.155H268.67V74.67H265.88V77.865C265.88 78.495 265.98 78.945 266.18 79.215C266.38 79.485 266.72 79.62 267.2 79.62C267.53 79.62 267.82 79.585 268.07 79.515C268.33 79.445 268.535 79.38 268.685 79.32L268.985 80.76C268.775 80.85 268.5 80.94 268.16 81.03C267.82 81.13 267.42 81.18 266.96 81.18C266.4 81.18 265.93 81.105 265.55 80.955C265.18 80.805 264.885 80.59 264.665 80.31C264.445 80.02 264.29 79.675 264.2 79.275C264.11 78.865 264.065 78.4 264.065 77.88V71.085ZM277.344 77.07C277.344 77.69 277.254 78.255 277.074 78.765C276.894 79.275 276.639 79.71 276.309 80.07C275.979 80.43 275.579 80.71 275.109 80.91C274.649 81.11 274.139 81.21 273.579 81.21C273.019 81.21 272.509 81.11 272.049 80.91C271.589 80.71 271.194 80.43 270.864 80.07C270.534 79.71 270.274 79.275 270.084 78.765C269.904 78.255 269.814 77.69 269.814 77.07C269.814 76.45 269.904 75.89 270.084 75.39C270.274 74.88 270.534 74.445 270.864 74.085C271.204 73.725 271.604 73.45 272.064 73.26C272.524 73.06 273.029 72.96 273.579 72.96C274.129 72.96 274.634 73.06 275.094 73.26C275.564 73.45 275.964 73.725 276.294 74.085C276.624 74.445 276.879 74.88 277.059 75.39C277.249 75.89 277.344 76.45 277.344 77.07ZM275.484 77.07C275.484 76.29 275.314 75.675 274.974 75.225C274.644 74.765 274.179 74.535 273.579 74.535C272.979 74.535 272.509 74.765 272.169 75.225C271.839 75.675 271.674 76.29 271.674 77.07C271.674 77.86 271.839 78.485 272.169 78.945C272.509 79.405 272.979 79.635 273.579 79.635C274.179 79.635 274.644 79.405 274.974 78.945C275.314 78.485 275.484 77.86 275.484 77.07ZM281.029 76.215C281.259 75.975 281.504 75.72 281.764 75.45C282.024 75.17 282.279 74.895 282.529 74.625C282.779 74.345 283.014 74.08 283.234 73.83C283.464 73.57 283.659 73.345 283.819 73.155H285.964C285.464 73.715 284.934 74.295 284.374 74.895C283.824 75.495 283.269 76.08 282.709 76.65C283.009 76.9 283.324 77.205 283.654 77.565C283.984 77.915 284.304 78.29 284.614 78.69C284.924 79.09 285.214 79.49 285.484 79.89C285.754 80.29 285.979 80.66 286.159 81H284.059C283.879 80.69 283.669 80.365 283.429 80.025C283.199 79.685 282.949 79.355 282.679 79.035C282.409 78.715 282.134 78.415 281.854 78.135C281.574 77.845 281.299 77.6 281.029 77.4V81H279.214V69.66L281.029 69.36V76.215ZM286.689 77.115C286.689 76.425 286.789 75.82 286.989 75.3C287.199 74.78 287.474 74.35 287.814 74.01C288.154 73.66 288.544 73.4 288.984 73.23C289.424 73.05 289.874 72.96 290.334 72.96C291.414 72.96 292.254 73.295 292.854 73.965C293.464 74.635 293.769 75.635 293.769 76.965C293.769 77.065 293.764 77.18 293.754 77.31C293.754 77.43 293.749 77.54 293.739 77.64H288.564C288.614 78.27 288.834 78.76 289.224 79.11C289.624 79.45 290.199 79.62 290.949 79.62C291.389 79.62 291.789 79.58 292.149 79.5C292.519 79.42 292.809 79.335 293.019 79.245L293.259 80.73C293.159 80.78 293.019 80.835 292.839 80.895C292.669 80.945 292.469 80.99 292.239 81.03C292.019 81.08 291.779 81.12 291.519 81.15C291.259 81.18 290.994 81.195 290.724 81.195C290.034 81.195 289.434 81.095 288.924 80.895C288.414 80.685 287.994 80.4 287.664 80.04C287.334 79.67 287.089 79.24 286.929 78.75C286.769 78.25 286.689 77.705 286.689 77.115ZM291.954 76.305C291.954 76.055 291.919 75.82 291.849 75.6C291.779 75.37 291.674 75.175 291.534 75.015C291.404 74.845 291.239 74.715 291.039 74.625C290.849 74.525 290.619 74.475 290.349 74.475C290.069 74.475 289.824 74.53 289.614 74.64C289.404 74.74 289.224 74.875 289.074 75.045C288.934 75.215 288.824 75.41 288.744 75.63C288.664 75.85 288.609 76.075 288.579 76.305H291.954ZM295.693 73.41C296.043 73.31 296.498 73.215 297.058 73.125C297.618 73.035 298.238 72.99 298.918 72.99C299.558 72.99 300.093 73.08 300.523 73.26C300.953 73.43 301.293 73.675 301.543 73.995C301.803 74.305 301.983 74.685 302.083 75.135C302.193 75.575 302.248 76.06 302.248 76.59V81H300.433V76.875C300.433 76.455 300.403 76.1 300.343 75.81C300.293 75.51 300.203 75.27 300.073 75.09C299.953 74.9 299.783 74.765 299.563 74.685C299.353 74.595 299.093 74.55 298.783 74.55C298.553 74.55 298.313 74.565 298.063 74.595C297.813 74.625 297.628 74.65 297.508 74.67V81H295.693V73.41ZM314.958 81C314.818 80.59 314.673 80.185 314.523 79.785C314.373 79.385 314.228 78.975 314.088 78.555H309.708C309.568 78.975 309.423 79.39 309.273 79.8C309.133 80.2 308.993 80.6 308.853 81H306.888C307.278 79.89 307.648 78.865 307.998 77.925C308.348 76.985 308.688 76.095 309.018 75.255C309.358 74.415 309.693 73.615 310.023 72.855C310.353 72.095 310.693 71.345 311.043 70.605H312.828C313.178 71.345 313.518 72.095 313.848 72.855C314.178 73.615 314.508 74.415 314.838 75.255C315.178 76.095 315.523 76.985 315.873 77.925C316.233 78.865 316.608 79.89 316.998 81H314.958ZM311.898 72.615C311.668 73.145 311.403 73.79 311.103 74.55C310.813 75.31 310.508 76.135 310.188 77.025H313.608C313.288 76.135 312.978 75.305 312.678 74.535C312.378 73.765 312.118 73.125 311.898 72.615Z" fill="#5C5C5C"/>
<path d="M334.54 64.225C334.27 64.225 333.99 64.205 333.7 64.165C333.42 64.135 333.15 64.09 332.89 64.03C332.64 63.98 332.41 63.925 332.2 63.865C331.99 63.795 331.83 63.73 331.72 63.67L332.08 62.125C332.29 62.225 332.595 62.34 332.995 62.47C333.395 62.59 333.89 62.65 334.48 62.65C335.27 62.65 335.84 62.5 336.19 62.2C336.54 61.89 336.715 61.48 336.715 60.97C336.715 60.64 336.645 60.365 336.505 60.145C336.375 59.925 336.19 59.75 335.95 59.62C335.72 59.48 335.45 59.385 335.14 59.335C334.84 59.275 334.52 59.245 334.18 59.245H333.565V57.775H334.315C334.545 57.775 334.775 57.755 335.005 57.715C335.245 57.665 335.46 57.585 335.65 57.475C335.84 57.355 335.995 57.2 336.115 57.01C336.235 56.82 336.295 56.575 336.295 56.275C336.295 56.035 336.25 55.83 336.16 55.66C336.07 55.49 335.95 55.35 335.8 55.24C335.66 55.13 335.495 55.05 335.305 55C335.115 54.95 334.915 54.925 334.705 54.925C334.255 54.925 333.855 54.995 333.505 55.135C333.155 55.265 332.845 55.415 332.575 55.585L331.915 54.235C332.055 54.145 332.225 54.05 332.425 53.95C332.625 53.85 332.845 53.755 333.085 53.665C333.335 53.575 333.6 53.505 333.88 53.455C334.16 53.395 334.455 53.365 334.765 53.365C335.345 53.365 335.845 53.435 336.265 53.575C336.685 53.715 337.03 53.915 337.3 54.175C337.58 54.425 337.785 54.725 337.915 55.075C338.055 55.415 338.125 55.79 338.125 56.2C338.125 56.68 337.99 57.11 337.72 57.49C337.46 57.87 337.12 58.16 336.7 58.36C337.24 58.55 337.685 58.865 338.035 59.305C338.395 59.745 338.575 60.31 338.575 61C338.575 61.46 338.495 61.89 338.335 62.29C338.175 62.68 337.93 63.02 337.6 63.31C337.27 63.59 336.85 63.815 336.34 63.985C335.84 64.145 335.24 64.225 334.54 64.225ZM347.4 58.795C347.4 60.545 347.08 61.89 346.44 62.83C345.8 63.76 344.915 64.225 343.785 64.225C342.655 64.225 341.77 63.76 341.13 62.83C340.49 61.89 340.17 60.545 340.17 58.795C340.17 57.925 340.25 57.155 340.41 56.485C340.58 55.805 340.82 55.235 341.13 54.775C341.45 54.315 341.83 53.965 342.27 53.725C342.72 53.485 343.225 53.365 343.785 53.365C344.915 53.365 345.8 53.835 346.44 54.775C347.08 55.705 347.4 57.045 347.4 58.795ZM345.525 58.795C345.525 58.255 345.495 57.75 345.435 57.28C345.375 56.81 345.275 56.405 345.135 56.065C345.005 55.715 344.83 55.44 344.61 55.24C344.39 55.04 344.115 54.94 343.785 54.94C343.455 54.94 343.175 55.04 342.945 55.24C342.725 55.44 342.545 55.715 342.405 56.065C342.275 56.405 342.18 56.81 342.12 57.28C342.07 57.75 342.045 58.255 342.045 58.795C342.045 59.335 342.07 59.84 342.12 60.31C342.18 60.78 342.275 61.19 342.405 61.54C342.545 61.88 342.725 62.15 342.945 62.35C343.175 62.55 343.455 62.65 343.785 62.65C344.115 62.65 344.39 62.55 344.61 62.35C344.83 62.15 345.005 61.88 345.135 61.54C345.275 61.19 345.375 60.78 345.435 60.31C345.495 59.84 345.525 59.335 345.525 58.795ZM332.065 71.085L333.88 70.785V73.155H336.67V74.67H333.88V77.865C333.88 78.495 333.98 78.945 334.18 79.215C334.38 79.485 334.72 79.62 335.2 79.62C335.53 79.62 335.82 79.585 336.07 79.515C336.33 79.445 336.535 79.38 336.685 79.32L336.985 80.76C336.775 80.85 336.5 80.94 336.16 81.03C335.82 81.13 335.42 81.18 334.96 81.18C334.4 81.18 333.93 81.105 333.55 80.955C333.18 80.805 332.885 80.59 332.665 80.31C332.445 80.02 332.29 79.675 332.2 79.275C332.11 78.865 332.065 78.4 332.065 77.88V71.085ZM345.344 77.07C345.344 77.69 345.254 78.255 345.074 78.765C344.894 79.275 344.639 79.71 344.309 80.07C343.979 80.43 343.579 80.71 343.109 80.91C342.649 81.11 342.139 81.21 341.579 81.21C341.019 81.21 340.509 81.11 340.049 80.91C339.589 80.71 339.194 80.43 338.864 80.07C338.534 79.71 338.274 79.275 338.084 78.765C337.904 78.255 337.814 77.69 337.814 77.07C337.814 76.45 337.904 75.89 338.084 75.39C338.274 74.88 338.534 74.445 338.864 74.085C339.204 73.725 339.604 73.45 340.064 73.26C340.524 73.06 341.029 72.96 341.579 72.96C342.129 72.96 342.634 73.06 343.094 73.26C343.564 73.45 343.964 73.725 344.294 74.085C344.624 74.445 344.879 74.88 345.059 75.39C345.249 75.89 345.344 76.45 345.344 77.07ZM343.484 77.07C343.484 76.29 343.314 75.675 342.974 75.225C342.644 74.765 342.179 74.535 341.579 74.535C340.979 74.535 340.509 74.765 340.169 75.225C339.839 75.675 339.674 76.29 339.674 77.07C339.674 77.86 339.839 78.485 340.169 78.945C340.509 79.405 340.979 79.635 341.579 79.635C342.179 79.635 342.644 79.405 342.974 78.945C343.314 78.485 343.484 77.86 343.484 77.07ZM349.029 76.215C349.259 75.975 349.504 75.72 349.764 75.45C350.024 75.17 350.279 74.895 350.529 74.625C350.779 74.345 351.014 74.08 351.234 73.83C351.464 73.57 351.659 73.345 351.819 73.155H353.964C353.464 73.715 352.934 74.295 352.374 74.895C351.824 75.495 351.269 76.08 350.709 76.65C351.009 76.9 351.324 77.205 351.654 77.565C351.984 77.915 352.304 78.29 352.614 78.69C352.924 79.09 353.214 79.49 353.484 79.89C353.754 80.29 353.979 80.66 354.159 81H352.059C351.879 80.69 351.669 80.365 351.429 80.025C351.199 79.685 350.949 79.355 350.679 79.035C350.409 78.715 350.134 78.415 349.854 78.135C349.574 77.845 349.299 77.6 349.029 77.4V81H347.214V69.66L349.029 69.36V76.215ZM354.689 77.115C354.689 76.425 354.789 75.82 354.989 75.3C355.199 74.78 355.474 74.35 355.814 74.01C356.154 73.66 356.544 73.4 356.984 73.23C357.424 73.05 357.874 72.96 358.334 72.96C359.414 72.96 360.254 73.295 360.854 73.965C361.464 74.635 361.769 75.635 361.769 76.965C361.769 77.065 361.764 77.18 361.754 77.31C361.754 77.43 361.749 77.54 361.739 77.64H356.564C356.614 78.27 356.834 78.76 357.224 79.11C357.624 79.45 358.199 79.62 358.949 79.62C359.389 79.62 359.789 79.58 360.149 79.5C360.519 79.42 360.809 79.335 361.019 79.245L361.259 80.73C361.159 80.78 361.019 80.835 360.839 80.895C360.669 80.945 360.469 80.99 360.239 81.03C360.019 81.08 359.779 81.12 359.519 81.15C359.259 81.18 358.994 81.195 358.724 81.195C358.034 81.195 357.434 81.095 356.924 80.895C356.414 80.685 355.994 80.4 355.664 80.04C355.334 79.67 355.089 79.24 354.929 78.75C354.769 78.25 354.689 77.705 354.689 77.115ZM359.954 76.305C359.954 76.055 359.919 75.82 359.849 75.6C359.779 75.37 359.674 75.175 359.534 75.015C359.404 74.845 359.239 74.715 359.039 74.625C358.849 74.525 358.619 74.475 358.349 74.475C358.069 74.475 357.824 74.53 357.614 74.64C357.404 74.74 357.224 74.875 357.074 75.045C356.934 75.215 356.824 75.41 356.744 75.63C356.664 75.85 356.609 76.075 356.579 76.305H359.954ZM363.693 73.41C364.043 73.31 364.498 73.215 365.058 73.125C365.618 73.035 366.238 72.99 366.918 72.99C367.558 72.99 368.093 73.08 368.523 73.26C368.953 73.43 369.293 73.675 369.543 73.995C369.803 74.305 369.983 74.685 370.083 75.135C370.193 75.575 370.248 76.06 370.248 76.59V81H368.433V76.875C368.433 76.455 368.403 76.1 368.343 75.81C368.293 75.51 368.203 75.27 368.073 75.09C367.953 74.9 367.783 74.765 367.563 74.685C367.353 74.595 367.093 74.55 366.783 74.55C366.553 74.55 366.313 74.565 366.063 74.595C365.813 74.625 365.628 74.65 365.508 74.67V81H363.693V73.41ZM379.193 81.12C378.643 81.12 378.088 81.1 377.528 81.06C376.968 81.03 376.478 80.96 376.058 80.85V70.755C376.278 70.715 376.513 70.68 376.763 70.65C377.013 70.61 377.268 70.58 377.528 70.56C377.788 70.54 378.043 70.525 378.293 70.515C378.553 70.505 378.798 70.5 379.028 70.5C379.658 70.5 380.243 70.55 380.783 70.65C381.323 70.74 381.788 70.895 382.178 71.115C382.578 71.335 382.888 71.625 383.108 71.985C383.328 72.345 383.438 72.79 383.438 73.32C383.438 73.81 383.318 74.23 383.078 74.58C382.848 74.93 382.523 75.21 382.103 75.42C382.733 75.63 383.198 75.94 383.498 76.35C383.798 76.76 383.948 77.28 383.948 77.91C383.948 78.98 383.558 79.785 382.778 80.325C381.998 80.855 380.803 81.12 379.193 81.12ZM377.918 76.32V79.485C378.128 79.505 378.353 79.52 378.593 79.53C378.833 79.54 379.053 79.545 379.253 79.545C379.643 79.545 380.003 79.52 380.333 79.47C380.673 79.42 380.963 79.335 381.203 79.215C381.453 79.085 381.648 78.915 381.788 78.705C381.938 78.495 382.013 78.225 382.013 77.895C382.013 77.305 381.798 76.895 381.368 76.665C380.938 76.435 380.343 76.32 379.583 76.32H377.918ZM377.918 74.835H379.253C379.973 74.835 380.538 74.735 380.948 74.535C381.358 74.325 381.563 73.955 381.563 73.425C381.563 72.925 381.348 72.57 380.918 72.36C380.498 72.15 379.948 72.045 379.268 72.045C378.978 72.045 378.718 72.05 378.488 72.06C378.268 72.07 378.078 72.085 377.918 72.105V74.835Z" fill="#5C5C5C"/>
<rect x="533" y="37" width="100" height="30" rx="15" fill="#5C5C5C" fill-opacity="0.25"/>
<rect x="533" y="127" width="100" height="30" rx="15" fill="#5C5C5C" fill-opacity="0.25"/>
<path d="M25.815 33.365V35H19.245V24.605H21.135V33.365H25.815ZM28.9977 35H27.1827V27.155H28.9977V35ZM29.1927 24.86C29.1927 25.2 29.0827 25.47 28.8627 25.67C28.6427 25.87 28.3827 25.97 28.0827 25.97C27.7727 25.97 27.5077 25.87 27.2877 25.67C27.0677 25.47 26.9577 25.2 26.9577 24.86C26.9577 24.51 27.0677 24.235 27.2877 24.035C27.5077 23.835 27.7727 23.735 28.0827 23.735C28.3827 23.735 28.6427 23.835 28.8627 24.035C29.0827 24.235 29.1927 24.51 29.1927 24.86ZM32.7382 31.115C32.7382 31.875 32.8882 32.48 33.1882 32.93C33.4982 33.38 33.9832 33.605 34.6432 33.605C34.9432 33.605 35.2232 33.56 35.4832 33.47C35.7532 33.37 35.9682 33.265 36.1282 33.155V28.67C35.9982 28.64 35.8332 28.615 35.6332 28.595C35.4432 28.565 35.1932 28.55 34.8832 28.55C34.2132 28.55 33.6882 28.78 33.3082 29.24C32.9282 29.69 32.7382 30.315 32.7382 31.115ZM30.8782 31.085C30.8782 30.465 30.9682 29.905 31.1482 29.405C31.3382 28.895 31.6032 28.465 31.9432 28.115C32.2932 27.755 32.7132 27.48 33.2032 27.29C33.6932 27.09 34.2482 26.99 34.8682 26.99C35.4882 26.99 36.0682 27.035 36.6082 27.125C37.1482 27.215 37.5932 27.31 37.9432 27.41V37.775H36.1282V34.73C35.9182 34.84 35.6582 34.94 35.3482 35.03C35.0482 35.12 34.7132 35.165 34.3432 35.165C33.7832 35.165 33.2882 35.07 32.8582 34.88C32.4282 34.68 32.0682 34.4 31.7782 34.04C31.4882 33.68 31.2632 33.25 31.1032 32.75C30.9532 32.25 30.8782 31.695 30.8782 31.085ZM46.6838 34.76C46.3338 34.85 45.8788 34.94 45.3188 35.03C44.7588 35.13 44.1438 35.18 43.4738 35.18C42.8438 35.18 42.3138 35.09 41.8838 34.91C41.4638 34.73 41.1238 34.48 40.8638 34.16C40.6138 33.84 40.4338 33.46 40.3238 33.02C40.2138 32.57 40.1588 32.08 40.1588 31.55V27.155H41.9738V31.265C41.9738 32.105 42.0938 32.705 42.3338 33.065C42.5838 33.425 43.0138 33.605 43.6238 33.605C43.8438 33.605 44.0738 33.595 44.3138 33.575C44.5638 33.555 44.7488 33.53 44.8688 33.5V27.155H46.6838V34.76ZM50.8239 35H49.0089V27.155H50.8239V35ZM51.0189 24.86C51.0189 25.2 50.9089 25.47 50.6889 25.67C50.4689 25.87 50.2089 25.97 49.9089 25.97C49.5989 25.97 49.3339 25.87 49.1139 25.67C48.8939 25.47 48.7839 25.2 48.7839 24.86C48.7839 24.51 48.8939 24.235 49.1139 24.035C49.3339 23.835 49.5989 23.735 49.9089 23.735C50.2089 23.735 50.4689 23.835 50.6889 24.035C50.9089 24.235 51.0189 24.51 51.0189 24.86ZM54.5644 31.055C54.5644 31.855 54.7544 32.485 55.1344 32.945C55.5144 33.395 56.0394 33.62 56.7094 33.62C56.9994 33.62 57.2444 33.61 57.4444 33.59C57.6544 33.56 57.8244 33.53 57.9544 33.5V29C57.7944 28.89 57.5794 28.79 57.3094 28.7C57.0494 28.6 56.7694 28.55 56.4694 28.55C55.8094 28.55 55.3244 28.775 55.0144 29.225C54.7144 29.675 54.5644 30.285 54.5644 31.055ZM59.7694 34.76C59.4094 34.87 58.9544 34.97 58.4044 35.06C57.8644 35.15 57.2944 35.195 56.6944 35.195C56.0744 35.195 55.5194 35.1 55.0294 34.91C54.5394 34.72 54.1194 34.45 53.7694 34.1C53.4294 33.74 53.1644 33.31 52.9744 32.81C52.7944 32.3 52.7044 31.73 52.7044 31.1C52.7044 30.48 52.7794 29.92 52.9294 29.42C53.0894 28.91 53.3194 28.475 53.6194 28.115C53.9194 27.755 54.2844 27.48 54.7144 27.29C55.1444 27.09 55.6394 26.99 56.1994 26.99C56.5794 26.99 56.9144 27.035 57.2044 27.125C57.4944 27.215 57.7444 27.315 57.9544 27.425V23.66L59.7694 23.36V34.76ZM63.9049 35H62.0899V27.155H63.9049V35ZM64.0999 24.86C64.0999 25.2 63.9899 25.47 63.7699 25.67C63.5499 25.87 63.2899 25.97 62.9899 25.97C62.6799 25.97 62.4149 25.87 62.1949 25.67C61.9749 25.47 61.8649 25.2 61.8649 24.86C61.8649 24.51 61.9749 24.235 62.1949 24.035C62.4149 23.835 62.6799 23.735 62.9899 23.735C63.2899 23.735 63.5499 23.835 63.7699 24.035C63.9899 24.235 64.0999 24.51 64.0999 24.86ZM66.1304 25.085L67.9454 24.785V27.155H70.7354V28.67H67.9454V31.865C67.9454 32.495 68.0454 32.945 68.2454 33.215C68.4454 33.485 68.7854 33.62 69.2654 33.62C69.5954 33.62 69.8854 33.585 70.1354 33.515C70.3954 33.445 70.6004 33.38 70.7504 33.32L71.0504 34.76C70.8404 34.85 70.5654 34.94 70.2254 35.03C69.8854 35.13 69.4854 35.18 69.0254 35.18C68.4654 35.18 67.9954 35.105 67.6154 34.955C67.2454 34.805 66.9504 34.59 66.7304 34.31C66.5104 34.02 66.3554 33.675 66.2654 33.275C66.1754 32.865 66.1304 32.4 66.1304 31.88V25.085ZM78.895 27.155C78.085 30.135 77.145 32.835 76.075 35.255C75.875 35.705 75.67 36.09 75.46 36.41C75.25 36.73 75.015 36.995 74.755 37.205C74.495 37.415 74.205 37.565 73.885 37.655C73.565 37.755 73.195 37.805 72.775 37.805C72.495 37.805 72.215 37.775 71.935 37.715C71.665 37.655 71.46 37.59 71.32 37.52L71.65 36.065C72.01 36.205 72.365 36.275 72.715 36.275C73.185 36.275 73.55 36.16 73.81 35.93C74.08 35.71 74.315 35.365 74.515 34.895C73.945 33.795 73.395 32.595 72.865 31.295C72.345 29.995 71.88 28.615 71.47 27.155H73.405C73.505 27.575 73.625 28.03 73.765 28.52C73.915 29.01 74.075 29.51 74.245 30.02C74.415 30.52 74.595 31.02 74.785 31.52C74.975 32.02 75.165 32.485 75.355 32.915C75.675 32.025 75.975 31.08 76.255 30.08C76.535 29.07 76.79 28.095 77.02 27.155H78.895ZM88.9743 31.115C88.9743 30.305 88.7893 29.675 88.4193 29.225C88.0593 28.775 87.4743 28.55 86.6643 28.55C86.4943 28.55 86.3143 28.56 86.1243 28.58C85.9443 28.59 85.7643 28.62 85.5843 28.67V33.155C85.7443 33.265 85.9543 33.37 86.2143 33.47C86.4843 33.56 86.7693 33.605 87.0693 33.605C87.7293 33.605 88.2093 33.38 88.5093 32.93C88.8193 32.48 88.9743 31.875 88.9743 31.115ZM90.8343 31.085C90.8343 31.685 90.7543 32.235 90.5943 32.735C90.4443 33.235 90.2243 33.665 89.9343 34.025C89.6443 34.385 89.2793 34.665 88.8393 34.865C88.4093 35.065 87.9193 35.165 87.3693 35.165C86.9993 35.165 86.6593 35.12 86.3493 35.03C86.0393 34.94 85.7843 34.84 85.5843 34.73V37.775H83.7693V27.41C84.1393 27.31 84.5943 27.215 85.1343 27.125C85.6743 27.035 86.2443 26.99 86.8443 26.99C87.4643 26.99 88.0193 27.085 88.5093 27.275C88.9993 27.465 89.4143 27.74 89.7543 28.1C90.1043 28.45 90.3693 28.88 90.5493 29.39C90.7393 29.89 90.8343 30.455 90.8343 31.085ZM97.1748 28.79C97.0248 28.74 96.8148 28.69 96.5448 28.64C96.2848 28.58 95.9798 28.55 95.6298 28.55C95.4298 28.55 95.2148 28.57 94.9848 28.61C94.7648 28.65 94.6098 28.685 94.5198 28.715V35H92.7048V27.53C93.0548 27.4 93.4898 27.28 94.0098 27.17C94.5398 27.05 95.1248 26.99 95.7648 26.99C95.8848 26.99 96.0248 27 96.1848 27.02C96.3448 27.03 96.5048 27.05 96.6648 27.08C96.8248 27.1 96.9798 27.13 97.1298 27.17C97.2798 27.2 97.3998 27.23 97.4898 27.26L97.1748 28.79ZM105.85 31.07C105.85 31.69 105.76 32.255 105.58 32.765C105.4 33.275 105.145 33.71 104.815 34.07C104.485 34.43 104.085 34.71 103.615 34.91C103.155 35.11 102.645 35.21 102.085 35.21C101.525 35.21 101.015 35.11 100.555 34.91C100.095 34.71 99.6996 34.43 99.3696 34.07C99.0396 33.71 98.7796 33.275 98.5896 32.765C98.4096 32.255 98.3196 31.69 98.3196 31.07C98.3196 30.45 98.4096 29.89 98.5896 29.39C98.7796 28.88 99.0396 28.445 99.3696 28.085C99.7096 27.725 100.11 27.45 100.57 27.26C101.03 27.06 101.535 26.96 102.085 26.96C102.635 26.96 103.14 27.06 103.6 27.26C104.07 27.45 104.47 27.725 104.8 28.085C105.13 28.445 105.385 28.88 105.565 29.39C105.755 29.89 105.85 30.45 105.85 31.07ZM103.99 31.07C103.99 30.29 103.82 29.675 103.48 29.225C103.15 28.765 102.685 28.535 102.085 28.535C101.485 28.535 101.015 28.765 100.675 29.225C100.345 29.675 100.18 30.29 100.18 31.07C100.18 31.86 100.345 32.485 100.675 32.945C101.015 33.405 101.485 33.635 102.085 33.635C102.685 33.635 103.15 33.405 103.48 32.945C103.82 32.485 103.99 31.86 103.99 31.07ZM109.554 35C109.054 33.97 108.539 32.79 108.009 31.46C107.489 30.12 107.014 28.685 106.584 27.155H108.519C108.629 27.595 108.754 28.07 108.894 28.58C109.044 29.08 109.199 29.585 109.359 30.095C109.529 30.595 109.699 31.085 109.869 31.565C110.049 32.035 110.214 32.46 110.364 32.84C110.514 32.46 110.674 32.035 110.844 31.565C111.014 31.085 111.179 30.595 111.339 30.095C111.509 29.585 111.669 29.08 111.819 28.58C111.969 28.07 112.099 27.595 112.209 27.155H114.084C113.654 28.685 113.174 30.12 112.644 31.46C112.124 32.79 111.614 33.97 111.114 35H109.554ZM117.269 35H115.454V27.155H117.269V35ZM117.464 24.86C117.464 25.2 117.354 25.47 117.134 25.67C116.914 25.87 116.654 25.97 116.354 25.97C116.044 25.97 115.779 25.87 115.559 25.67C115.339 25.47 115.229 25.2 115.229 24.86C115.229 24.51 115.339 24.235 115.559 24.035C115.779 23.835 116.044 23.735 116.354 23.735C116.654 23.735 116.914 23.835 117.134 24.035C117.354 24.235 117.464 24.51 117.464 24.86ZM121.01 31.055C121.01 31.855 121.2 32.485 121.58 32.945C121.96 33.395 122.485 33.62 123.155 33.62C123.445 33.62 123.69 33.61 123.89 33.59C124.1 33.56 124.27 33.53 124.4 33.5V29C124.24 28.89 124.025 28.79 123.755 28.7C123.495 28.6 123.215 28.55 122.915 28.55C122.255 28.55 121.77 28.775 121.46 29.225C121.16 29.675 121.01 30.285 121.01 31.055ZM126.215 34.76C125.855 34.87 125.4 34.97 124.85 35.06C124.31 35.15 123.74 35.195 123.14 35.195C122.52 35.195 121.965 35.1 121.475 34.91C120.985 34.72 120.565 34.45 120.215 34.1C119.875 33.74 119.61 33.31 119.42 32.81C119.24 32.3 119.15 31.73 119.15 31.1C119.15 30.48 119.225 29.92 119.375 29.42C119.535 28.91 119.765 28.475 120.065 28.115C120.365 27.755 120.73 27.48 121.16 27.29C121.59 27.09 122.085 26.99 122.645 26.99C123.025 26.99 123.36 27.035 123.65 27.125C123.94 27.215 124.19 27.315 124.4 27.425V23.66L126.215 23.36V34.76ZM128.085 31.115C128.085 30.425 128.185 29.82 128.385 29.3C128.595 28.78 128.87 28.35 129.21 28.01C129.55 27.66 129.94 27.4 130.38 27.23C130.82 27.05 131.27 26.96 131.73 26.96C132.81 26.96 133.65 27.295 134.25 27.965C134.86 28.635 135.165 29.635 135.165 30.965C135.165 31.065 135.16 31.18 135.15 31.31C135.15 31.43 135.145 31.54 135.135 31.64H129.96C130.01 32.27 130.23 32.76 130.62 33.11C131.02 33.45 131.595 33.62 132.345 33.62C132.785 33.62 133.185 33.58 133.545 33.5C133.915 33.42 134.205 33.335 134.415 33.245L134.655 34.73C134.555 34.78 134.415 34.835 134.235 34.895C134.065 34.945 133.865 34.99 133.635 35.03C133.415 35.08 133.175 35.12 132.915 35.15C132.655 35.18 132.39 35.195 132.12 35.195C131.43 35.195 130.83 35.095 130.32 34.895C129.81 34.685 129.39 34.4 129.06 34.04C128.73 33.67 128.485 33.24 128.325 32.75C128.165 32.25 128.085 31.705 128.085 31.115ZM133.35 30.305C133.35 30.055 133.315 29.82 133.245 29.6C133.175 29.37 133.07 29.175 132.93 29.015C132.8 28.845 132.635 28.715 132.435 28.625C132.245 28.525 132.015 28.475 131.745 28.475C131.465 28.475 131.22 28.53 131.01 28.64C130.8 28.74 130.62 28.875 130.47 29.045C130.33 29.215 130.22 29.41 130.14 29.63C130.06 29.85 130.005 30.075 129.975 30.305H133.35ZM141.56 28.79C141.41 28.74 141.2 28.69 140.93 28.64C140.67 28.58 140.365 28.55 140.015 28.55C139.815 28.55 139.6 28.57 139.37 28.61C139.15 28.65 138.995 28.685 138.905 28.715V35H137.09V27.53C137.44 27.4 137.875 27.28 138.395 27.17C138.925 27.05 139.51 26.99 140.15 26.99C140.27 26.99 140.41 27 140.57 27.02C140.73 27.03 140.89 27.05 141.05 27.08C141.21 27.1 141.365 27.13 141.515 27.17C141.665 27.2 141.785 27.23 141.875 27.26L141.56 28.79Z" fill="white"/>
<rect y="15" width="160" height="30" rx="15" fill="#5C5C5C" fill-opacity="0.25"/>
<path d="M568.49 46.605V48.24H565.295V57H563.39V48.24H560.195V46.605H568.49ZM573.77 50.79C573.62 50.74 573.41 50.69 573.14 50.64C572.88 50.58 572.575 50.55 572.225 50.55C572.025 50.55 571.81 50.57 571.58 50.61C571.36 50.65 571.205 50.685 571.115 50.715V57H569.3V49.53C569.65 49.4 570.085 49.28 570.605 49.17C571.135 49.05 571.72 48.99 572.36 48.99C572.48 48.99 572.62 49 572.78 49.02C572.94 49.03 573.1 49.05 573.26 49.08C573.42 49.1 573.575 49.13 573.725 49.17C573.875 49.2 573.995 49.23 574.085 49.26L573.77 50.79ZM578.109 55.725C578.669 55.725 579.094 55.695 579.384 55.635V53.625C579.284 53.595 579.139 53.565 578.949 53.535C578.759 53.505 578.549 53.49 578.319 53.49C578.119 53.49 577.914 53.505 577.704 53.535C577.504 53.565 577.319 53.62 577.149 53.7C576.989 53.78 576.859 53.895 576.759 54.045C576.659 54.185 576.609 54.365 576.609 54.585C576.609 55.015 576.744 55.315 577.014 55.485C577.284 55.645 577.649 55.725 578.109 55.725ZM577.959 48.96C578.559 48.96 579.064 49.035 579.474 49.185C579.884 49.335 580.209 49.545 580.449 49.815C580.699 50.085 580.874 50.415 580.974 50.805C581.084 51.185 581.139 51.605 581.139 52.065V56.82C580.859 56.88 580.434 56.95 579.864 57.03C579.304 57.12 578.669 57.165 577.959 57.165C577.489 57.165 577.059 57.12 576.669 57.03C576.279 56.94 575.944 56.795 575.664 56.595C575.394 56.395 575.179 56.135 575.019 55.815C574.869 55.495 574.794 55.1 574.794 54.63C574.794 54.18 574.879 53.8 575.049 53.49C575.229 53.18 575.469 52.93 575.769 52.74C576.069 52.54 576.414 52.4 576.804 52.32C577.204 52.23 577.619 52.185 578.049 52.185C578.249 52.185 578.459 52.2 578.679 52.23C578.899 52.25 579.134 52.29 579.384 52.35V52.05C579.384 51.84 579.359 51.64 579.309 51.45C579.259 51.26 579.169 51.095 579.039 50.955C578.919 50.805 578.754 50.69 578.544 50.61C578.344 50.53 578.089 50.49 577.779 50.49C577.359 50.49 576.974 50.52 576.624 50.58C576.274 50.64 575.989 50.71 575.769 50.79L575.544 49.32C575.774 49.24 576.109 49.16 576.549 49.08C576.989 49 577.459 48.96 577.959 48.96ZM584.787 53.055C584.787 53.855 584.977 54.485 585.357 54.945C585.737 55.395 586.262 55.62 586.932 55.62C587.222 55.62 587.467 55.61 587.667 55.59C587.877 55.56 588.047 55.53 588.177 55.5V51C588.017 50.89 587.802 50.79 587.532 50.7C587.272 50.6 586.992 50.55 586.692 50.55C586.032 50.55 585.547 50.775 585.237 51.225C584.937 51.675 584.787 52.285 584.787 53.055ZM589.992 56.76C589.632 56.87 589.177 56.97 588.627 57.06C588.087 57.15 587.517 57.195 586.917 57.195C586.297 57.195 585.742 57.1 585.252 56.91C584.762 56.72 584.342 56.45 583.992 56.1C583.652 55.74 583.387 55.31 583.197 54.81C583.017 54.3 582.927 53.73 582.927 53.1C582.927 52.48 583.002 51.92 583.152 51.42C583.312 50.91 583.542 50.475 583.842 50.115C584.142 49.755 584.507 49.48 584.937 49.29C585.367 49.09 585.862 48.99 586.422 48.99C586.802 48.99 587.137 49.035 587.427 49.125C587.717 49.215 587.967 49.315 588.177 49.425V45.66L589.992 45.36V56.76ZM591.863 53.115C591.863 52.425 591.963 51.82 592.163 51.3C592.373 50.78 592.648 50.35 592.988 50.01C593.328 49.66 593.718 49.4 594.158 49.23C594.598 49.05 595.048 48.96 595.508 48.96C596.588 48.96 597.428 49.295 598.028 49.965C598.638 50.635 598.943 51.635 598.943 52.965C598.943 53.065 598.938 53.18 598.928 53.31C598.928 53.43 598.923 53.54 598.913 53.64H593.738C593.788 54.27 594.008 54.76 594.398 55.11C594.798 55.45 595.373 55.62 596.123 55.62C596.563 55.62 596.963 55.58 597.323 55.5C597.693 55.42 597.983 55.335 598.193 55.245L598.433 56.73C598.333 56.78 598.193 56.835 598.013 56.895C597.843 56.945 597.643 56.99 597.413 57.03C597.193 57.08 596.953 57.12 596.693 57.15C596.433 57.18 596.168 57.195 595.898 57.195C595.208 57.195 594.608 57.095 594.098 56.895C593.588 56.685 593.168 56.4 592.838 56.04C592.508 55.67 592.263 55.24 592.103 54.75C591.943 54.25 591.863 53.705 591.863 53.115ZM597.128 52.305C597.128 52.055 597.093 51.82 597.023 51.6C596.953 51.37 596.848 51.175 596.708 51.015C596.578 50.845 596.413 50.715 596.213 50.625C596.023 50.525 595.793 50.475 595.523 50.475C595.243 50.475 594.998 50.53 594.788 50.64C594.578 50.74 594.398 50.875 594.248 51.045C594.108 51.215 593.998 51.41 593.918 51.63C593.838 51.85 593.783 52.075 593.753 52.305H597.128ZM605.337 50.79C605.187 50.74 604.977 50.69 604.707 50.64C604.447 50.58 604.142 50.55 603.792 50.55C603.592 50.55 603.377 50.57 603.147 50.61C602.927 50.65 602.772 50.685 602.682 50.715V57H600.867V49.53C601.217 49.4 601.652 49.28 602.172 49.17C602.702 49.05 603.287 48.99 603.927 48.99C604.047 48.99 604.187 49 604.347 49.02C604.507 49.03 604.667 49.05 604.827 49.08C604.987 49.1 605.142 49.13 605.292 49.17C605.442 49.2 605.562 49.23 605.652 49.26L605.337 50.79Z" fill="white"/>
<path d="M462.095 124.21C461.625 124.21 461.22 124.135 460.88 123.985C460.54 123.825 460.26 123.61 460.04 123.34C459.83 123.07 459.675 122.75 459.575 122.38C459.475 122.01 459.425 121.61 459.425 121.18C459.425 120.51 459.54 119.865 459.77 119.245C460.01 118.615 460.345 118.065 460.775 117.595C461.215 117.115 461.75 116.735 462.38 116.455C463.01 116.165 463.725 116.02 464.525 116.02C464.625 116.02 464.745 116.025 464.885 116.035C465.025 116.045 465.18 116.07 465.35 116.11L466.175 112.66L468.065 112.36L466.01 120.865C465.96 121.095 465.92 121.33 465.89 121.57C465.87 121.8 465.86 122.02 465.86 122.23C465.86 122.5 465.885 122.77 465.935 123.04C465.985 123.31 466.065 123.59 466.175 123.88L464.555 124.12C464.445 123.91 464.35 123.655 464.27 123.355C464.02 123.575 463.715 123.775 463.355 123.955C462.995 124.125 462.575 124.21 462.095 124.21ZM464.99 117.58C464.8 117.54 464.57 117.52 464.3 117.52C463.84 117.52 463.42 117.62 463.04 117.82C462.66 118.01 462.335 118.27 462.065 118.6C461.795 118.92 461.585 119.29 461.435 119.71C461.295 120.13 461.225 120.565 461.225 121.015C461.225 121.245 461.245 121.46 461.285 121.66C461.335 121.86 461.41 122.035 461.51 122.185C461.61 122.335 461.74 122.455 461.9 122.545C462.07 122.635 462.275 122.68 462.515 122.68C462.835 122.68 463.115 122.615 463.355 122.485C463.605 122.355 463.84 122.175 464.06 121.945C464.07 121.735 464.09 121.515 464.12 121.285C464.16 121.055 464.205 120.83 464.255 120.61L464.99 117.58ZM468.039 121.165C468.039 120.495 468.144 119.85 468.354 119.23C468.574 118.6 468.884 118.045 469.284 117.565C469.694 117.075 470.184 116.685 470.754 116.395C471.324 116.105 471.964 115.96 472.674 115.96C473.434 115.96 474.024 116.155 474.444 116.545C474.864 116.935 475.074 117.435 475.074 118.045C475.074 118.675 474.919 119.185 474.609 119.575C474.299 119.965 473.894 120.27 473.394 120.49C472.904 120.71 472.344 120.86 471.714 120.94C471.094 121.02 470.464 121.07 469.824 121.09C469.814 121.11 469.809 121.13 469.809 121.15V121.3C469.809 122.21 470.384 122.665 471.534 122.665C472.214 122.665 472.894 122.525 473.574 122.245L473.724 123.715C473.484 123.825 473.144 123.935 472.704 124.045C472.264 124.155 471.764 124.21 471.204 124.21C470.644 124.21 470.164 124.13 469.764 123.97C469.364 123.81 469.034 123.59 468.774 123.31C468.524 123.03 468.339 122.71 468.219 122.35C468.099 121.98 468.039 121.585 468.039 121.165ZM472.404 117.445C472.104 117.445 471.819 117.505 471.549 117.625C471.279 117.745 471.039 117.91 470.829 118.12C470.619 118.33 470.434 118.58 470.274 118.87C470.124 119.15 470.014 119.455 469.944 119.785C471.144 119.745 472.014 119.6 472.554 119.35C473.104 119.1 473.379 118.725 473.379 118.225C473.379 118.025 473.304 117.845 473.154 117.685C473.014 117.525 472.764 117.445 472.404 117.445ZM477.691 122.59C477.791 122.61 477.896 122.625 478.006 122.635C478.116 122.635 478.226 122.635 478.336 122.635C478.816 122.635 479.246 122.545 479.626 122.365C480.016 122.175 480.346 121.925 480.616 121.615C480.886 121.295 481.091 120.925 481.231 120.505C481.381 120.075 481.456 119.62 481.456 119.14C481.456 118.92 481.431 118.715 481.381 118.525C481.331 118.325 481.246 118.15 481.126 118C481.016 117.85 480.861 117.73 480.661 117.64C480.471 117.55 480.226 117.505 479.926 117.505C479.726 117.505 479.536 117.52 479.356 117.55C479.176 117.57 479.016 117.6 478.876 117.64L477.691 122.59ZM483.271 118.975C483.271 119.685 483.156 120.355 482.926 120.985C482.706 121.605 482.376 122.15 481.936 122.62C481.506 123.09 480.976 123.465 480.346 123.745C479.726 124.015 479.011 124.15 478.201 124.15C478.061 124.15 477.916 124.14 477.766 124.12C477.626 124.11 477.486 124.095 477.346 124.075L476.686 126.775H474.871L477.346 116.47C477.756 116.32 478.211 116.2 478.711 116.11C479.221 116.02 479.731 115.975 480.241 115.975C480.761 115.975 481.211 116.055 481.591 116.215C481.981 116.365 482.296 116.575 482.536 116.845C482.786 117.115 482.971 117.435 483.091 117.805C483.211 118.165 483.271 118.555 483.271 118.975ZM486.997 124.15C486.527 124.14 486.127 124.08 485.797 123.97C485.477 123.86 485.217 123.71 485.017 123.52C484.827 123.33 484.687 123.105 484.597 122.845C484.517 122.585 484.477 122.3 484.477 121.99C484.477 121.67 484.512 121.335 484.582 120.985C484.662 120.625 484.747 120.27 484.837 119.92L486.577 112.66L488.467 112.36C488.157 113.67 487.847 114.975 487.537 116.275C487.227 117.565 486.912 118.865 486.592 120.175C486.542 120.385 486.487 120.595 486.427 120.805C486.367 121.005 486.337 121.205 486.337 121.405C486.337 121.575 486.337 121.735 486.337 121.885C486.347 122.025 486.387 122.15 486.457 122.26C486.537 122.36 486.652 122.445 486.802 122.515C486.952 122.585 487.147 122.63 487.387 122.65L486.997 124.15ZM491.558 124.21C490.628 124.21 489.918 123.935 489.428 123.385C488.938 122.835 488.693 122.11 488.693 121.21C488.693 120.63 488.783 120.03 488.963 119.41C489.143 118.79 489.418 118.225 489.788 117.715C490.158 117.205 490.623 116.785 491.183 116.455C491.743 116.125 492.403 115.96 493.163 115.96C494.093 115.96 494.803 116.235 495.293 116.785C495.783 117.325 496.028 118.045 496.028 118.945C496.028 119.535 495.938 120.14 495.758 120.76C495.588 121.38 495.318 121.945 494.948 122.455C494.588 122.965 494.123 123.385 493.553 123.715C492.993 124.045 492.328 124.21 491.558 124.21ZM492.938 117.49C492.548 117.49 492.198 117.605 491.888 117.835C491.588 118.055 491.333 118.34 491.123 118.69C490.923 119.04 490.768 119.425 490.658 119.845C490.548 120.255 490.493 120.655 490.493 121.045C490.493 121.545 490.588 121.94 490.778 122.23C490.968 122.52 491.303 122.665 491.783 122.665C492.173 122.665 492.518 122.555 492.818 122.335C493.128 122.105 493.383 121.82 493.583 121.48C493.793 121.13 493.953 120.745 494.063 120.325C494.173 119.905 494.228 119.505 494.228 119.125C494.228 118.625 494.133 118.23 493.943 117.94C493.753 117.64 493.418 117.49 492.938 117.49ZM504.318 116.155C504.118 116.725 503.898 117.32 503.658 117.94C503.418 118.55 503.148 119.165 502.848 119.785C502.558 120.405 502.243 121.025 501.903 121.645C501.563 122.255 501.198 122.85 500.808 123.43C500.518 123.87 500.218 124.29 499.908 124.69C499.598 125.1 499.258 125.46 498.888 125.77C498.528 126.08 498.128 126.33 497.688 126.52C497.248 126.71 496.748 126.805 496.188 126.805C495.878 126.805 495.603 126.77 495.363 126.7C495.113 126.63 494.903 126.55 494.733 126.46L495.318 125.005C495.458 125.085 495.613 125.15 495.783 125.2C495.963 125.25 496.158 125.275 496.368 125.275C496.838 125.275 497.248 125.15 497.598 124.9C497.958 124.66 498.283 124.33 498.573 123.91C498.253 122.8 497.983 121.595 497.763 120.295C497.543 118.995 497.398 117.615 497.328 116.155H499.158C499.168 116.575 499.188 117.04 499.218 117.55C499.258 118.06 499.303 118.585 499.353 119.125C499.413 119.655 499.483 120.18 499.563 120.7C499.643 121.22 499.733 121.7 499.833 122.14C500.133 121.66 500.413 121.155 500.673 120.625C500.933 120.095 501.173 119.57 501.393 119.05C501.613 118.52 501.803 118.01 501.963 117.52C502.133 117.02 502.278 116.565 502.398 116.155H504.318Z" fill="white" fill-opacity="0.75"/>
<path d="M433.47 132.47C433.177 132.763 433.177 133.237 433.47 133.53L438.243 138.303C438.536 138.596 439.01 138.596 439.303 138.303C439.596 138.01 439.596 137.536 439.303 137.243L435.061 133L439.303 128.757C439.596 128.464 439.596 127.99 439.303 127.697C439.01 127.404 438.536 127.404 438.243 127.697L433.47 132.47ZM526.5 132.25H434V133.75H526.5V132.25Z" fill="#F45D22"/>
<path d="M526.53 52.5303C526.823 52.2374 526.823 51.7626 526.53 51.4697L521.757 46.6967C521.464 46.4038 520.99 46.4038 520.697 46.6967C520.404 46.9896 520.404 47.4645 520.697 47.7574L524.939 52L520.697 56.2426C520.404 56.5355 520.404 57.0104 520.697 57.3033C520.99 57.5962 521.464 57.5962 521.757 57.3033L526.53 52.5303ZM434.47 51.4697C434.177 51.7626 434.177 52.2374 434.47 52.5303L439.243 57.3033C439.536 57.5962 440.01 57.5962 440.303 57.3033C440.596 57.0104 440.596 56.5355 440.303 56.2426L436.061 52L440.303 47.7574C440.596 47.4645 440.596 46.9896 440.303 46.6967C440.01 46.4038 439.536 46.4038 439.243 46.6967L434.47 51.4697ZM526 51.25L435 51.25L435 52.75L526 52.75L526 51.25Z" fill="#F45D22"/>
<path d="M465.36 42.725C465.84 42.725 466.22 42.65 466.5 42.5C466.78 42.34 466.92 42.1 466.92 41.78C466.92 41.52 466.83 41.315 466.65 41.165C466.47 41.005 466.155 40.82 465.705 40.61C465.465 40.5 465.24 40.385 465.03 40.265C464.83 40.145 464.655 40.005 464.505 39.845C464.355 39.685 464.235 39.5 464.145 39.29C464.055 39.07 464.01 38.81 464.01 38.51C464.01 37.73 464.295 37.11 464.865 36.65C465.435 36.19 466.26 35.96 467.34 35.96C467.84 35.96 468.285 36.015 468.675 36.125C469.075 36.225 469.375 36.33 469.575 36.44L468.93 37.85C468.76 37.75 468.515 37.655 468.195 37.565C467.875 37.465 467.54 37.415 467.19 37.415C467.02 37.415 466.85 37.43 466.68 37.46C466.52 37.49 466.375 37.54 466.245 37.61C466.115 37.68 466.005 37.78 465.915 37.91C465.835 38.03 465.795 38.18 465.795 38.36C465.795 38.59 465.885 38.78 466.065 38.93C466.255 39.07 466.525 39.22 466.875 39.38C467.205 39.53 467.485 39.675 467.715 39.815C467.945 39.955 468.135 40.115 468.285 40.295C468.435 40.465 468.545 40.66 468.615 40.88C468.685 41.09 468.72 41.345 468.72 41.645C468.72 42.015 468.645 42.36 468.495 42.68C468.345 42.99 468.125 43.26 467.835 43.49C467.555 43.71 467.205 43.885 466.785 44.015C466.365 44.145 465.885 44.21 465.345 44.21C464.975 44.21 464.64 44.185 464.34 44.135C464.05 44.085 463.795 44.03 463.575 43.97C463.355 43.9 463.17 43.83 463.02 43.76C462.87 43.69 462.755 43.63 462.675 43.58L463.32 42.155C463.39 42.195 463.49 42.25 463.62 42.32C463.76 42.38 463.915 42.44 464.085 42.5C464.265 42.56 464.46 42.615 464.67 42.665C464.89 42.705 465.12 42.725 465.36 42.725ZM475.897 39.035C475.707 39.465 475.492 39.91 475.252 40.37C475.012 40.82 474.762 41.265 474.502 41.705C474.242 42.135 473.982 42.55 473.722 42.95C473.462 43.34 473.222 43.69 473.002 44H471.502C471.412 43.54 471.322 43.015 471.232 42.425C471.152 41.835 471.077 41.205 471.007 40.535C470.937 39.865 470.872 39.16 470.812 38.42C470.762 37.68 470.727 36.925 470.707 36.155H472.507C472.507 36.575 472.512 37.03 472.522 37.52C472.532 38 472.547 38.495 472.567 39.005C472.597 39.505 472.627 40 472.657 40.49C472.697 40.98 472.747 41.44 472.807 41.87C473.087 41.44 473.362 40.985 473.632 40.505C473.912 40.015 474.177 39.525 474.427 39.035C474.677 38.535 474.907 38.04 475.117 37.55C475.337 37.06 475.527 36.595 475.687 36.155H477.247C477.247 36.565 477.252 37 477.262 37.46C477.272 37.92 477.287 38.395 477.307 38.885C477.337 39.375 477.367 39.875 477.397 40.385C477.437 40.885 477.487 41.38 477.547 41.87C477.807 41.49 478.072 41.055 478.342 40.565C478.612 40.075 478.872 39.575 479.122 39.065C479.372 38.545 479.597 38.035 479.797 37.535C480.007 37.025 480.177 36.565 480.307 36.155H482.197C481.987 36.755 481.727 37.395 481.417 38.075C481.117 38.745 480.777 39.425 480.397 40.115C480.017 40.805 479.607 41.485 479.167 42.155C478.737 42.815 478.287 43.43 477.817 44H476.317C476.207 43.16 476.112 42.335 476.032 41.525C475.962 40.705 475.917 39.875 475.897 39.035ZM488.685 40.955C488.655 41.065 488.625 41.245 488.595 41.495C488.565 41.745 488.55 41.98 488.55 42.2C488.55 42.49 488.575 42.775 488.625 43.055C488.675 43.325 488.755 43.6 488.865 43.88L487.245 44.12C487.125 43.88 487.03 43.625 486.96 43.355C486.71 43.575 486.4 43.775 486.03 43.955C485.67 44.125 485.26 44.21 484.8 44.21C484.33 44.21 483.925 44.135 483.585 43.985C483.255 43.825 482.985 43.61 482.775 43.34C482.565 43.06 482.41 42.735 482.31 42.365C482.21 41.995 482.16 41.595 482.16 41.165C482.16 40.435 482.29 39.755 482.55 39.125C482.81 38.495 483.17 37.95 483.63 37.49C484.1 37.03 484.655 36.67 485.295 36.41C485.935 36.14 486.635 36.005 487.395 36.005C487.785 36.005 488.175 36.04 488.565 36.11C488.965 36.17 489.365 36.29 489.765 36.47L488.685 40.955ZM487.695 37.565C487.505 37.525 487.29 37.505 487.05 37.505C486.6 37.505 486.185 37.605 485.805 37.805C485.425 37.995 485.095 38.255 484.815 38.585C484.545 38.905 484.335 39.275 484.185 39.695C484.035 40.115 483.96 40.555 483.96 41.015C483.96 41.245 483.98 41.46 484.02 41.66C484.06 41.86 484.125 42.035 484.215 42.185C484.315 42.335 484.445 42.455 484.605 42.545C484.765 42.635 484.97 42.68 485.22 42.68C485.54 42.68 485.82 42.615 486.06 42.485C486.31 42.345 486.54 42.16 486.75 41.93C486.76 41.67 486.78 41.425 486.81 41.195C486.85 40.965 486.9 40.735 486.96 40.505L487.695 37.565ZM492.355 42.59C492.455 42.61 492.56 42.625 492.67 42.635C492.78 42.635 492.89 42.635 493 42.635C493.48 42.635 493.91 42.545 494.29 42.365C494.68 42.175 495.01 41.925 495.28 41.615C495.55 41.295 495.755 40.925 495.895 40.505C496.045 40.075 496.12 39.62 496.12 39.14C496.12 38.92 496.095 38.715 496.045 38.525C495.995 38.325 495.91 38.15 495.79 38C495.68 37.85 495.525 37.73 495.325 37.64C495.135 37.55 494.89 37.505 494.59 37.505C494.39 37.505 494.2 37.52 494.02 37.55C493.84 37.57 493.68 37.6 493.54 37.64L492.355 42.59ZM497.935 38.975C497.935 39.685 497.82 40.355 497.59 40.985C497.37 41.605 497.04 42.15 496.6 42.62C496.17 43.09 495.64 43.465 495.01 43.745C494.39 44.015 493.675 44.15 492.865 44.15C492.725 44.15 492.58 44.14 492.43 44.12C492.29 44.11 492.15 44.095 492.01 44.075L491.35 46.775H489.535L492.01 36.47C492.42 36.32 492.875 36.2 493.375 36.11C493.885 36.02 494.395 35.975 494.905 35.975C495.425 35.975 495.875 36.055 496.255 36.215C496.645 36.365 496.96 36.575 497.2 36.845C497.45 37.115 497.635 37.435 497.755 37.805C497.875 38.165 497.935 38.555 497.935 38.975Z" fill="white" fill-opacity="0.75"/>
<path d="M527.03 150.53C527.323 150.237 527.323 149.763 527.03 149.47L522.257 144.697C521.964 144.404 521.49 144.404 521.197 144.697C520.904 144.99 520.904 145.464 521.197 145.757L525.439 150L521.197 154.243C520.904 154.536 520.904 155.01 521.197 155.303C521.49 155.596 521.964 155.596 522.257 155.303L527.03 150.53ZM526.5 149.25H434V150.75H526.5V149.25Z" fill="#F45D22"/>
<path d="M464.9 163.76C464.7 163.69 464.485 163.635 464.255 163.595C464.025 163.555 463.755 163.535 463.445 163.535C463.275 163.535 463.095 163.55 462.905 163.58C462.715 163.6 462.555 163.63 462.425 163.67L460.91 170H459.095L460.895 162.515C461.315 162.375 461.77 162.255 462.26 162.155C462.75 162.045 463.28 161.99 463.85 161.99C463.97 161.99 464.105 162 464.255 162.02C464.405 162.03 464.55 162.045 464.69 162.065C464.84 162.085 464.975 162.11 465.095 162.14C465.225 162.17 465.335 162.205 465.425 162.245L464.9 163.76ZM468.311 170.21C467.381 170.21 466.671 169.935 466.181 169.385C465.691 168.835 465.446 168.11 465.446 167.21C465.446 166.63 465.536 166.03 465.716 165.41C465.896 164.79 466.171 164.225 466.541 163.715C466.911 163.205 467.376 162.785 467.936 162.455C468.496 162.125 469.156 161.96 469.916 161.96C470.846 161.96 471.556 162.235 472.046 162.785C472.536 163.325 472.781 164.045 472.781 164.945C472.781 165.535 472.691 166.14 472.511 166.76C472.341 167.38 472.071 167.945 471.701 168.455C471.341 168.965 470.876 169.385 470.306 169.715C469.746 170.045 469.081 170.21 468.311 170.21ZM469.691 163.49C469.301 163.49 468.951 163.605 468.641 163.835C468.341 164.055 468.086 164.34 467.876 164.69C467.676 165.04 467.521 165.425 467.411 165.845C467.301 166.255 467.246 166.655 467.246 167.045C467.246 167.545 467.341 167.94 467.531 168.23C467.721 168.52 468.056 168.665 468.536 168.665C468.926 168.665 469.271 168.555 469.571 168.335C469.881 168.105 470.136 167.82 470.336 167.48C470.546 167.13 470.706 166.745 470.816 166.325C470.926 165.905 470.981 165.505 470.981 165.125C470.981 164.625 470.886 164.23 470.696 163.94C470.506 163.64 470.171 163.49 469.691 163.49ZM481.071 162.155C480.871 162.725 480.651 163.32 480.411 163.94C480.171 164.55 479.901 165.165 479.601 165.785C479.311 166.405 478.996 167.025 478.656 167.645C478.316 168.255 477.951 168.85 477.561 169.43C477.271 169.87 476.971 170.29 476.661 170.69C476.351 171.1 476.011 171.46 475.641 171.77C475.281 172.08 474.881 172.33 474.441 172.52C474.001 172.71 473.501 172.805 472.941 172.805C472.631 172.805 472.356 172.77 472.116 172.7C471.866 172.63 471.656 172.55 471.486 172.46L472.071 171.005C472.211 171.085 472.366 171.15 472.536 171.2C472.716 171.25 472.911 171.275 473.121 171.275C473.591 171.275 474.001 171.15 474.351 170.9C474.711 170.66 475.036 170.33 475.326 169.91C475.006 168.8 474.736 167.595 474.516 166.295C474.296 164.995 474.151 163.615 474.081 162.155H475.911C475.921 162.575 475.941 163.04 475.971 163.55C476.011 164.06 476.056 164.585 476.106 165.125C476.166 165.655 476.236 166.18 476.316 166.7C476.396 167.22 476.486 167.7 476.586 168.14C476.886 167.66 477.166 167.155 477.426 166.625C477.686 166.095 477.926 165.57 478.146 165.05C478.366 164.52 478.556 164.01 478.716 163.52C478.886 163.02 479.031 162.565 479.151 162.155H481.071ZM487.688 166.955C487.658 167.065 487.628 167.245 487.598 167.495C487.568 167.745 487.553 167.98 487.553 168.2C487.553 168.49 487.578 168.775 487.628 169.055C487.678 169.325 487.758 169.6 487.868 169.88L486.248 170.12C486.128 169.88 486.033 169.625 485.963 169.355C485.713 169.575 485.403 169.775 485.033 169.955C484.673 170.125 484.263 170.21 483.803 170.21C483.333 170.21 482.928 170.135 482.588 169.985C482.258 169.825 481.988 169.61 481.778 169.34C481.568 169.06 481.413 168.735 481.313 168.365C481.213 167.995 481.163 167.595 481.163 167.165C481.163 166.435 481.293 165.755 481.553 165.125C481.813 164.495 482.173 163.95 482.633 163.49C483.103 163.03 483.658 162.67 484.298 162.41C484.938 162.14 485.638 162.005 486.398 162.005C486.788 162.005 487.178 162.04 487.568 162.11C487.968 162.17 488.368 162.29 488.768 162.47L487.688 166.955ZM486.698 163.565C486.508 163.525 486.293 163.505 486.053 163.505C485.603 163.505 485.188 163.605 484.808 163.805C484.428 163.995 484.098 164.255 483.818 164.585C483.548 164.905 483.338 165.275 483.188 165.695C483.038 166.115 482.963 166.555 482.963 167.015C482.963 167.245 482.983 167.46 483.023 167.66C483.063 167.86 483.128 168.035 483.218 168.185C483.318 168.335 483.448 168.455 483.608 168.545C483.768 168.635 483.973 168.68 484.223 168.68C484.543 168.68 484.823 168.615 485.063 168.485C485.313 168.345 485.543 168.16 485.753 167.93C485.763 167.67 485.783 167.425 485.813 167.195C485.853 166.965 485.903 166.735 485.963 166.505L486.698 163.565ZM492.198 170.15C491.728 170.14 491.328 170.08 490.998 169.97C490.678 169.86 490.418 169.71 490.218 169.52C490.028 169.33 489.888 169.105 489.798 168.845C489.718 168.585 489.678 168.3 489.678 167.99C489.678 167.67 489.713 167.335 489.783 166.985C489.863 166.625 489.948 166.27 490.038 165.92L491.778 158.66L493.668 158.36C493.358 159.67 493.048 160.975 492.738 162.275C492.428 163.565 492.113 164.865 491.793 166.175C491.743 166.385 491.688 166.595 491.628 166.805C491.568 167.005 491.538 167.205 491.538 167.405C491.538 167.575 491.538 167.735 491.538 167.885C491.548 168.025 491.588 168.15 491.658 168.26C491.738 168.36 491.853 168.445 492.003 168.515C492.153 168.585 492.348 168.63 492.588 168.65L492.198 170.15ZM495.84 160.085L497.73 159.785L497.16 162.155H499.725L499.365 163.655H496.8L496.05 166.76C496 166.98 495.965 167.165 495.945 167.315C495.925 167.455 495.915 167.585 495.915 167.705C495.915 167.825 495.925 167.945 495.945 168.065C495.975 168.175 496.025 168.275 496.095 168.365C496.175 168.445 496.285 168.515 496.425 168.575C496.575 168.625 496.775 168.65 497.025 168.65C497.295 168.65 497.555 168.615 497.805 168.545C498.055 168.475 498.275 168.4 498.465 168.32L498.6 169.775C498.37 169.875 498.08 169.97 497.73 170.06C497.38 170.15 496.97 170.195 496.5 170.195C495.64 170.195 495.025 170.01 494.655 169.64C494.285 169.26 494.1 168.745 494.1 168.095C494.1 167.855 494.115 167.61 494.145 167.36C494.185 167.1 494.24 166.825 494.31 166.535L495.84 160.085ZM507.336 162.155C507.136 162.725 506.916 163.32 506.676 163.94C506.436 164.55 506.166 165.165 505.866 165.785C505.576 166.405 505.261 167.025 504.921 167.645C504.581 168.255 504.216 168.85 503.826 169.43C503.536 169.87 503.236 170.29 502.926 170.69C502.616 171.1 502.276 171.46 501.906 171.77C501.546 172.08 501.146 172.33 500.706 172.52C500.266 172.71 499.766 172.805 499.206 172.805C498.896 172.805 498.621 172.77 498.381 172.7C498.131 172.63 497.921 172.55 497.751 172.46L498.336 171.005C498.476 171.085 498.631 171.15 498.801 171.2C498.981 171.25 499.176 171.275 499.386 171.275C499.856 171.275 500.266 171.15 500.616 170.9C500.976 170.66 501.301 170.33 501.591 169.91C501.271 168.8 501.001 167.595 500.781 166.295C500.561 164.995 500.416 163.615 500.346 162.155H502.176C502.186 162.575 502.206 163.04 502.236 163.55C502.276 164.06 502.321 164.585 502.371 165.125C502.431 165.655 502.501 166.18 502.581 166.7C502.661 167.22 502.751 167.7 502.851 168.14C503.151 167.66 503.431 167.155 503.691 166.625C503.951 166.095 504.191 165.57 504.411 165.05C504.631 164.52 504.821 164.01 504.981 163.52C505.151 163.02 505.296 162.565 505.416 162.155H507.336Z" fill="white" fill-opacity="0.75"/>
<path d="M203.707 103.707C204.098 103.317 204.098 102.683 203.707 102.293L197.343 95.9289C196.953 95.5384 196.319 95.5384 195.929 95.9289C195.538 96.3195 195.538 96.9526 195.929 97.3431L201.586 103L195.929 108.657C195.538 109.047 195.538 109.681 195.929 110.071C196.319 110.462 196.953 110.462 197.343 110.071L203.707 103.707ZM92 58V93H94V58H92ZM103 104H203V102H103V104ZM92 93C92 99.0751 96.9249 104 103 104V102C98.0294 102 94 97.9706 94 93H92Z" fill="#F45D22"/>
<path d="M124.095 92.21C123.625 92.21 123.22 92.135 122.88 91.985C122.54 91.825 122.26 91.61 122.04 91.34C121.83 91.07 121.675 90.75 121.575 90.38C121.475 90.01 121.425 89.61 121.425 89.18C121.425 88.51 121.54 87.865 121.77 87.245C122.01 86.615 122.345 86.065 122.775 85.595C123.215 85.115 123.75 84.735 124.38 84.455C125.01 84.165 125.725 84.02 126.525 84.02C126.625 84.02 126.745 84.025 126.885 84.035C127.025 84.045 127.18 84.07 127.35 84.11L128.175 80.66L130.065 80.36L128.01 88.865C127.96 89.095 127.92 89.33 127.89 89.57C127.87 89.8 127.86 90.02 127.86 90.23C127.86 90.5 127.885 90.77 127.935 91.04C127.985 91.31 128.065 91.59 128.175 91.88L126.555 92.12C126.445 91.91 126.35 91.655 126.27 91.355C126.02 91.575 125.715 91.775 125.355 91.955C124.995 92.125 124.575 92.21 124.095 92.21ZM126.99 85.58C126.8 85.54 126.57 85.52 126.3 85.52C125.84 85.52 125.42 85.62 125.04 85.82C124.66 86.01 124.335 86.27 124.065 86.6C123.795 86.92 123.585 87.29 123.435 87.71C123.295 88.13 123.225 88.565 123.225 89.015C123.225 89.245 123.245 89.46 123.285 89.66C123.335 89.86 123.41 90.035 123.51 90.185C123.61 90.335 123.74 90.455 123.9 90.545C124.07 90.635 124.275 90.68 124.515 90.68C124.835 90.68 125.115 90.615 125.355 90.485C125.605 90.355 125.84 90.175 126.06 89.945C126.07 89.735 126.09 89.515 126.12 89.285C126.16 89.055 126.205 88.83 126.255 88.61L126.99 85.58ZM130.039 89.165C130.039 88.495 130.144 87.85 130.354 87.23C130.574 86.6 130.884 86.045 131.284 85.565C131.694 85.075 132.184 84.685 132.754 84.395C133.324 84.105 133.964 83.96 134.674 83.96C135.434 83.96 136.024 84.155 136.444 84.545C136.864 84.935 137.074 85.435 137.074 86.045C137.074 86.675 136.919 87.185 136.609 87.575C136.299 87.965 135.894 88.27 135.394 88.49C134.904 88.71 134.344 88.86 133.714 88.94C133.094 89.02 132.464 89.07 131.824 89.09C131.814 89.11 131.809 89.13 131.809 89.15V89.3C131.809 90.21 132.384 90.665 133.534 90.665C134.214 90.665 134.894 90.525 135.574 90.245L135.724 91.715C135.484 91.825 135.144 91.935 134.704 92.045C134.264 92.155 133.764 92.21 133.204 92.21C132.644 92.21 132.164 92.13 131.764 91.97C131.364 91.81 131.034 91.59 130.774 91.31C130.524 91.03 130.339 90.71 130.219 90.35C130.099 89.98 130.039 89.585 130.039 89.165ZM134.404 85.445C134.104 85.445 133.819 85.505 133.549 85.625C133.279 85.745 133.039 85.91 132.829 86.12C132.619 86.33 132.434 86.58 132.274 86.87C132.124 87.15 132.014 87.455 131.944 87.785C133.144 87.745 134.014 87.6 134.554 87.35C135.104 87.1 135.379 86.725 135.379 86.225C135.379 86.025 135.304 85.845 135.154 85.685C135.014 85.525 134.764 85.445 134.404 85.445ZM139.691 90.59C139.791 90.61 139.896 90.625 140.006 90.635C140.116 90.635 140.226 90.635 140.336 90.635C140.816 90.635 141.246 90.545 141.626 90.365C142.016 90.175 142.346 89.925 142.616 89.615C142.886 89.295 143.091 88.925 143.231 88.505C143.381 88.075 143.456 87.62 143.456 87.14C143.456 86.92 143.431 86.715 143.381 86.525C143.331 86.325 143.246 86.15 143.126 86C143.016 85.85 142.861 85.73 142.661 85.64C142.471 85.55 142.226 85.505 141.926 85.505C141.726 85.505 141.536 85.52 141.356 85.55C141.176 85.57 141.016 85.6 140.876 85.64L139.691 90.59ZM145.271 86.975C145.271 87.685 145.156 88.355 144.926 88.985C144.706 89.605 144.376 90.15 143.936 90.62C143.506 91.09 142.976 91.465 142.346 91.745C141.726 92.015 141.011 92.15 140.201 92.15C140.061 92.15 139.916 92.14 139.766 92.12C139.626 92.11 139.486 92.095 139.346 92.075L138.686 94.775H136.871L139.346 84.47C139.756 84.32 140.211 84.2 140.711 84.11C141.221 84.02 141.731 83.975 142.241 83.975C142.761 83.975 143.211 84.055 143.591 84.215C143.981 84.365 144.296 84.575 144.536 84.845C144.786 85.115 144.971 85.435 145.091 85.805C145.211 86.165 145.271 86.555 145.271 86.975ZM149.222 92.21C148.292 92.21 147.582 91.935 147.092 91.385C146.602 90.835 146.357 90.11 146.357 89.21C146.357 88.63 146.447 88.03 146.627 87.41C146.807 86.79 147.082 86.225 147.452 85.715C147.822 85.205 148.287 84.785 148.847 84.455C149.407 84.125 150.067 83.96 150.827 83.96C151.757 83.96 152.467 84.235 152.957 84.785C153.447 85.325 153.692 86.045 153.692 86.945C153.692 87.535 153.602 88.14 153.422 88.76C153.252 89.38 152.982 89.945 152.612 90.455C152.252 90.965 151.787 91.385 151.217 91.715C150.657 92.045 149.992 92.21 149.222 92.21ZM150.602 85.49C150.212 85.49 149.862 85.605 149.552 85.835C149.252 86.055 148.997 86.34 148.787 86.69C148.587 87.04 148.432 87.425 148.322 87.845C148.212 88.255 148.157 88.655 148.157 89.045C148.157 89.545 148.252 89.94 148.442 90.23C148.632 90.52 148.967 90.665 149.447 90.665C149.837 90.665 150.182 90.555 150.482 90.335C150.792 90.105 151.047 89.82 151.247 89.48C151.457 89.13 151.617 88.745 151.727 88.325C151.837 87.905 151.892 87.505 151.892 87.125C151.892 86.625 151.797 86.23 151.607 85.94C151.417 85.64 151.082 85.49 150.602 85.49ZM156.714 90.725C157.194 90.725 157.574 90.65 157.854 90.5C158.134 90.34 158.274 90.1 158.274 89.78C158.274 89.52 158.184 89.315 158.004 89.165C157.824 89.005 157.509 88.82 157.059 88.61C156.819 88.5 156.594 88.385 156.384 88.265C156.184 88.145 156.009 88.005 155.859 87.845C155.709 87.685 155.589 87.5 155.499 87.29C155.409 87.07 155.364 86.81 155.364 86.51C155.364 85.73 155.649 85.11 156.219 84.65C156.789 84.19 157.614 83.96 158.694 83.96C159.194 83.96 159.639 84.015 160.029 84.125C160.429 84.225 160.729 84.33 160.929 84.44L160.284 85.85C160.114 85.75 159.869 85.655 159.549 85.565C159.229 85.465 158.894 85.415 158.544 85.415C158.374 85.415 158.204 85.43 158.034 85.46C157.874 85.49 157.729 85.54 157.599 85.61C157.469 85.68 157.359 85.78 157.269 85.91C157.189 86.03 157.149 86.18 157.149 86.36C157.149 86.59 157.239 86.78 157.419 86.93C157.609 87.07 157.879 87.22 158.229 87.38C158.559 87.53 158.839 87.675 159.069 87.815C159.299 87.955 159.489 88.115 159.639 88.295C159.789 88.465 159.899 88.66 159.969 88.88C160.039 89.09 160.074 89.345 160.074 89.645C160.074 90.015 159.999 90.36 159.849 90.68C159.699 90.99 159.479 91.26 159.189 91.49C158.909 91.71 158.559 91.885 158.139 92.015C157.719 92.145 157.239 92.21 156.699 92.21C156.329 92.21 155.994 92.185 155.694 92.135C155.404 92.085 155.149 92.03 154.929 91.97C154.709 91.9 154.524 91.83 154.374 91.76C154.224 91.69 154.109 91.63 154.029 91.58L154.674 90.155C154.744 90.195 154.844 90.25 154.974 90.32C155.114 90.38 155.269 90.44 155.439 90.5C155.619 90.56 155.814 90.615 156.024 90.665C156.244 90.705 156.474 90.725 156.714 90.725ZM162.827 92H161.027L162.902 84.155H164.717L162.827 92ZM164.177 82.97C163.907 82.97 163.672 82.89 163.472 82.73C163.272 82.57 163.172 82.33 163.172 82.01C163.172 81.64 163.297 81.335 163.547 81.095C163.807 80.855 164.102 80.735 164.432 80.735C164.702 80.735 164.937 80.82 165.137 80.99C165.347 81.15 165.452 81.39 165.452 81.71C165.452 82.08 165.322 82.385 165.062 82.625C164.802 82.855 164.507 82.97 164.177 82.97ZM167.274 82.085L169.164 81.785L168.594 84.155H171.159L170.799 85.655H168.234L167.484 88.76C167.434 88.98 167.399 89.165 167.379 89.315C167.359 89.455 167.349 89.585 167.349 89.705C167.349 89.825 167.359 89.945 167.379 90.065C167.409 90.175 167.459 90.275 167.529 90.365C167.609 90.445 167.719 90.515 167.859 90.575C168.009 90.625 168.209 90.65 168.459 90.65C168.729 90.65 168.989 90.615 169.239 90.545C169.489 90.475 169.709 90.4 169.899 90.32L170.034 91.775C169.804 91.875 169.514 91.97 169.164 92.06C168.814 92.15 168.404 92.195 167.934 92.195C167.074 92.195 166.459 92.01 166.089 91.64C165.719 91.26 165.534 90.745 165.534 90.095C165.534 89.855 165.549 89.61 165.579 89.36C165.619 89.1 165.674 88.825 165.744 88.535L167.274 82.085Z" fill="white" fill-opacity="0.75"/>
<path d="M132.895 142.485C133.295 142.365 133.745 142.255 134.245 142.155C134.745 142.045 135.295 141.99 135.895 141.99C136.345 141.99 136.72 142.055 137.02 142.185C137.33 142.315 137.59 142.5 137.8 142.74C138.09 142.57 138.44 142.405 138.85 142.245C139.27 142.075 139.745 141.99 140.275 141.99C140.735 141.99 141.125 142.055 141.445 142.185C141.765 142.315 142.025 142.495 142.225 142.725C142.425 142.955 142.57 143.23 142.66 143.55C142.75 143.86 142.795 144.2 142.795 144.57C142.795 144.98 142.74 145.415 142.63 145.875L141.64 150H139.825L140.755 146.07C140.805 145.88 140.85 145.675 140.89 145.455C140.94 145.225 140.965 144.995 140.965 144.765C140.965 144.605 140.945 144.45 140.905 144.3C140.875 144.14 140.815 144.005 140.725 143.895C140.635 143.785 140.51 143.695 140.35 143.625C140.2 143.555 140.005 143.52 139.765 143.52C139.505 143.52 139.25 143.57 139 143.67C138.75 143.77 138.54 143.875 138.37 143.985C138.41 144.175 138.43 144.38 138.43 144.6C138.43 144.8 138.415 145.01 138.385 145.23C138.355 145.45 138.315 145.665 138.265 145.875L137.275 150H135.46L136.39 146.07C136.44 145.89 136.485 145.685 136.525 145.455C136.575 145.215 136.6 144.98 136.6 144.75C136.6 144.42 136.52 144.135 136.36 143.895C136.21 143.645 135.92 143.52 135.49 143.52C135.29 143.52 135.1 143.535 134.92 143.565C134.74 143.585 134.575 143.615 134.425 143.655L132.91 150H131.095L132.895 142.485ZM145.522 150H143.722L145.597 142.155H147.412L145.522 150ZM146.872 140.97C146.602 140.97 146.367 140.89 146.167 140.73C145.967 140.57 145.867 140.33 145.867 140.01C145.867 139.64 145.992 139.335 146.242 139.095C146.502 138.855 146.797 138.735 147.127 138.735C147.397 138.735 147.632 138.82 147.832 138.99C148.042 139.15 148.147 139.39 148.147 139.71C148.147 140.08 148.017 140.385 147.757 140.625C147.497 140.855 147.202 140.97 146.872 140.97ZM149.594 142.485C149.994 142.365 150.449 142.255 150.959 142.155C151.479 142.045 152.044 141.99 152.654 141.99C153.574 141.99 154.249 142.215 154.679 142.665C155.109 143.115 155.324 143.72 155.324 144.48C155.324 144.69 155.304 144.915 155.264 145.155C155.234 145.385 155.194 145.625 155.144 145.875L154.154 150H152.339L153.269 146.07C153.319 145.85 153.369 145.625 153.419 145.395C153.469 145.165 153.499 144.945 153.509 144.735C153.519 144.385 153.434 144.095 153.254 143.865C153.084 143.635 152.744 143.52 152.234 143.52C151.804 143.52 151.434 143.565 151.124 143.655L149.609 150H147.794L149.594 142.485ZM158.421 140.085L160.311 139.785L159.741 142.155H162.306L161.946 143.655H159.381L158.631 146.76C158.581 146.98 158.546 147.165 158.526 147.315C158.506 147.455 158.496 147.585 158.496 147.705C158.496 147.825 158.506 147.945 158.526 148.065C158.556 148.175 158.606 148.275 158.676 148.365C158.756 148.445 158.866 148.515 159.006 148.575C159.156 148.625 159.356 148.65 159.606 148.65C159.876 148.65 160.136 148.615 160.386 148.545C160.636 148.475 160.856 148.4 161.046 148.32L161.181 149.775C160.951 149.875 160.661 149.97 160.311 150.06C159.961 150.15 159.551 150.195 159.081 150.195C158.221 150.195 157.606 150.01 157.236 149.64C156.866 149.26 156.681 148.745 156.681 148.095C156.681 147.855 156.696 147.61 156.726 147.36C156.766 147.1 156.821 146.825 156.891 146.535L158.421 140.085Z" fill="white" fill-opacity="0.75"/>
<path d="M68.7071 54.2929C68.3166 53.9024 67.6834 53.9024 67.2929 54.2929L60.9289 60.6569C60.5384 61.0474 60.5384 61.6805 60.9289 62.0711C61.3195 62.4616 61.9526 62.4616 62.3431 62.0711L68 56.4142L73.6569 62.0711C74.0474 62.4616 74.6805 62.4616 75.0711 62.0711C75.4616 61.6805 75.4616 61.0474 75.0711 60.6569L68.7071 54.2929ZM203 156H83V158H203V156ZM69 142V55H67V142H69ZM83 156C75.268 156 69 149.732 69 142H67C67 150.837 74.1634 158 83 158V156Z" fill="#F45D22"/>
</svg>
