<svg width="599" height="277" viewBox="0 0 599 277" fill="none" xmlns="http://www.w3.org/2000/svg">
<path d="M32 251.679C91.4917 185.07 58.9291 145.826 557.827 51.01" stroke="#FB2FFF" stroke-width="2"/>
<ellipse cx="210.89" cy="131.007" rx="1.88976" ry="2.00669" fill="white"/>
<ellipse cx="359.835" cy="92.01" rx="2.83465" ry="3.01003" fill="white"/>
<ellipse cx="557.827" cy="51.01" rx="2.83465" ry="3.01003" fill="white"/>
<ellipse cx="110.898" cy="172.415" rx="1.88976" ry="2.00669" fill="white"/>
<ellipse cx="64.5985" cy="210.542" rx="1.88976" ry="2.00669" fill="white"/>
<ellipse cx="57.0394" cy="220.575" rx="1.88976" ry="2.00669" fill="white"/>
<ellipse cx="50.4252" cy="228.602" rx="1.88976" ry="2.00669" fill="white"/>
<ellipse cx="43.8109" cy="237.632" rx="1.88976" ry="2.00669" fill="white"/>
<ellipse cx="38.1417" cy="244.655" rx="1.88976" ry="2.00669" fill="white"/>
<path d="M8.215 14C7.465 12.38 6.74 10.685 6.04 8.915C5.35 7.145 4.705 5.375 4.105 3.605H6.19C6.43 4.305 6.675 5.02 6.925 5.75C7.175 6.48 7.425 7.2 7.675 7.91C7.925 8.61 8.175 9.29 8.425 9.95C8.675 10.61 8.92 11.215 9.16 11.765C9.39 11.215 9.63 10.615 9.88 9.965C10.13 9.305 10.38 8.62 10.63 7.91C10.89 7.2 11.145 6.48 11.395 5.75C11.645 5.02 11.885 4.305 12.115 3.605H14.14C13.53 5.375 12.88 7.145 12.19 8.915C11.5 10.685 10.78 12.38 10.03 14H8.215ZM21.8887 10.07C21.8887 10.69 21.7987 11.255 21.6187 11.765C21.4387 12.275 21.1837 12.71 20.8537 13.07C20.5237 13.43 20.1237 13.71 19.6537 13.91C19.1937 14.11 18.6837 14.21 18.1237 14.21C17.5637 14.21 17.0537 14.11 16.5937 13.91C16.1337 13.71 15.7387 13.43 15.4087 13.07C15.0787 12.71 14.8187 12.275 14.6287 11.765C14.4487 11.255 14.3587 10.69 14.3587 10.07C14.3587 9.45 14.4487 8.89 14.6287 8.39C14.8187 7.88 15.0787 7.445 15.4087 7.085C15.7487 6.725 16.1487 6.45 16.6087 6.26C17.0687 6.06 17.5737 5.96 18.1237 5.96C18.6737 5.96 19.1787 6.06 19.6387 6.26C20.1087 6.45 20.5087 6.725 20.8387 7.085C21.1687 7.445 21.4237 7.88 21.6037 8.39C21.7937 8.89 21.8887 9.45 21.8887 10.07ZM20.0287 10.07C20.0287 9.29 19.8587 8.675 19.5187 8.225C19.1887 7.765 18.7237 7.535 18.1237 7.535C17.5237 7.535 17.0537 7.765 16.7137 8.225C16.3837 8.675 16.2187 9.29 16.2187 10.07C16.2187 10.86 16.3837 11.485 16.7137 11.945C17.0537 12.405 17.5237 12.635 18.1237 12.635C18.7237 12.635 19.1887 12.405 19.5187 11.945C19.8587 11.485 20.0287 10.86 20.0287 10.07ZM26.4885 14.15C25.9485 14.14 25.4985 14.08 25.1385 13.97C24.7885 13.86 24.5085 13.705 24.2985 13.505C24.0885 13.295 23.9385 13.04 23.8485 12.74C23.7685 12.43 23.7285 12.08 23.7285 11.69V2.66L25.5435 2.36V11.345C25.5435 11.565 25.5585 11.75 25.5885 11.9C25.6285 12.05 25.6935 12.18 25.7835 12.29C25.8735 12.39 25.9935 12.47 26.1435 12.53C26.3035 12.58 26.5035 12.62 26.7435 12.65L26.4885 14.15ZM34.6466 13.76C34.2966 13.85 33.8416 13.94 33.2816 14.03C32.7216 14.13 32.1066 14.18 31.4366 14.18C30.8066 14.18 30.2766 14.09 29.8466 13.91C29.4266 13.73 29.0866 13.48 28.8266 13.16C28.5766 12.84 28.3966 12.46 28.2866 12.02C28.1766 11.57 28.1216 11.08 28.1216 10.55V6.155H29.9366V10.265C29.9366 11.105 30.0566 11.705 30.2966 12.065C30.5466 12.425 30.9766 12.605 31.5866 12.605C31.8066 12.605 32.0366 12.595 32.2766 12.575C32.5266 12.555 32.7116 12.53 32.8316 12.5V6.155H34.6466V13.76ZM41.4268 9.875C41.4268 9.055 41.3218 8.465 41.1118 8.105C40.9118 7.735 40.5318 7.55 39.9718 7.55C39.7718 7.55 39.5518 7.565 39.3118 7.595C39.0718 7.625 38.8918 7.65 38.7718 7.67V14H36.9568V6.41C37.3068 6.31 37.7618 6.215 38.3218 6.125C38.8918 6.035 39.4918 5.99 40.1218 5.99C40.6618 5.99 41.1018 6.06 41.4418 6.2C41.7918 6.34 42.0818 6.525 42.3118 6.755C42.4218 6.675 42.5618 6.59 42.7318 6.5C42.9018 6.41 43.0918 6.33 43.3018 6.26C43.5118 6.18 43.7318 6.115 43.9618 6.065C44.2018 6.015 44.4418 5.99 44.6818 5.99C45.2918 5.99 45.7918 6.08 46.1818 6.26C46.5818 6.43 46.8918 6.675 47.1118 6.995C47.3418 7.305 47.4968 7.685 47.5768 8.135C47.6668 8.575 47.7118 9.06 47.7118 9.59V14H45.8968V9.875C45.8968 9.055 45.7968 8.465 45.5968 8.105C45.3968 7.735 45.0118 7.55 44.4418 7.55C44.1518 7.55 43.8768 7.6 43.6168 7.7C43.3568 7.79 43.1618 7.88 43.0318 7.97C43.1118 8.22 43.1668 8.485 43.1968 8.765C43.2268 9.045 43.2418 9.345 43.2418 9.665V14H41.4268V9.875ZM49.5003 10.115C49.5003 9.425 49.6003 8.82 49.8003 8.3C50.0103 7.78 50.2853 7.35 50.6253 7.01C50.9653 6.66 51.3553 6.4 51.7953 6.23C52.2353 6.05 52.6853 5.96 53.1453 5.96C54.2253 5.96 55.0653 6.295 55.6653 6.965C56.2753 7.635 56.5803 8.635 56.5803 9.965C56.5803 10.065 56.5753 10.18 56.5653 10.31C56.5653 10.43 56.5603 10.54 56.5503 10.64H51.3753C51.4253 11.27 51.6453 11.76 52.0353 12.11C52.4353 12.45 53.0103 12.62 53.7603 12.62C54.2003 12.62 54.6003 12.58 54.9603 12.5C55.3303 12.42 55.6203 12.335 55.8303 12.245L56.0703 13.73C55.9703 13.78 55.8303 13.835 55.6503 13.895C55.4803 13.945 55.2803 13.99 55.0503 14.03C54.8303 14.08 54.5903 14.12 54.3303 14.15C54.0703 14.18 53.8053 14.195 53.5353 14.195C52.8453 14.195 52.2453 14.095 51.7353 13.895C51.2253 13.685 50.8053 13.4 50.4753 13.04C50.1453 12.67 49.9003 12.24 49.7403 11.75C49.5803 11.25 49.5003 10.705 49.5003 10.115ZM54.7653 9.305C54.7653 9.055 54.7303 8.82 54.6603 8.6C54.5903 8.37 54.4853 8.175 54.3453 8.015C54.2153 7.845 54.0503 7.715 53.8503 7.625C53.6603 7.525 53.4303 7.475 53.1603 7.475C52.8803 7.475 52.6353 7.53 52.4253 7.64C52.2153 7.74 52.0353 7.875 51.8853 8.045C51.7453 8.215 51.6353 8.41 51.5553 8.63C51.4753 8.85 51.4203 9.075 51.3903 9.305H54.7653Z" fill="#5C5C5C"/>
<path d="M32 22V252.769" stroke="#5C5C5C" stroke-width="2"/>
<path d="M1.17 208.863C1.67267 208.664 2.17533 208.408 2.678 208.096C3.18933 207.784 3.64 207.416 4.03 206.991H5.135V216H3.562V209.097C3.328 209.279 3.03333 209.457 2.678 209.63C2.32267 209.803 1.98033 209.946 1.651 210.059L1.17 208.863ZM14.2137 211.489C14.2137 213.006 13.9363 214.171 13.3817 214.986C12.827 215.792 12.06 216.195 11.0807 216.195C10.1013 216.195 9.33434 215.792 8.77967 214.986C8.22501 214.171 7.94767 213.006 7.94767 211.489C7.94767 210.735 8.01701 210.068 8.15567 209.487C8.30301 208.898 8.51101 208.404 8.77967 208.005C9.05701 207.606 9.38634 207.303 9.76767 207.095C10.1577 206.887 10.5953 206.783 11.0807 206.783C12.06 206.783 12.827 207.19 13.3817 208.005C13.9363 208.811 14.2137 209.972 14.2137 211.489ZM12.5887 211.489C12.5887 211.021 12.5627 210.583 12.5107 210.176C12.4587 209.769 12.372 209.418 12.2507 209.123C12.138 208.82 11.9863 208.581 11.7957 208.408C11.605 208.235 11.3667 208.148 11.0807 208.148C10.7947 208.148 10.552 208.235 10.3527 208.408C10.162 208.581 10.006 208.82 9.88467 209.123C9.77201 209.418 9.68967 209.769 9.63767 210.176C9.59434 210.583 9.57267 211.021 9.57267 211.489C9.57267 211.957 9.59434 212.395 9.63767 212.802C9.68967 213.209 9.77201 213.565 9.88467 213.868C10.006 214.163 10.162 214.397 10.3527 214.57C10.552 214.743 10.7947 214.83 11.0807 214.83C11.3667 214.83 11.605 214.743 11.7957 214.57C11.9863 214.397 12.138 214.163 12.2507 213.868C12.372 213.565 12.4587 213.209 12.5107 212.802C12.5627 212.395 12.5887 211.957 12.5887 211.489ZM21.6023 211.489C21.6023 213.006 21.325 214.171 20.7703 214.986C20.2157 215.792 19.4487 216.195 18.4693 216.195C17.49 216.195 16.723 215.792 16.1683 214.986C15.6137 214.171 15.3363 213.006 15.3363 211.489C15.3363 210.735 15.4057 210.068 15.5443 209.487C15.6917 208.898 15.8997 208.404 16.1683 208.005C16.4457 207.606 16.775 207.303 17.1563 207.095C17.5463 206.887 17.984 206.783 18.4693 206.783C19.4487 206.783 20.2157 207.19 20.7703 208.005C21.325 208.811 21.6023 209.972 21.6023 211.489ZM19.9773 211.489C19.9773 211.021 19.9513 210.583 19.8993 210.176C19.8473 209.769 19.7607 209.418 19.6393 209.123C19.5267 208.82 19.375 208.581 19.1843 208.408C18.9937 208.235 18.7553 208.148 18.4693 208.148C18.1833 208.148 17.9407 208.235 17.7413 208.408C17.5507 208.581 17.3947 208.82 17.2733 209.123C17.1607 209.418 17.0783 209.769 17.0263 210.176C16.983 210.583 16.9613 211.021 16.9613 211.489C16.9613 211.957 16.983 212.395 17.0263 212.802C17.0783 213.209 17.1607 213.565 17.2733 213.868C17.3947 214.163 17.5507 214.397 17.7413 214.57C17.9407 214.743 18.1833 214.83 18.4693 214.83C18.7553 214.83 18.9937 214.743 19.1843 214.57C19.375 214.397 19.5267 214.163 19.6393 213.868C19.7607 213.565 19.8473 213.209 19.8993 212.802C19.9513 212.395 19.9773 211.957 19.9773 211.489Z" fill="#5C5C5C"/>
<path d="M6.253 168.331C6.253 168.643 6.188 168.951 6.058 169.254C5.928 169.549 5.759 169.839 5.551 170.125C5.35167 170.402 5.122 170.675 4.862 170.944C4.602 171.204 4.342 171.46 4.082 171.711C3.94333 171.841 3.78733 171.997 3.614 172.179C3.44067 172.361 3.276 172.543 3.12 172.725C2.964 172.907 2.82967 173.085 2.717 173.258C2.60433 173.423 2.54367 173.561 2.535 173.674H6.539V175H0.806C0.797333 174.931 0.793 174.848 0.793 174.753C0.793 174.649 0.793 174.571 0.793 174.519C0.793 174.103 0.858 173.722 0.988 173.375C1.12667 173.02 1.30433 172.69 1.521 172.387C1.73767 172.084 1.98033 171.798 2.249 171.529C2.51767 171.26 2.78633 170.996 3.055 170.736C3.263 170.537 3.46233 170.342 3.653 170.151C3.84367 169.96 4.00833 169.774 4.147 169.592C4.29433 169.401 4.41133 169.211 4.498 169.02C4.58467 168.821 4.628 168.617 4.628 168.409C4.628 167.958 4.498 167.638 4.238 167.447C3.978 167.256 3.66167 167.161 3.289 167.161C3.04633 167.161 2.821 167.196 2.613 167.265C2.405 167.334 2.21867 167.417 2.054 167.512C1.898 167.607 1.75933 167.707 1.638 167.811C1.51667 167.906 1.42567 167.984 1.365 168.045L0.585 166.94C0.949 166.593 1.37367 166.316 1.859 166.108C2.353 165.891 2.88167 165.783 3.445 165.783C4.407 165.783 5.11333 166.013 5.564 166.472C6.02333 166.923 6.253 167.542 6.253 168.331ZM14.2137 170.489C14.2137 172.006 13.9363 173.171 13.3817 173.986C12.827 174.792 12.06 175.195 11.0807 175.195C10.1013 175.195 9.33434 174.792 8.77967 173.986C8.22501 173.171 7.94767 172.006 7.94767 170.489C7.94767 169.735 8.01701 169.068 8.15567 168.487C8.30301 167.898 8.51101 167.404 8.77967 167.005C9.05701 166.606 9.38634 166.303 9.76767 166.095C10.1577 165.887 10.5953 165.783 11.0807 165.783C12.06 165.783 12.827 166.19 13.3817 167.005C13.9363 167.811 14.2137 168.972 14.2137 170.489ZM12.5887 170.489C12.5887 170.021 12.5627 169.583 12.5107 169.176C12.4587 168.769 12.372 168.418 12.2507 168.123C12.138 167.82 11.9863 167.581 11.7957 167.408C11.605 167.235 11.3667 167.148 11.0807 167.148C10.7947 167.148 10.552 167.235 10.3527 167.408C10.162 167.581 10.006 167.82 9.88467 168.123C9.77201 168.418 9.68967 168.769 9.63767 169.176C9.59434 169.583 9.57267 170.021 9.57267 170.489C9.57267 170.957 9.59434 171.395 9.63767 171.802C9.68967 172.209 9.77201 172.565 9.88467 172.868C10.006 173.163 10.162 173.397 10.3527 173.57C10.552 173.743 10.7947 173.83 11.0807 173.83C11.3667 173.83 11.605 173.743 11.7957 173.57C11.9863 173.397 12.138 173.163 12.2507 172.868C12.372 172.565 12.4587 172.209 12.5107 171.802C12.5627 171.395 12.5887 170.957 12.5887 170.489ZM21.6023 170.489C21.6023 172.006 21.325 173.171 20.7703 173.986C20.2157 174.792 19.4487 175.195 18.4693 175.195C17.49 175.195 16.723 174.792 16.1683 173.986C15.6137 173.171 15.3363 172.006 15.3363 170.489C15.3363 169.735 15.4057 169.068 15.5443 168.487C15.6917 167.898 15.8997 167.404 16.1683 167.005C16.4457 166.606 16.775 166.303 17.1563 166.095C17.5463 165.887 17.984 165.783 18.4693 165.783C19.4487 165.783 20.2157 166.19 20.7703 167.005C21.325 167.811 21.6023 168.972 21.6023 170.489ZM19.9773 170.489C19.9773 170.021 19.9513 169.583 19.8993 169.176C19.8473 168.769 19.7607 168.418 19.6393 168.123C19.5267 167.82 19.375 167.581 19.1843 167.408C18.9937 167.235 18.7553 167.148 18.4693 167.148C18.1833 167.148 17.9407 167.235 17.7413 167.408C17.5507 167.581 17.3947 167.82 17.2733 168.123C17.1607 168.418 17.0783 168.769 17.0263 169.176C16.983 169.583 16.9613 170.021 16.9613 170.489C16.9613 170.957 16.983 171.395 17.0263 171.802C17.0783 172.209 17.1607 172.565 17.2733 172.868C17.3947 173.163 17.5507 173.397 17.7413 173.57C17.9407 173.743 18.1833 173.83 18.4693 173.83C18.7553 173.83 18.9937 173.743 19.1843 173.57C19.375 173.397 19.5267 173.163 19.6393 172.868C19.7607 172.565 19.8473 172.209 19.8993 171.802C19.9513 171.395 19.9773 170.957 19.9773 170.489Z" fill="#5C5C5C"/>
<path d="M5.068 135.195C4.834 135.195 4.59133 135.178 4.34 135.143C4.09733 135.117 3.86333 135.078 3.638 135.026C3.42133 134.983 3.222 134.935 3.04 134.883C2.858 134.822 2.71933 134.766 2.624 134.714L2.936 133.375C3.118 133.462 3.38233 133.561 3.729 133.674C4.07567 133.778 4.50467 133.83 5.016 133.83C5.70067 133.83 6.19467 133.7 6.498 133.44C6.80133 133.171 6.953 132.816 6.953 132.374C6.953 132.088 6.89233 131.85 6.771 131.659C6.65833 131.468 6.498 131.317 6.29 131.204C6.09067 131.083 5.85667 131 5.588 130.957C5.328 130.905 5.05067 130.879 4.756 130.879H4.223V129.605H4.873C5.07233 129.605 5.27167 129.588 5.471 129.553C5.679 129.51 5.86533 129.44 6.03 129.345C6.19467 129.241 6.329 129.107 6.433 128.942C6.537 128.777 6.589 128.565 6.589 128.305C6.589 128.097 6.55 127.919 6.472 127.772C6.394 127.625 6.29 127.503 6.16 127.408C6.03867 127.313 5.89567 127.243 5.731 127.2C5.56633 127.157 5.393 127.135 5.211 127.135C4.821 127.135 4.47433 127.196 4.171 127.317C3.86767 127.43 3.599 127.56 3.365 127.707L2.793 126.537C2.91433 126.459 3.06167 126.377 3.235 126.29C3.40833 126.203 3.599 126.121 3.807 126.043C4.02367 125.965 4.25333 125.904 4.496 125.861C4.73867 125.809 4.99433 125.783 5.263 125.783C5.76567 125.783 6.199 125.844 6.563 125.965C6.927 126.086 7.226 126.26 7.46 126.485C7.70267 126.702 7.88033 126.962 7.993 127.265C8.11433 127.56 8.175 127.885 8.175 128.24C8.175 128.656 8.058 129.029 7.824 129.358C7.59867 129.687 7.304 129.939 6.94 130.112C7.408 130.277 7.79367 130.55 8.097 130.931C8.409 131.312 8.565 131.802 8.565 132.4C8.565 132.799 8.49567 133.171 8.357 133.518C8.21833 133.856 8.006 134.151 7.72 134.402C7.434 134.645 7.07 134.84 6.628 134.987C6.19467 135.126 5.67467 135.195 5.068 135.195ZM16.2137 130.489C16.2137 132.006 15.9363 133.171 15.3817 133.986C14.827 134.792 14.06 135.195 13.0807 135.195C12.1013 135.195 11.3343 134.792 10.7797 133.986C10.225 133.171 9.94767 132.006 9.94767 130.489C9.94767 129.735 10.017 129.068 10.1557 128.487C10.303 127.898 10.511 127.404 10.7797 127.005C11.057 126.606 11.3863 126.303 11.7677 126.095C12.1577 125.887 12.5953 125.783 13.0807 125.783C14.06 125.783 14.827 126.19 15.3817 127.005C15.9363 127.811 16.2137 128.972 16.2137 130.489ZM14.5887 130.489C14.5887 130.021 14.5627 129.583 14.5107 129.176C14.4587 128.769 14.372 128.418 14.2507 128.123C14.138 127.82 13.9863 127.581 13.7957 127.408C13.605 127.235 13.3667 127.148 13.0807 127.148C12.7947 127.148 12.552 127.235 12.3527 127.408C12.162 127.581 12.006 127.82 11.8847 128.123C11.772 128.418 11.6897 128.769 11.6377 129.176C11.5943 129.583 11.5727 130.021 11.5727 130.489C11.5727 130.957 11.5943 131.395 11.6377 131.802C11.6897 132.209 11.772 132.565 11.8847 132.868C12.006 133.163 12.162 133.397 12.3527 133.57C12.552 133.743 12.7947 133.83 13.0807 133.83C13.3667 133.83 13.605 133.743 13.7957 133.57C13.9863 133.397 14.138 133.163 14.2507 132.868C14.372 132.565 14.4587 132.209 14.5107 131.802C14.5627 131.395 14.5887 130.957 14.5887 130.489ZM23.6023 130.489C23.6023 132.006 23.325 133.171 22.7703 133.986C22.2157 134.792 21.4487 135.195 20.4693 135.195C19.49 135.195 18.723 134.792 18.1683 133.986C17.6137 133.171 17.3363 132.006 17.3363 130.489C17.3363 129.735 17.4057 129.068 17.5443 128.487C17.6917 127.898 17.8997 127.404 18.1683 127.005C18.4457 126.606 18.775 126.303 19.1563 126.095C19.5463 125.887 19.984 125.783 20.4693 125.783C21.4487 125.783 22.2157 126.19 22.7703 127.005C23.325 127.811 23.6023 128.972 23.6023 130.489ZM21.9773 130.489C21.9773 130.021 21.9513 129.583 21.8993 129.176C21.8473 128.769 21.7607 128.418 21.6393 128.123C21.5267 127.82 21.375 127.581 21.1843 127.408C20.9937 127.235 20.7553 127.148 20.4693 127.148C20.1833 127.148 19.9407 127.235 19.7413 127.408C19.5507 127.581 19.3947 127.82 19.2733 128.123C19.1607 128.418 19.0783 128.769 19.0263 129.176C18.983 129.583 18.9613 130.021 18.9613 130.489C18.9613 130.957 18.983 131.395 19.0263 131.802C19.0783 132.209 19.1607 132.565 19.2733 132.868C19.3947 133.163 19.5507 133.397 19.7413 133.57C19.9407 133.743 20.1833 133.83 20.4693 133.83C20.7553 133.83 20.9937 133.743 21.1843 133.57C21.375 133.397 21.5267 133.163 21.6393 132.868C21.7607 132.565 21.8473 132.209 21.8993 131.802C21.9513 131.395 21.9773 130.957 21.9773 130.489Z" fill="#5C5C5C"/>
<path d="M6.979 52.426C6.979 52.14 6.92267 51.8843 6.81 51.659C6.69733 51.4337 6.498 51.243 6.212 51.087C5.93467 50.931 5.55767 50.814 5.081 50.736C4.613 50.658 4.01933 50.619 3.3 50.619C3.39533 49.787 3.469 48.9983 3.521 48.253C3.573 47.499 3.61633 46.745 3.651 45.991H8.253V47.317H4.99C4.98133 47.4643 4.96833 47.6333 4.951 47.824C4.94233 48.006 4.92933 48.1923 4.912 48.383C4.90333 48.5737 4.89033 48.7557 4.873 48.929C4.85567 49.1023 4.83833 49.2497 4.821 49.371C6.10367 49.4403 7.04833 49.735 7.655 50.255C8.27033 50.7663 8.578 51.4683 8.578 52.361C8.578 52.7683 8.50867 53.1453 8.37 53.492C8.23133 53.8387 8.019 54.1377 7.733 54.389C7.447 54.6403 7.08733 54.8397 6.654 54.987C6.22067 55.1257 5.71367 55.195 5.133 55.195C4.899 55.195 4.66067 55.1777 4.418 55.143C4.17533 55.1083 3.94133 55.065 3.716 55.013C3.49933 54.9697 3.30433 54.922 3.131 54.87C2.95767 54.818 2.82767 54.7703 2.741 54.727L3.04 53.401C3.222 53.4877 3.482 53.583 3.82 53.687C4.16667 53.7823 4.587 53.83 5.081 53.83C5.419 53.83 5.70933 53.7953 5.952 53.726C6.19467 53.648 6.38967 53.544 6.537 53.414C6.693 53.284 6.80567 53.1367 6.875 52.972C6.94433 52.7987 6.979 52.6167 6.979 52.426ZM16.2137 50.489C16.2137 52.0057 15.9363 53.1713 15.3817 53.986C14.827 54.792 14.06 55.195 13.0807 55.195C12.1013 55.195 11.3343 54.792 10.7797 53.986C10.225 53.1713 9.94767 52.0057 9.94767 50.489C9.94767 49.735 10.017 49.0677 10.1557 48.487C10.303 47.8977 10.511 47.4037 10.7797 47.005C11.057 46.6063 11.3863 46.303 11.7677 46.095C12.1577 45.887 12.5953 45.783 13.0807 45.783C14.06 45.783 14.827 46.1903 15.3817 47.005C15.9363 47.811 16.2137 48.9723 16.2137 50.489ZM14.5887 50.489C14.5887 50.021 14.5627 49.5833 14.5107 49.176C14.4587 48.7687 14.372 48.4177 14.2507 48.123C14.138 47.8197 13.9863 47.5813 13.7957 47.408C13.605 47.2347 13.3667 47.148 13.0807 47.148C12.7947 47.148 12.552 47.2347 12.3527 47.408C12.162 47.5813 12.006 47.8197 11.8847 48.123C11.772 48.4177 11.6897 48.7687 11.6377 49.176C11.5943 49.5833 11.5727 50.021 11.5727 50.489C11.5727 50.957 11.5943 51.3947 11.6377 51.802C11.6897 52.2093 11.772 52.5647 11.8847 52.868C12.006 53.1627 12.162 53.3967 12.3527 53.57C12.552 53.7433 12.7947 53.83 13.0807 53.83C13.3667 53.83 13.605 53.7433 13.7957 53.57C13.9863 53.3967 14.138 53.1627 14.2507 52.868C14.372 52.5647 14.4587 52.2093 14.5107 51.802C14.5627 51.3947 14.5887 50.957 14.5887 50.489ZM23.6023 50.489C23.6023 52.0057 23.325 53.1713 22.7703 53.986C22.2157 54.792 21.4487 55.195 20.4693 55.195C19.49 55.195 18.723 54.792 18.1683 53.986C17.6137 53.1713 17.3363 52.0057 17.3363 50.489C17.3363 49.735 17.4057 49.0677 17.5443 48.487C17.6917 47.8977 17.8997 47.4037 18.1683 47.005C18.4457 46.6063 18.775 46.303 19.1563 46.095C19.5463 45.887 19.984 45.783 20.4693 45.783C21.4487 45.783 22.2157 46.1903 22.7703 47.005C23.325 47.811 23.6023 48.9723 23.6023 50.489ZM21.9773 50.489C21.9773 50.021 21.9513 49.5833 21.8993 49.176C21.8473 48.7687 21.7607 48.4177 21.6393 48.123C21.5267 47.8197 21.375 47.5813 21.1843 47.408C20.9937 47.2347 20.7553 47.148 20.4693 47.148C20.1833 47.148 19.9407 47.2347 19.7413 47.408C19.5507 47.5813 19.3947 47.8197 19.2733 48.123C19.1607 48.4177 19.0783 48.7687 19.0263 49.176C18.983 49.5833 18.9613 50.021 18.9613 50.489C18.9613 50.957 18.983 51.3947 19.0263 51.802C19.0783 52.2093 19.1607 52.5647 19.2733 52.868C19.3947 53.1627 19.5507 53.3967 19.7413 53.57C19.9407 53.7433 20.1833 53.83 20.4693 53.83C20.7553 53.83 20.9937 53.7433 21.1843 53.57C21.375 53.3967 21.5267 53.1627 21.6393 52.868C21.7607 52.5647 21.8473 52.2093 21.8993 51.802C21.9513 51.3947 21.9773 50.957 21.9773 50.489Z" fill="#5C5C5C"/>
<path d="M6.381 88.928C6.173 89.1793 5.95633 89.448 5.731 89.734C5.51433 90.02 5.302 90.319 5.094 90.631C4.886 90.943 4.68667 91.2637 4.496 91.593C4.30533 91.9137 4.132 92.2343 3.976 92.555H6.381V88.928ZM7.915 86.991V92.555H8.929V93.842H7.915V96H6.381V93.842H2.429V92.724C2.60233 92.3427 2.832 91.905 3.118 91.411C3.41267 90.917 3.73767 90.41 4.093 89.89C4.44833 89.37 4.82533 88.8587 5.224 88.356C5.62267 87.8533 6.02133 87.3983 6.42 86.991H7.915ZM16.2137 91.489C16.2137 93.0057 15.9363 94.1713 15.3817 94.986C14.827 95.792 14.06 96.195 13.0807 96.195C12.1013 96.195 11.3343 95.792 10.7797 94.986C10.225 94.1713 9.94767 93.0057 9.94767 91.489C9.94767 90.735 10.017 90.0677 10.1557 89.487C10.303 88.8977 10.511 88.4037 10.7797 88.005C11.057 87.6063 11.3863 87.303 11.7677 87.095C12.1577 86.887 12.5953 86.783 13.0807 86.783C14.06 86.783 14.827 87.1903 15.3817 88.005C15.9363 88.811 16.2137 89.9723 16.2137 91.489ZM14.5887 91.489C14.5887 91.021 14.5627 90.5833 14.5107 90.176C14.4587 89.7687 14.372 89.4177 14.2507 89.123C14.138 88.8197 13.9863 88.5813 13.7957 88.408C13.605 88.2347 13.3667 88.148 13.0807 88.148C12.7947 88.148 12.552 88.2347 12.3527 88.408C12.162 88.5813 12.006 88.8197 11.8847 89.123C11.772 89.4177 11.6897 89.7687 11.6377 90.176C11.5943 90.5833 11.5727 91.021 11.5727 91.489C11.5727 91.957 11.5943 92.3947 11.6377 92.802C11.6897 93.2093 11.772 93.5647 11.8847 93.868C12.006 94.1627 12.162 94.3967 12.3527 94.57C12.552 94.7433 12.7947 94.83 13.0807 94.83C13.3667 94.83 13.605 94.7433 13.7957 94.57C13.9863 94.3967 14.138 94.1627 14.2507 93.868C14.372 93.5647 14.4587 93.2093 14.5107 92.802C14.5627 92.3947 14.5887 91.957 14.5887 91.489ZM23.6023 91.489C23.6023 93.0057 23.325 94.1713 22.7703 94.986C22.2157 95.792 21.4487 96.195 20.4693 96.195C19.49 96.195 18.723 95.792 18.1683 94.986C17.6137 94.1713 17.3363 93.0057 17.3363 91.489C17.3363 90.735 17.4057 90.0677 17.5443 89.487C17.6917 88.8977 17.8997 88.4037 18.1683 88.005C18.4457 87.6063 18.775 87.303 19.1563 87.095C19.5463 86.887 19.984 86.783 20.4693 86.783C21.4487 86.783 22.2157 87.1903 22.7703 88.005C23.325 88.811 23.6023 89.9723 23.6023 91.489ZM21.9773 91.489C21.9773 91.021 21.9513 90.5833 21.8993 90.176C21.8473 89.7687 21.7607 89.4177 21.6393 89.123C21.5267 88.8197 21.375 88.5813 21.1843 88.408C20.9937 88.2347 20.7553 88.148 20.4693 88.148C20.1833 88.148 19.9407 88.2347 19.7413 88.408C19.5507 88.5813 19.3947 88.8197 19.2733 89.123C19.1607 89.4177 19.0783 89.7687 19.0263 90.176C18.983 90.5833 18.9613 91.021 18.9613 91.489C18.9613 91.957 18.983 92.3947 19.0263 92.802C19.0783 93.2093 19.1607 93.5647 19.2733 93.868C19.3947 94.1627 19.5507 94.3967 19.7413 94.57C19.9407 94.7433 20.1833 94.83 20.4693 94.83C20.7553 94.83 20.9937 94.7433 21.1843 94.57C21.375 94.3967 21.5267 94.1627 21.6393 93.868C21.7607 93.5647 21.8473 93.2093 21.8993 92.802C21.9513 92.3947 21.9773 91.957 21.9773 91.489Z" fill="#5C5C5C"/>
<path d="M18.8328 247.305C18.8328 248.822 18.5555 249.987 18.0008 250.802C17.4461 251.608 16.6791 252.011 15.6998 252.011C14.7205 252.011 13.9535 251.608 13.3988 250.802C12.8441 249.987 12.5668 248.822 12.5668 247.305C12.5668 246.551 12.6361 245.884 12.7748 245.303C12.9221 244.714 13.1301 244.22 13.3988 243.821C13.6761 243.422 14.0055 243.119 14.3868 242.911C14.7768 242.703 15.2145 242.599 15.6998 242.599C16.6791 242.599 17.4461 243.006 18.0008 243.821C18.5555 244.627 18.8328 245.788 18.8328 247.305ZM17.2078 247.305C17.2078 246.837 17.1818 246.399 17.1298 245.992C17.0778 245.585 16.9911 245.234 16.8698 244.939C16.7571 244.636 16.6055 244.397 16.4148 244.224C16.2241 244.051 15.9858 243.964 15.6998 243.964C15.4138 243.964 15.1711 244.051 14.9718 244.224C14.7811 244.397 14.6251 244.636 14.5038 244.939C14.3911 245.234 14.3088 245.585 14.2568 245.992C14.2135 246.399 14.1918 246.837 14.1918 247.305C14.1918 247.773 14.2135 248.211 14.2568 248.618C14.3088 249.025 14.3911 249.381 14.5038 249.684C14.6251 249.979 14.7811 250.213 14.9718 250.386C15.1711 250.559 15.4138 250.646 15.6998 250.646C15.9858 250.646 16.2241 250.559 16.4148 250.386C16.6055 250.213 16.7571 249.979 16.8698 249.684C16.9911 249.381 17.0778 249.025 17.1298 248.618C17.1818 248.211 17.2078 247.773 17.2078 247.305Z" fill="#5C5C5C"/>
<path d="M27.381 266.928C27.173 267.179 26.9563 267.448 26.731 267.734C26.5143 268.02 26.302 268.319 26.094 268.631C25.886 268.943 25.6867 269.264 25.496 269.593C25.3053 269.914 25.132 270.234 24.976 270.555H27.381V266.928ZM28.915 264.991V270.555H29.929V271.842H28.915V274H27.381V271.842H23.429V270.724C23.6023 270.343 23.832 269.905 24.118 269.411C24.4127 268.917 24.7377 268.41 25.093 267.89C25.4483 267.37 25.8253 266.859 26.224 266.356C26.6227 265.853 27.0213 265.398 27.42 264.991H28.915ZM37.2137 269.489C37.2137 271.006 36.9363 272.171 36.3817 272.986C35.827 273.792 35.06 274.195 34.0807 274.195C33.1013 274.195 32.3343 273.792 31.7797 272.986C31.225 272.171 30.9477 271.006 30.9477 269.489C30.9477 268.735 31.017 268.068 31.1557 267.487C31.303 266.898 31.511 266.404 31.7797 266.005C32.057 265.606 32.3863 265.303 32.7677 265.095C33.1577 264.887 33.5953 264.783 34.0807 264.783C35.06 264.783 35.827 265.19 36.3817 266.005C36.9363 266.811 37.2137 267.972 37.2137 269.489ZM35.5887 269.489C35.5887 269.021 35.5627 268.583 35.5107 268.176C35.4587 267.769 35.372 267.418 35.2507 267.123C35.138 266.82 34.9863 266.581 34.7957 266.408C34.605 266.235 34.3667 266.148 34.0807 266.148C33.7947 266.148 33.552 266.235 33.3527 266.408C33.162 266.581 33.006 266.82 32.8847 267.123C32.772 267.418 32.6897 267.769 32.6377 268.176C32.5943 268.583 32.5727 269.021 32.5727 269.489C32.5727 269.957 32.5943 270.395 32.6377 270.802C32.6897 271.209 32.772 271.565 32.8847 271.868C33.006 272.163 33.162 272.397 33.3527 272.57C33.552 272.743 33.7947 272.83 34.0807 272.83C34.3667 272.83 34.605 272.743 34.7957 272.57C34.9863 272.397 35.138 272.163 35.2507 271.868C35.372 271.565 35.4587 271.209 35.5107 270.802C35.5627 270.395 35.5887 269.957 35.5887 269.489ZM44.6023 269.489C44.6023 271.006 44.325 272.171 43.7703 272.986C43.2157 273.792 42.4487 274.195 41.4693 274.195C40.49 274.195 39.723 273.792 39.1683 272.986C38.6137 272.171 38.3363 271.006 38.3363 269.489C38.3363 268.735 38.4057 268.068 38.5443 267.487C38.6917 266.898 38.8997 266.404 39.1683 266.005C39.4457 265.606 39.775 265.303 40.1563 265.095C40.5463 264.887 40.984 264.783 41.4693 264.783C42.4487 264.783 43.2157 265.19 43.7703 266.005C44.325 266.811 44.6023 267.972 44.6023 269.489ZM42.9773 269.489C42.9773 269.021 42.9513 268.583 42.8993 268.176C42.8473 267.769 42.7607 267.418 42.6393 267.123C42.5267 266.82 42.375 266.581 42.1843 266.408C41.9937 266.235 41.7553 266.148 41.4693 266.148C41.1833 266.148 40.9407 266.235 40.7413 266.408C40.5507 266.581 40.3947 266.82 40.2733 267.123C40.1607 267.418 40.0783 267.769 40.0263 268.176C39.983 268.583 39.9613 269.021 39.9613 269.489C39.9613 269.957 39.983 270.395 40.0263 270.802C40.0783 271.209 40.1607 271.565 40.2733 271.868C40.3947 272.163 40.5507 272.397 40.7413 272.57C40.9407 272.743 41.1833 272.83 41.4693 272.83C41.7553 272.83 41.9937 272.743 42.1843 272.57C42.375 272.397 42.5267 272.163 42.6393 271.868C42.7607 271.565 42.8473 271.209 42.8993 270.802C42.9513 270.395 42.9773 269.957 42.9773 269.489ZM51.991 269.489C51.991 271.006 51.7137 272.171 51.159 272.986C50.6043 273.792 49.8373 274.195 48.858 274.195C47.8787 274.195 47.1117 273.792 46.557 272.986C46.0023 272.171 45.725 271.006 45.725 269.489C45.725 268.735 45.7943 268.068 45.933 267.487C46.0803 266.898 46.2883 266.404 46.557 266.005C46.8343 265.606 47.1637 265.303 47.545 265.095C47.935 264.887 48.3727 264.783 48.858 264.783C49.8373 264.783 50.6043 265.19 51.159 266.005C51.7137 266.811 51.991 267.972 51.991 269.489ZM50.366 269.489C50.366 269.021 50.34 268.583 50.288 268.176C50.236 267.769 50.1493 267.418 50.028 267.123C49.9153 266.82 49.7637 266.581 49.573 266.408C49.3823 266.235 49.144 266.148 48.858 266.148C48.572 266.148 48.3293 266.235 48.13 266.408C47.9393 266.581 47.7833 266.82 47.662 267.123C47.5493 267.418 47.467 267.769 47.415 268.176C47.3717 268.583 47.35 269.021 47.35 269.489C47.35 269.957 47.3717 270.395 47.415 270.802C47.467 271.209 47.5493 271.565 47.662 271.868C47.7833 272.163 47.9393 272.397 48.13 272.57C48.3293 272.743 48.572 272.83 48.858 272.83C49.144 272.83 49.3823 272.743 49.573 272.57C49.7637 272.397 49.9153 272.163 50.028 271.868C50.1493 271.565 50.236 271.209 50.288 270.802C50.34 270.395 50.366 269.957 50.366 269.489Z" fill="#5C5C5C"/>
<path d="M116.381 265.928C116.173 266.179 115.956 266.448 115.731 266.734C115.514 267.02 115.302 267.319 115.094 267.631C114.886 267.943 114.687 268.264 114.496 268.593C114.305 268.914 114.132 269.234 113.976 269.555H116.381V265.928ZM117.915 263.991V269.555H118.929V270.842H117.915V273H116.381V270.842H112.429V269.724C112.602 269.343 112.832 268.905 113.118 268.411C113.413 267.917 113.738 267.41 114.093 266.89C114.448 266.37 114.825 265.859 115.224 265.356C115.623 264.853 116.021 264.398 116.42 263.991H117.915ZM126.214 268.489C126.214 270.006 125.936 271.171 125.382 271.986C124.827 272.792 124.06 273.195 123.081 273.195C122.101 273.195 121.334 272.792 120.78 271.986C120.225 271.171 119.948 270.006 119.948 268.489C119.948 267.735 120.017 267.068 120.156 266.487C120.303 265.898 120.511 265.404 120.78 265.005C121.057 264.606 121.386 264.303 121.768 264.095C122.158 263.887 122.595 263.783 123.081 263.783C124.06 263.783 124.827 264.19 125.382 265.005C125.936 265.811 126.214 266.972 126.214 268.489ZM124.589 268.489C124.589 268.021 124.563 267.583 124.511 267.176C124.459 266.769 124.372 266.418 124.251 266.123C124.138 265.82 123.986 265.581 123.796 265.408C123.605 265.235 123.367 265.148 123.081 265.148C122.795 265.148 122.552 265.235 122.353 265.408C122.162 265.581 122.006 265.82 121.885 266.123C121.772 266.418 121.69 266.769 121.638 267.176C121.594 267.583 121.573 268.021 121.573 268.489C121.573 268.957 121.594 269.395 121.638 269.802C121.69 270.209 121.772 270.565 121.885 270.868C122.006 271.163 122.162 271.397 122.353 271.57C122.552 271.743 122.795 271.83 123.081 271.83C123.367 271.83 123.605 271.743 123.796 271.57C123.986 271.397 124.138 271.163 124.251 270.868C124.372 270.565 124.459 270.209 124.511 269.802C124.563 269.395 124.589 268.957 124.589 268.489ZM133.03 266.331C133.03 266.643 132.965 266.951 132.835 267.254C132.705 267.549 132.536 267.839 132.328 268.125C132.129 268.402 131.899 268.675 131.639 268.944C131.379 269.204 131.119 269.46 130.859 269.711C130.721 269.841 130.565 269.997 130.391 270.179C130.218 270.361 130.053 270.543 129.897 270.725C129.741 270.907 129.607 271.085 129.494 271.258C129.382 271.423 129.321 271.561 129.312 271.674H133.316V273H127.583C127.575 272.931 127.57 272.848 127.57 272.753C127.57 272.649 127.57 272.571 127.57 272.519C127.57 272.103 127.635 271.722 127.765 271.375C127.904 271.02 128.082 270.69 128.298 270.387C128.515 270.084 128.758 269.798 129.026 269.529C129.295 269.26 129.564 268.996 129.832 268.736C130.04 268.537 130.24 268.342 130.43 268.151C130.621 267.96 130.786 267.774 130.924 267.592C131.072 267.401 131.189 267.211 131.275 267.02C131.362 266.821 131.405 266.617 131.405 266.409C131.405 265.958 131.275 265.638 131.015 265.447C130.755 265.256 130.439 265.161 130.066 265.161C129.824 265.161 129.598 265.196 129.39 265.265C129.182 265.334 128.996 265.417 128.831 265.512C128.675 265.607 128.537 265.707 128.415 265.811C128.294 265.906 128.203 265.984 128.142 266.045L127.362 264.94C127.726 264.593 128.151 264.316 128.636 264.108C129.13 263.891 129.659 263.783 130.222 263.783C131.184 263.783 131.891 264.013 132.341 264.472C132.801 264.923 133.03 265.542 133.03 266.331ZM136.168 273C136.22 272.341 136.337 271.648 136.519 270.92C136.701 270.192 136.922 269.486 137.182 268.801C137.451 268.108 137.741 267.462 138.053 266.864C138.374 266.257 138.69 265.75 139.002 265.343H134.855V263.991H140.874V265.187C140.588 265.508 140.276 265.945 139.938 266.5C139.6 267.055 139.279 267.683 138.976 268.385C138.673 269.078 138.408 269.824 138.183 270.621C137.966 271.418 137.832 272.211 137.78 273H136.168Z" fill="#5C5C5C"/>
<path d="M211.381 265.928C211.173 266.179 210.956 266.448 210.731 266.734C210.514 267.02 210.302 267.319 210.094 267.631C209.886 267.943 209.687 268.264 209.496 268.593C209.305 268.914 209.132 269.234 208.976 269.555H211.381V265.928ZM212.915 263.991V269.555H213.929V270.842H212.915V273H211.381V270.842H207.429V269.724C207.602 269.343 207.832 268.905 208.118 268.411C208.413 267.917 208.738 267.41 209.093 266.89C209.448 266.37 209.825 265.859 210.224 265.356C210.623 264.853 211.021 264.398 211.42 263.991H212.915ZM221.214 268.489C221.214 270.006 220.936 271.171 220.382 271.986C219.827 272.792 219.06 273.195 218.081 273.195C217.101 273.195 216.334 272.792 215.78 271.986C215.225 271.171 214.948 270.006 214.948 268.489C214.948 267.735 215.017 267.068 215.156 266.487C215.303 265.898 215.511 265.404 215.78 265.005C216.057 264.606 216.386 264.303 216.768 264.095C217.158 263.887 217.595 263.783 218.081 263.783C219.06 263.783 219.827 264.19 220.382 265.005C220.936 265.811 221.214 266.972 221.214 268.489ZM219.589 268.489C219.589 268.021 219.563 267.583 219.511 267.176C219.459 266.769 219.372 266.418 219.251 266.123C219.138 265.82 218.986 265.581 218.796 265.408C218.605 265.235 218.367 265.148 218.081 265.148C217.795 265.148 217.552 265.235 217.353 265.408C217.162 265.581 217.006 265.82 216.885 266.123C216.772 266.418 216.69 266.769 216.638 267.176C216.594 267.583 216.573 268.021 216.573 268.489C216.573 268.957 216.594 269.395 216.638 269.802C216.69 270.209 216.772 270.565 216.885 270.868C217.006 271.163 217.162 271.397 217.353 271.57C217.552 271.743 217.795 271.83 218.081 271.83C218.367 271.83 218.605 271.743 218.796 271.57C218.986 271.397 219.138 271.163 219.251 270.868C219.372 270.565 219.459 270.209 219.511 269.802C219.563 269.395 219.589 268.957 219.589 268.489ZM226.756 270.426C226.756 270.14 226.7 269.884 226.587 269.659C226.475 269.434 226.275 269.243 225.989 269.087C225.712 268.931 225.335 268.814 224.858 268.736C224.39 268.658 223.797 268.619 223.077 268.619C223.173 267.787 223.246 266.998 223.298 266.253C223.35 265.499 223.394 264.745 223.428 263.991H228.03V265.317H224.767C224.759 265.464 224.746 265.633 224.728 265.824C224.72 266.006 224.707 266.192 224.689 266.383C224.681 266.574 224.668 266.756 224.65 266.929C224.633 267.102 224.616 267.25 224.598 267.371C225.881 267.44 226.826 267.735 227.432 268.255C228.048 268.766 228.355 269.468 228.355 270.361C228.355 270.768 228.286 271.145 228.147 271.492C228.009 271.839 227.796 272.138 227.51 272.389C227.224 272.64 226.865 272.84 226.431 272.987C225.998 273.126 225.491 273.195 224.91 273.195C224.676 273.195 224.438 273.178 224.195 273.143C223.953 273.108 223.719 273.065 223.493 273.013C223.277 272.97 223.082 272.922 222.908 272.87C222.735 272.818 222.605 272.77 222.518 272.727L222.817 271.401C222.999 271.488 223.259 271.583 223.597 271.687C223.944 271.782 224.364 271.83 224.858 271.83C225.196 271.83 225.487 271.795 225.729 271.726C225.972 271.648 226.167 271.544 226.314 271.414C226.47 271.284 226.583 271.137 226.652 270.972C226.722 270.799 226.756 270.617 226.756 270.426ZM233.547 265.928C233.339 266.179 233.122 266.448 232.897 266.734C232.68 267.02 232.468 267.319 232.26 267.631C232.052 267.943 231.853 268.264 231.662 268.593C231.471 268.914 231.298 269.234 231.142 269.555H233.547V265.928ZM235.081 263.991V269.555H236.095V270.842H235.081V273H233.547V270.842H229.595V269.724C229.768 269.343 229.998 268.905 230.284 268.411C230.579 267.917 230.904 267.41 231.259 266.89C231.614 266.37 231.991 265.859 232.39 265.356C232.789 264.853 233.187 264.398 233.586 263.991H235.081Z" fill="#5C5C5C"/>
<path d="M305.381 265.928C305.173 266.179 304.956 266.448 304.731 266.734C304.514 267.02 304.302 267.319 304.094 267.631C303.886 267.943 303.687 268.264 303.496 268.593C303.305 268.914 303.132 269.234 302.976 269.555H305.381V265.928ZM306.915 263.991V269.555H307.929V270.842H306.915V273H305.381V270.842H301.429V269.724C301.602 269.343 301.832 268.905 302.118 268.411C302.413 267.917 302.738 267.41 303.093 266.89C303.448 266.37 303.825 265.859 304.224 265.356C304.623 264.853 305.021 264.398 305.42 263.991H306.915ZM315.214 268.489C315.214 270.006 314.936 271.171 314.382 271.986C313.827 272.792 313.06 273.195 312.081 273.195C311.101 273.195 310.334 272.792 309.78 271.986C309.225 271.171 308.948 270.006 308.948 268.489C308.948 267.735 309.017 267.068 309.156 266.487C309.303 265.898 309.511 265.404 309.78 265.005C310.057 264.606 310.386 264.303 310.768 264.095C311.158 263.887 311.595 263.783 312.081 263.783C313.06 263.783 313.827 264.19 314.382 265.005C314.936 265.811 315.214 266.972 315.214 268.489ZM313.589 268.489C313.589 268.021 313.563 267.583 313.511 267.176C313.459 266.769 313.372 266.418 313.251 266.123C313.138 265.82 312.986 265.581 312.796 265.408C312.605 265.235 312.367 265.148 312.081 265.148C311.795 265.148 311.552 265.235 311.353 265.408C311.162 265.581 311.006 265.82 310.885 266.123C310.772 266.418 310.69 266.769 310.638 267.176C310.594 267.583 310.573 268.021 310.573 268.489C310.573 268.957 310.594 269.395 310.638 269.802C310.69 270.209 310.772 270.565 310.885 270.868C311.006 271.163 311.162 271.397 311.353 271.57C311.552 271.743 311.795 271.83 312.081 271.83C312.367 271.83 312.605 271.743 312.796 271.57C312.986 271.397 313.138 271.163 313.251 270.868C313.372 270.565 313.459 270.209 313.511 269.802C313.563 269.395 313.589 268.957 313.589 268.489ZM322.537 270.582C322.537 270.955 322.472 271.301 322.342 271.622C322.212 271.943 322.017 272.22 321.757 272.454C321.497 272.688 321.172 272.87 320.782 273C320.401 273.13 319.959 273.195 319.456 273.195C318.867 273.195 318.377 273.113 317.987 272.948C317.597 272.783 317.285 272.575 317.051 272.324C316.817 272.073 316.648 271.804 316.544 271.518C316.449 271.223 316.401 270.946 316.401 270.686C316.401 270.426 316.436 270.188 316.505 269.971C316.583 269.746 316.687 269.542 316.817 269.36C316.947 269.169 317.095 268.996 317.259 268.84C317.424 268.684 317.597 268.545 317.779 268.424C317.381 268.147 317.082 267.848 316.882 267.527C316.692 267.198 316.596 266.799 316.596 266.331C316.596 265.993 316.661 265.672 316.791 265.369C316.93 265.057 317.125 264.784 317.376 264.55C317.628 264.316 317.931 264.13 318.286 263.991C318.642 263.852 319.036 263.783 319.469 263.783C319.981 263.783 320.414 263.857 320.769 264.004C321.133 264.151 321.428 264.342 321.653 264.576C321.887 264.81 322.056 265.07 322.16 265.356C322.264 265.642 322.316 265.919 322.316 266.188C322.316 266.665 322.186 267.089 321.926 267.462C321.666 267.826 321.367 268.116 321.029 268.333C321.541 268.61 321.918 268.931 322.16 269.295C322.412 269.659 322.537 270.088 322.537 270.582ZM317.948 270.66C317.948 270.79 317.974 270.929 318.026 271.076C318.078 271.223 318.165 271.358 318.286 271.479C318.408 271.6 318.564 271.704 318.754 271.791C318.945 271.869 319.183 271.908 319.469 271.908C319.729 271.908 319.955 271.873 320.145 271.804C320.336 271.735 320.492 271.644 320.613 271.531C320.735 271.41 320.826 271.275 320.886 271.128C320.947 270.972 320.977 270.816 320.977 270.66C320.977 270.417 320.93 270.205 320.834 270.023C320.739 269.841 320.6 269.685 320.418 269.555C320.245 269.416 320.037 269.299 319.794 269.204C319.552 269.1 319.283 269.009 318.988 268.931C318.676 269.13 318.425 269.373 318.234 269.659C318.044 269.936 317.948 270.27 317.948 270.66ZM320.782 266.214C320.782 266.101 320.756 265.98 320.704 265.85C320.661 265.711 320.583 265.586 320.47 265.473C320.366 265.36 320.232 265.265 320.067 265.187C319.903 265.109 319.703 265.07 319.469 265.07C319.235 265.07 319.032 265.109 318.858 265.187C318.694 265.256 318.559 265.352 318.455 265.473C318.351 265.586 318.273 265.711 318.221 265.85C318.169 265.98 318.143 266.11 318.143 266.24C318.143 266.569 318.265 266.881 318.507 267.176C318.759 267.471 319.175 267.705 319.755 267.878C320.076 267.679 320.327 267.453 320.509 267.202C320.691 266.942 320.782 266.613 320.782 266.214ZM324.336 265.863C324.839 265.664 325.341 265.408 325.844 265.096C326.355 264.784 326.806 264.416 327.196 263.991H328.301V273H326.728V266.097C326.494 266.279 326.199 266.457 325.844 266.63C325.489 266.803 325.146 266.946 324.817 267.059L324.336 265.863Z" fill="#5C5C5C"/>
<path d="M400.381 265.928C400.173 266.179 399.956 266.448 399.731 266.734C399.514 267.02 399.302 267.319 399.094 267.631C398.886 267.943 398.687 268.264 398.496 268.593C398.305 268.914 398.132 269.234 397.976 269.555H400.381V265.928ZM401.915 263.991V269.555H402.929V270.842H401.915V273H400.381V270.842H396.429V269.724C396.602 269.343 396.832 268.905 397.118 268.411C397.413 267.917 397.738 267.41 398.093 266.89C398.448 266.37 398.825 265.859 399.224 265.356C399.623 264.853 400.021 264.398 400.42 263.991H401.915ZM404.559 265.863C405.061 265.664 405.564 265.408 406.067 265.096C406.578 264.784 407.029 264.416 407.419 263.991H408.524V273H406.951V266.097C406.717 266.279 406.422 266.457 406.067 266.63C405.711 266.803 405.369 266.946 405.04 267.059L404.559 265.863ZM417.602 268.489C417.602 270.006 417.325 271.171 416.77 271.986C416.216 272.792 415.449 273.195 414.469 273.195C413.49 273.195 412.723 272.792 412.168 271.986C411.614 271.171 411.336 270.006 411.336 268.489C411.336 267.735 411.406 267.068 411.544 266.487C411.692 265.898 411.9 265.404 412.168 265.005C412.446 264.606 412.775 264.303 413.156 264.095C413.546 263.887 413.984 263.783 414.469 263.783C415.449 263.783 416.216 264.19 416.77 265.005C417.325 265.811 417.602 266.972 417.602 268.489ZM415.977 268.489C415.977 268.021 415.951 267.583 415.899 267.176C415.847 266.769 415.761 266.418 415.639 266.123C415.527 265.82 415.375 265.581 415.184 265.408C414.994 265.235 414.755 265.148 414.469 265.148C414.183 265.148 413.941 265.235 413.741 265.408C413.551 265.581 413.395 265.82 413.273 266.123C413.161 266.418 413.078 266.769 413.026 267.176C412.983 267.583 412.961 268.021 412.961 268.489C412.961 268.957 412.983 269.395 413.026 269.802C413.078 270.209 413.161 270.565 413.273 270.868C413.395 271.163 413.551 271.397 413.741 271.57C413.941 271.743 414.183 271.83 414.469 271.83C414.755 271.83 414.994 271.743 415.184 271.57C415.375 271.397 415.527 271.163 415.639 270.868C415.761 270.565 415.847 270.209 415.899 269.802C415.951 269.395 415.977 268.957 415.977 268.489ZM424.926 270.582C424.926 270.955 424.861 271.301 424.731 271.622C424.601 271.943 424.406 272.22 424.146 272.454C423.886 272.688 423.561 272.87 423.171 273C422.79 273.13 422.348 273.195 421.845 273.195C421.256 273.195 420.766 273.113 420.376 272.948C419.986 272.783 419.674 272.575 419.44 272.324C419.206 272.073 419.037 271.804 418.933 271.518C418.838 271.223 418.79 270.946 418.79 270.686C418.79 270.426 418.825 270.188 418.894 269.971C418.972 269.746 419.076 269.542 419.206 269.36C419.336 269.169 419.483 268.996 419.648 268.84C419.813 268.684 419.986 268.545 420.168 268.424C419.769 268.147 419.47 267.848 419.271 267.527C419.08 267.198 418.985 266.799 418.985 266.331C418.985 265.993 419.05 265.672 419.18 265.369C419.319 265.057 419.514 264.784 419.765 264.55C420.016 264.316 420.32 264.13 420.675 263.991C421.03 263.852 421.425 263.783 421.858 263.783C422.369 263.783 422.803 263.857 423.158 264.004C423.522 264.151 423.817 264.342 424.042 264.576C424.276 264.81 424.445 265.07 424.549 265.356C424.653 265.642 424.705 265.919 424.705 266.188C424.705 266.665 424.575 267.089 424.315 267.462C424.055 267.826 423.756 268.116 423.418 268.333C423.929 268.61 424.306 268.931 424.549 269.295C424.8 269.659 424.926 270.088 424.926 270.582ZM420.337 270.66C420.337 270.79 420.363 270.929 420.415 271.076C420.467 271.223 420.554 271.358 420.675 271.479C420.796 271.6 420.952 271.704 421.143 271.791C421.334 271.869 421.572 271.908 421.858 271.908C422.118 271.908 422.343 271.873 422.534 271.804C422.725 271.735 422.881 271.644 423.002 271.531C423.123 271.41 423.214 271.275 423.275 271.128C423.336 270.972 423.366 270.816 423.366 270.66C423.366 270.417 423.318 270.205 423.223 270.023C423.128 269.841 422.989 269.685 422.807 269.555C422.634 269.416 422.426 269.299 422.183 269.204C421.94 269.1 421.672 269.009 421.377 268.931C421.065 269.13 420.814 269.373 420.623 269.659C420.432 269.936 420.337 270.27 420.337 270.66ZM423.171 266.214C423.171 266.101 423.145 265.98 423.093 265.85C423.05 265.711 422.972 265.586 422.859 265.473C422.755 265.36 422.621 265.265 422.456 265.187C422.291 265.109 422.092 265.07 421.858 265.07C421.624 265.07 421.42 265.109 421.247 265.187C421.082 265.256 420.948 265.352 420.844 265.473C420.74 265.586 420.662 265.711 420.61 265.85C420.558 265.98 420.532 266.11 420.532 266.24C420.532 266.569 420.653 266.881 420.896 267.176C421.147 267.471 421.563 267.705 422.144 267.878C422.465 267.679 422.716 267.453 422.898 267.202C423.08 266.942 423.171 266.613 423.171 266.214Z" fill="#5C5C5C"/>
<path d="M494.381 265.928C494.173 266.179 493.956 266.448 493.731 266.734C493.514 267.02 493.302 267.319 493.094 267.631C492.886 267.943 492.687 268.264 492.496 268.593C492.305 268.914 492.132 269.234 491.976 269.555H494.381V265.928ZM495.915 263.991V269.555H496.929V270.842H495.915V273H494.381V270.842H490.429V269.724C490.602 269.343 490.832 268.905 491.118 268.411C491.413 267.917 491.738 267.41 492.093 266.89C492.448 266.37 492.825 265.859 493.224 265.356C493.623 264.853 494.021 264.398 494.42 263.991H495.915ZM498.559 265.863C499.061 265.664 499.564 265.408 500.067 265.096C500.578 264.784 501.029 264.416 501.419 263.991H502.524V273H500.951V266.097C500.717 266.279 500.422 266.457 500.067 266.63C499.711 266.803 499.369 266.946 499.04 267.059L498.559 265.863ZM507.845 273.195C507.611 273.195 507.369 273.178 507.117 273.143C506.875 273.117 506.641 273.078 506.415 273.026C506.199 272.983 505.999 272.935 505.817 272.883C505.635 272.822 505.497 272.766 505.401 272.714L505.713 271.375C505.895 271.462 506.16 271.561 506.506 271.674C506.853 271.778 507.282 271.83 507.793 271.83C508.478 271.83 508.972 271.7 509.275 271.44C509.579 271.171 509.73 270.816 509.73 270.374C509.73 270.088 509.67 269.85 509.548 269.659C509.436 269.468 509.275 269.317 509.067 269.204C508.868 269.083 508.634 269 508.365 268.957C508.105 268.905 507.828 268.879 507.533 268.879H507V267.605H507.65C507.85 267.605 508.049 267.588 508.248 267.553C508.456 267.51 508.643 267.44 508.807 267.345C508.972 267.241 509.106 267.107 509.21 266.942C509.314 266.777 509.366 266.565 509.366 266.305C509.366 266.097 509.327 265.919 509.249 265.772C509.171 265.625 509.067 265.503 508.937 265.408C508.816 265.313 508.673 265.243 508.508 265.2C508.344 265.157 508.17 265.135 507.988 265.135C507.598 265.135 507.252 265.196 506.948 265.317C506.645 265.43 506.376 265.56 506.142 265.707L505.57 264.537C505.692 264.459 505.839 264.377 506.012 264.29C506.186 264.203 506.376 264.121 506.584 264.043C506.801 263.965 507.031 263.904 507.273 263.861C507.516 263.809 507.772 263.783 508.04 263.783C508.543 263.783 508.976 263.844 509.34 263.965C509.704 264.086 510.003 264.26 510.237 264.485C510.48 264.702 510.658 264.962 510.77 265.265C510.892 265.56 510.952 265.885 510.952 266.24C510.952 266.656 510.835 267.029 510.601 267.358C510.376 267.687 510.081 267.939 509.717 268.112C510.185 268.277 510.571 268.55 510.874 268.931C511.186 269.312 511.342 269.802 511.342 270.4C511.342 270.799 511.273 271.171 511.134 271.518C510.996 271.856 510.783 272.151 510.497 272.402C510.211 272.645 509.847 272.84 509.405 272.987C508.972 273.126 508.452 273.195 507.845 273.195ZM517.145 270.426C517.145 270.14 517.089 269.884 516.976 269.659C516.863 269.434 516.664 269.243 516.378 269.087C516.101 268.931 515.724 268.814 515.247 268.736C514.779 268.658 514.185 268.619 513.466 268.619C513.561 267.787 513.635 266.998 513.687 266.253C513.739 265.499 513.782 264.745 513.817 263.991H518.419V265.317H515.156C515.147 265.464 515.134 265.633 515.117 265.824C515.108 266.006 515.095 266.192 515.078 266.383C515.069 266.574 515.056 266.756 515.039 266.929C515.022 267.102 515.004 267.25 514.987 267.371C516.27 267.44 517.214 267.735 517.821 268.255C518.436 268.766 518.744 269.468 518.744 270.361C518.744 270.768 518.675 271.145 518.536 271.492C518.397 271.839 518.185 272.138 517.899 272.389C517.613 272.64 517.253 272.84 516.82 272.987C516.387 273.126 515.88 273.195 515.299 273.195C515.065 273.195 514.827 273.178 514.584 273.143C514.341 273.108 514.107 273.065 513.882 273.013C513.665 272.97 513.47 272.922 513.297 272.87C513.124 272.818 512.994 272.77 512.907 272.727L513.206 271.401C513.388 271.488 513.648 271.583 513.986 271.687C514.333 271.782 514.753 271.83 515.247 271.83C515.585 271.83 515.875 271.795 516.118 271.726C516.361 271.648 516.556 271.544 516.703 271.414C516.859 271.284 516.972 271.137 517.041 270.972C517.11 270.799 517.145 270.617 517.145 270.426Z" fill="#5C5C5C"/>
<path d="M567.185 246.5C568.695 246.5 569.85 246.775 570.65 247.325C571.46 247.875 571.865 248.735 571.865 249.905C571.865 250.515 571.755 251.04 571.535 251.48C571.325 251.91 571.015 252.265 570.605 252.545C570.195 252.815 569.695 253.015 569.105 253.145C568.515 253.275 567.84 253.34 567.08 253.34H566.135V257H564.245V246.755C564.685 246.655 565.17 246.59 565.7 246.56C566.24 246.52 566.735 246.5 567.185 246.5ZM567.32 248.135C566.84 248.135 566.445 248.15 566.135 248.18V251.72H567.05C567.96 251.72 568.66 251.595 569.15 251.345C569.64 251.085 569.885 250.6 569.885 249.89C569.885 249.55 569.82 249.265 569.69 249.035C569.56 248.805 569.38 248.625 569.15 248.495C568.92 248.365 568.645 248.275 568.325 248.225C568.015 248.165 567.68 248.135 567.32 248.135ZM577.971 250.79C577.821 250.74 577.611 250.69 577.341 250.64C577.081 250.58 576.776 250.55 576.426 250.55C576.226 250.55 576.011 250.57 575.781 250.61C575.561 250.65 575.406 250.685 575.316 250.715V257H573.501V249.53C573.851 249.4 574.286 249.28 574.806 249.17C575.336 249.05 575.921 248.99 576.561 248.99C576.681 248.99 576.821 249 576.981 249.02C577.141 249.03 577.301 249.05 577.461 249.08C577.621 249.1 577.776 249.13 577.926 249.17C578.076 249.2 578.196 249.23 578.286 249.26L577.971 250.79ZM581.381 257H579.566V249.155H581.381V257ZM581.576 246.86C581.576 247.2 581.466 247.47 581.246 247.67C581.026 247.87 580.766 247.97 580.466 247.97C580.156 247.97 579.891 247.87 579.671 247.67C579.451 247.47 579.341 247.2 579.341 246.86C579.341 246.51 579.451 246.235 579.671 246.035C579.891 245.835 580.156 245.735 580.466 245.735C580.766 245.735 581.026 245.835 581.246 246.035C581.466 246.235 581.576 246.51 581.576 246.86ZM583.261 253.085C583.261 252.505 583.351 251.965 583.531 251.465C583.711 250.955 583.966 250.515 584.296 250.145C584.636 249.775 585.046 249.485 585.526 249.275C586.006 249.065 586.546 248.96 587.146 248.96C587.886 248.96 588.586 249.095 589.246 249.365L588.856 250.85C588.646 250.76 588.406 250.685 588.136 250.625C587.876 250.565 587.596 250.535 587.296 250.535C586.586 250.535 586.046 250.76 585.676 251.21C585.306 251.65 585.121 252.275 585.121 253.085C585.121 253.865 585.296 254.485 585.646 254.945C585.996 255.395 586.586 255.62 587.416 255.62C587.726 255.62 588.031 255.59 588.331 255.53C588.631 255.47 588.891 255.395 589.111 255.305L589.366 256.805C589.166 256.905 588.861 256.995 588.451 257.075C588.051 257.155 587.636 257.195 587.206 257.195C586.536 257.195 585.951 257.095 585.451 256.895C584.961 256.685 584.551 256.4 584.221 256.04C583.901 255.67 583.661 255.235 583.501 254.735C583.341 254.225 583.261 253.675 583.261 253.085ZM590.336 253.115C590.336 252.425 590.436 251.82 590.636 251.3C590.846 250.78 591.121 250.35 591.461 250.01C591.801 249.66 592.191 249.4 592.631 249.23C593.071 249.05 593.521 248.96 593.981 248.96C595.061 248.96 595.901 249.295 596.501 249.965C597.111 250.635 597.416 251.635 597.416 252.965C597.416 253.065 597.411 253.18 597.401 253.31C597.401 253.43 597.396 253.54 597.386 253.64H592.211C592.261 254.27 592.481 254.76 592.871 255.11C593.271 255.45 593.846 255.62 594.596 255.62C595.036 255.62 595.436 255.58 595.796 255.5C596.166 255.42 596.456 255.335 596.666 255.245L596.906 256.73C596.806 256.78 596.666 256.835 596.486 256.895C596.316 256.945 596.116 256.99 595.886 257.03C595.666 257.08 595.426 257.12 595.166 257.15C594.906 257.18 594.641 257.195 594.371 257.195C593.681 257.195 593.081 257.095 592.571 256.895C592.061 256.685 591.641 256.4 591.311 256.04C590.981 255.67 590.736 255.24 590.576 254.75C590.416 254.25 590.336 253.705 590.336 253.115ZM595.601 252.305C595.601 252.055 595.566 251.82 595.496 251.6C595.426 251.37 595.321 251.175 595.181 251.015C595.051 250.845 594.886 250.715 594.686 250.625C594.496 250.525 594.266 250.475 593.996 250.475C593.716 250.475 593.471 250.53 593.261 250.64C593.051 250.74 592.871 250.875 592.721 251.045C592.581 251.215 592.471 251.41 592.391 251.63C592.311 251.85 592.256 252.075 592.226 252.305H595.601Z" fill="#5C5C5C"/>
<path d="M31 252L556 252" stroke="#5C5C5C" stroke-width="2"/>
<path d="M326.72 10.085C326.72 9.505 326.81 8.965 326.99 8.465C327.17 7.955 327.425 7.515 327.755 7.145C328.095 6.775 328.505 6.485 328.985 6.275C329.465 6.065 330.005 5.96 330.605 5.96C331.345 5.96 332.045 6.095 332.705 6.365L332.315 7.85C332.105 7.76 331.865 7.685 331.595 7.625C331.335 7.565 331.055 7.535 330.755 7.535C330.045 7.535 329.505 7.76 329.135 8.21C328.765 8.65 328.58 9.275 328.58 10.085C328.58 10.865 328.755 11.485 329.105 11.945C329.455 12.395 330.045 12.62 330.875 12.62C331.185 12.62 331.49 12.59 331.79 12.53C332.09 12.47 332.35 12.395 332.57 12.305L332.825 13.805C332.625 13.905 332.32 13.995 331.91 14.075C331.51 14.155 331.095 14.195 330.665 14.195C329.995 14.195 329.41 14.095 328.91 13.895C328.42 13.685 328.01 13.4 327.68 13.04C327.36 12.67 327.12 12.235 326.96 11.735C326.8 11.225 326.72 10.675 326.72 10.085ZM340.665 13.76C340.315 13.85 339.86 13.94 339.3 14.03C338.74 14.13 338.125 14.18 337.455 14.18C336.825 14.18 336.295 14.09 335.865 13.91C335.445 13.73 335.105 13.48 334.845 13.16C334.595 12.84 334.415 12.46 334.305 12.02C334.195 11.57 334.14 11.08 334.14 10.55V6.155H335.955V10.265C335.955 11.105 336.075 11.705 336.315 12.065C336.565 12.425 336.995 12.605 337.605 12.605C337.825 12.605 338.055 12.595 338.295 12.575C338.545 12.555 338.73 12.53 338.85 12.5V6.155H340.665V13.76ZM344.94 12.695C345.42 12.695 345.77 12.64 345.99 12.53C346.21 12.41 346.32 12.21 346.32 11.93C346.32 11.67 346.2 11.455 345.96 11.285C345.73 11.115 345.345 10.93 344.805 10.73C344.475 10.61 344.17 10.485 343.89 10.355C343.62 10.215 343.385 10.055 343.185 9.875C342.985 9.695 342.825 9.48 342.705 9.23C342.595 8.97 342.54 8.655 342.54 8.285C342.54 7.565 342.805 7 343.335 6.59C343.865 6.17 344.585 5.96 345.495 5.96C345.955 5.96 346.395 6.005 346.815 6.095C347.235 6.175 347.55 6.255 347.76 6.335L347.43 7.805C347.23 7.715 346.975 7.635 346.665 7.565C346.355 7.485 345.995 7.445 345.585 7.445C345.215 7.445 344.915 7.51 344.685 7.64C344.455 7.76 344.34 7.95 344.34 8.21C344.34 8.34 344.36 8.455 344.4 8.555C344.45 8.655 344.53 8.75 344.64 8.84C344.75 8.92 344.895 9.005 345.075 9.095C345.255 9.175 345.475 9.26 345.735 9.35C346.165 9.51 346.53 9.67 346.83 9.83C347.13 9.98 347.375 10.155 347.565 10.355C347.765 10.545 347.91 10.765 348 11.015C348.09 11.265 348.135 11.565 348.135 11.915C348.135 12.665 347.855 13.235 347.295 13.625C346.745 14.005 345.955 14.195 344.925 14.195C344.235 14.195 343.68 14.135 343.26 14.015C342.84 13.905 342.545 13.815 342.375 13.745L342.69 12.23C342.96 12.34 343.28 12.445 343.65 12.545C344.03 12.645 344.46 12.695 344.94 12.695ZM349.741 4.085L351.556 3.785V6.155H354.346V7.67H351.556V10.865C351.556 11.495 351.656 11.945 351.856 12.215C352.056 12.485 352.396 12.62 352.876 12.62C353.206 12.62 353.496 12.585 353.746 12.515C354.006 12.445 354.211 12.38 354.361 12.32L354.661 13.76C354.451 13.85 354.176 13.94 353.836 14.03C353.496 14.13 353.096 14.18 352.636 14.18C352.076 14.18 351.606 14.105 351.226 13.955C350.856 13.805 350.561 13.59 350.341 13.31C350.121 13.02 349.966 12.675 349.876 12.275C349.786 11.865 349.741 11.4 349.741 10.88V4.085ZM363.02 10.07C363.02 10.69 362.93 11.255 362.75 11.765C362.57 12.275 362.315 12.71 361.985 13.07C361.655 13.43 361.255 13.71 360.785 13.91C360.325 14.11 359.815 14.21 359.255 14.21C358.695 14.21 358.185 14.11 357.725 13.91C357.265 13.71 356.87 13.43 356.54 13.07C356.21 12.71 355.95 12.275 355.76 11.765C355.58 11.255 355.49 10.69 355.49 10.07C355.49 9.45 355.58 8.89 355.76 8.39C355.95 7.88 356.21 7.445 356.54 7.085C356.88 6.725 357.28 6.45 357.74 6.26C358.2 6.06 358.705 5.96 359.255 5.96C359.805 5.96 360.31 6.06 360.77 6.26C361.24 6.45 361.64 6.725 361.97 7.085C362.3 7.445 362.555 7.88 362.735 8.39C362.925 8.89 363.02 9.45 363.02 10.07ZM361.16 10.07C361.16 9.29 360.99 8.675 360.65 8.225C360.32 7.765 359.855 7.535 359.255 7.535C358.655 7.535 358.185 7.765 357.845 8.225C357.515 8.675 357.35 9.29 357.35 10.07C357.35 10.86 357.515 11.485 357.845 11.945C358.185 12.405 358.655 12.635 359.255 12.635C359.855 12.635 360.32 12.405 360.65 11.945C360.99 11.485 361.16 10.86 361.16 10.07ZM369.359 9.875C369.359 9.055 369.254 8.465 369.044 8.105C368.844 7.735 368.464 7.55 367.904 7.55C367.704 7.55 367.484 7.565 367.244 7.595C367.004 7.625 366.824 7.65 366.704 7.67V14H364.889V6.41C365.239 6.31 365.694 6.215 366.254 6.125C366.824 6.035 367.424 5.99 368.054 5.99C368.594 5.99 369.034 6.06 369.374 6.2C369.724 6.34 370.014 6.525 370.244 6.755C370.354 6.675 370.494 6.59 370.664 6.5C370.834 6.41 371.024 6.33 371.234 6.26C371.444 6.18 371.664 6.115 371.894 6.065C372.134 6.015 372.374 5.99 372.614 5.99C373.224 5.99 373.724 6.08 374.114 6.26C374.514 6.43 374.824 6.675 375.044 6.995C375.274 7.305 375.429 7.685 375.509 8.135C375.599 8.575 375.644 9.06 375.644 9.59V14H373.829V9.875C373.829 9.055 373.729 8.465 373.529 8.105C373.329 7.735 372.944 7.55 372.374 7.55C372.084 7.55 371.809 7.6 371.549 7.7C371.289 7.79 371.094 7.88 370.964 7.97C371.044 8.22 371.099 8.485 371.129 8.765C371.159 9.045 371.174 9.345 371.174 9.665V14H369.359V9.875ZM380.934 10.085C380.934 9.505 381.024 8.965 381.204 8.465C381.384 7.955 381.639 7.515 381.969 7.145C382.309 6.775 382.719 6.485 383.199 6.275C383.679 6.065 384.219 5.96 384.819 5.96C385.559 5.96 386.259 6.095 386.919 6.365L386.529 7.85C386.319 7.76 386.079 7.685 385.809 7.625C385.549 7.565 385.269 7.535 384.969 7.535C384.259 7.535 383.719 7.76 383.349 8.21C382.979 8.65 382.794 9.275 382.794 10.085C382.794 10.865 382.969 11.485 383.319 11.945C383.669 12.395 384.259 12.62 385.089 12.62C385.399 12.62 385.704 12.59 386.004 12.53C386.304 12.47 386.564 12.395 386.784 12.305L387.039 13.805C386.839 13.905 386.534 13.995 386.124 14.075C385.724 14.155 385.309 14.195 384.879 14.195C384.209 14.195 383.624 14.095 383.124 13.895C382.634 13.685 382.224 13.4 381.894 13.04C381.574 12.67 381.334 12.235 381.174 11.735C381.014 11.225 380.934 10.675 380.934 10.085ZM394.879 13.76C394.529 13.85 394.074 13.94 393.514 14.03C392.954 14.13 392.339 14.18 391.669 14.18C391.039 14.18 390.509 14.09 390.079 13.91C389.659 13.73 389.319 13.48 389.059 13.16C388.809 12.84 388.629 12.46 388.519 12.02C388.409 11.57 388.354 11.08 388.354 10.55V6.155H390.169V10.265C390.169 11.105 390.289 11.705 390.529 12.065C390.779 12.425 391.209 12.605 391.819 12.605C392.039 12.605 392.269 12.595 392.509 12.575C392.759 12.555 392.944 12.53 393.064 12.5V6.155H394.879V13.76ZM401.659 7.79C401.509 7.74 401.299 7.69 401.029 7.64C400.769 7.58 400.464 7.55 400.114 7.55C399.914 7.55 399.699 7.57 399.469 7.61C399.249 7.65 399.094 7.685 399.004 7.715V14H397.189V6.53C397.539 6.4 397.974 6.28 398.494 6.17C399.024 6.05 399.609 5.99 400.249 5.99C400.369 5.99 400.509 6 400.669 6.02C400.829 6.03 400.989 6.05 401.149 6.08C401.309 6.1 401.464 6.13 401.614 6.17C401.764 6.2 401.884 6.23 401.974 6.26L401.659 7.79ZM405.513 14C405.013 12.97 404.498 11.79 403.968 10.46C403.448 9.12 402.973 7.685 402.543 6.155H404.478C404.588 6.595 404.713 7.07 404.853 7.58C405.003 8.08 405.158 8.585 405.318 9.095C405.488 9.595 405.658 10.085 405.828 10.565C406.008 11.035 406.173 11.46 406.323 11.84C406.473 11.46 406.633 11.035 406.803 10.565C406.973 10.085 407.138 9.595 407.298 9.095C407.468 8.585 407.628 8.08 407.778 7.58C407.928 7.07 408.058 6.595 408.168 6.155H410.043C409.613 7.685 409.133 9.12 408.603 10.46C408.083 11.79 407.573 12.97 407.073 14H405.513ZM410.787 10.115C410.787 9.425 410.887 8.82 411.087 8.3C411.297 7.78 411.572 7.35 411.912 7.01C412.252 6.66 412.642 6.4 413.082 6.23C413.522 6.05 413.972 5.96 414.432 5.96C415.512 5.96 416.352 6.295 416.952 6.965C417.562 7.635 417.867 8.635 417.867 9.965C417.867 10.065 417.862 10.18 417.852 10.31C417.852 10.43 417.847 10.54 417.837 10.64H412.662C412.712 11.27 412.932 11.76 413.322 12.11C413.722 12.45 414.297 12.62 415.047 12.62C415.487 12.62 415.887 12.58 416.247 12.5C416.617 12.42 416.907 12.335 417.117 12.245L417.357 13.73C417.257 13.78 417.117 13.835 416.937 13.895C416.767 13.945 416.567 13.99 416.337 14.03C416.117 14.08 415.877 14.12 415.617 14.15C415.357 14.18 415.092 14.195 414.822 14.195C414.132 14.195 413.532 14.095 413.022 13.895C412.512 13.685 412.092 13.4 411.762 13.04C411.432 12.67 411.187 12.24 411.027 11.75C410.867 11.25 410.787 10.705 410.787 10.115ZM416.052 9.305C416.052 9.055 416.017 8.82 415.947 8.6C415.877 8.37 415.772 8.175 415.632 8.015C415.502 7.845 415.337 7.715 415.137 7.625C414.947 7.525 414.717 7.475 414.447 7.475C414.167 7.475 413.922 7.53 413.712 7.64C413.502 7.74 413.322 7.875 413.172 8.045C413.032 8.215 412.922 8.41 412.842 8.63C412.762 8.85 412.707 9.075 412.677 9.305H416.052Z" fill="white"/>
<path d="M281 9H321" stroke="#F45D22" stroke-width="2" stroke-dasharray="4 3"/>
<path d="M181 9H221" stroke="#FB2FFF" stroke-width="2"/>
<path d="M229.975 8.72L231.64 6.155H233.545L230.965 9.86C231.505 10.56 232.02 11.27 232.51 11.99C233.01 12.7 233.42 13.37 233.74 14H231.775C231.685 13.81 231.565 13.595 231.415 13.355C231.275 13.105 231.12 12.85 230.95 12.59C230.79 12.32 230.62 12.055 230.44 11.795C230.26 11.535 230.085 11.29 229.915 11.06C229.565 11.51 229.22 12.01 228.88 12.56C228.55 13.1 228.275 13.58 228.055 14H226.195C226.345 13.7 226.525 13.38 226.735 13.04C226.945 12.7 227.17 12.355 227.41 12.005C227.65 11.645 227.895 11.29 228.145 10.94C228.405 10.58 228.66 10.24 228.91 9.92L226.315 6.155H228.31L229.975 8.72ZM241.499 6.155C240.689 9.135 239.749 11.835 238.679 14.255C238.479 14.705 238.274 15.09 238.064 15.41C237.854 15.73 237.619 15.995 237.359 16.205C237.099 16.415 236.809 16.565 236.489 16.655C236.169 16.755 235.799 16.805 235.379 16.805C235.099 16.805 234.819 16.775 234.539 16.715C234.269 16.655 234.064 16.59 233.924 16.52L234.254 15.065C234.614 15.205 234.969 15.275 235.319 15.275C235.789 15.275 236.154 15.16 236.414 14.93C236.684 14.71 236.919 14.365 237.119 13.895C236.549 12.795 235.999 11.595 235.469 10.295C234.949 8.995 234.484 7.615 234.074 6.155H236.009C236.109 6.575 236.229 7.03 236.369 7.52C236.519 8.01 236.679 8.51 236.849 9.02C237.019 9.52 237.199 10.02 237.389 10.52C237.579 11.02 237.769 11.485 237.959 11.915C238.279 11.025 238.579 10.08 238.859 9.08C239.139 8.07 239.394 7.095 239.624 6.155H241.499ZM244.688 9.215C244.918 8.975 245.163 8.72 245.423 8.45C245.683 8.17 245.938 7.895 246.188 7.625C246.438 7.345 246.673 7.08 246.893 6.83C247.123 6.57 247.318 6.345 247.478 6.155H249.623C249.123 6.715 248.593 7.295 248.033 7.895C247.483 8.495 246.928 9.08 246.368 9.65C246.668 9.9 246.983 10.205 247.313 10.565C247.643 10.915 247.963 11.29 248.273 11.69C248.583 12.09 248.873 12.49 249.143 12.89C249.413 13.29 249.638 13.66 249.818 14H247.718C247.538 13.69 247.328 13.365 247.088 13.025C246.858 12.685 246.608 12.355 246.338 12.035C246.068 11.715 245.793 11.415 245.513 11.135C245.233 10.845 244.958 10.6 244.688 10.4V14H242.873V2.66L244.688 2.36V9.215Z" fill="white"/>
<ellipse cx="73.8898" cy="234.007" rx="1.88976" ry="2.00669" fill="#F45D22"/>
<ellipse cx="120.89" cy="150.007" rx="1.88976" ry="2.00669" fill="#F45D22"/>
<ellipse cx="231.89" cy="142.007" rx="1.88976" ry="2.00669" fill="#F45D22"/>
<ellipse cx="264.89" cy="96.0067" rx="1.88976" ry="2.00669" fill="#F45D22"/>
<ellipse cx="325.89" cy="96.0067" rx="1.88976" ry="2.00669" fill="#F45D22"/>
<ellipse cx="379.89" cy="60.0067" rx="1.88976" ry="2.00669" fill="#F45D22"/>
<ellipse cx="442.89" cy="60.0067" rx="1.88976" ry="2.00669" fill="#F45D22"/>
<ellipse cx="486.89" cy="43.0067" rx="1.88976" ry="2.00669" fill="#F45D22"/>
<ellipse cx="554.89" cy="30.0067" rx="1.88976" ry="2.00669" fill="#F45D22"/>
<path d="M31 251.5L74 234.5L121 150.5L231.5 142.5L265.5 96H326L379.5 60H443L487 43L555 30" stroke="#F45D22" stroke-width="2" stroke-dasharray="2 3"/>
</svg>
