<svg width="41" height="40" viewBox="0 0 41 40" fill="none" xmlns="http://www.w3.org/2000/svg">
<path d="M22.4045 28.0989L22.6786 27.6807L22.4045 28.0989C22.6106 28.234 22.8087 28.3751 23.0103 28.5189C23.0313 28.5338 23.0524 28.5489 23.0736 28.564C23.7848 29.0718 24.608 29.6595 25.6418 29.5644C26.4923 29.4861 27.079 28.698 27.3461 27.2703C27.9558 24.0106 29.1592 16.923 29.4388 13.9855C29.4685 13.6735 29.4325 13.3006 29.4031 13.1287C29.3732 12.9542 29.2955 12.5957 28.9632 12.3261C28.7734 12.1721 28.554 12.094 28.382 12.0528C28.2068 12.011 28.0415 11.9983 27.9262 12.0002L27.9256 12.0002C27.4895 12.008 26.9828 12.1303 25.9872 12.4916C24.983 12.856 23.4281 13.4847 20.8727 14.5476C19.0778 15.2941 15.4964 16.8368 10.1325 19.1738C9.68208 19.3533 9.30723 19.5427 9.03038 19.7483C8.76503 19.9454 8.50509 20.2204 8.45868 20.5906C8.42622 20.8495 8.48499 21.0908 8.6253 21.2972C8.75594 21.4893 8.93912 21.6248 9.11646 21.7257C9.44964 21.9153 9.90686 22.059 10.3515 22.1987L10.3921 22.2115L10.5421 21.7345L10.3921 22.2115C10.5225 22.2525 10.6549 22.2941 10.7904 22.3381C11.2674 22.4932 11.8302 22.6626 12.3607 22.7956C12.8796 22.9258 13.4074 23.0316 13.7968 23.04C14.5377 23.056 15.3059 22.7512 16.0862 22.2157C18.5931 20.5234 20.4923 19.2505 21.7846 18.3964C22.0995 18.1882 22.3779 18.0053 22.6199 17.8474C22.4512 18.0136 22.2684 18.1913 22.0765 18.376C21.2046 19.2155 20.1627 20.1842 19.4492 20.8475L19.4011 20.8922C18.9906 21.2738 18.6795 21.563 18.6052 21.6402C18.4683 21.7824 18.3278 21.9179 18.1854 22.0552L18.1732 22.067C17.964 22.2686 17.7419 22.4827 17.5638 22.6986C17.3835 22.9172 17.2079 23.1842 17.1456 23.4998C17.0036 24.2197 17.4875 24.8063 18.2936 25.3375C19.0421 25.8308 19.6411 26.2387 20.2415 26.6475L20.2426 26.6482C20.8979 27.0946 21.5548 27.5419 22.4045 28.0989ZM23.7646 17.1281C23.7645 17.1283 23.7617 17.1297 23.7566 17.1319C23.7622 17.1291 23.7647 17.128 23.7646 17.1281ZM23.5875 16.8238C23.5905 16.8185 23.5924 16.8156 23.5926 16.8155C23.5928 16.8155 23.5913 16.8181 23.5875 16.8238ZM20.2 39.5C9.4304 39.5 0.699951 30.7696 0.699951 20C0.699951 9.23045 9.4304 0.5 20.2 0.5C30.9695 0.5 39.7 9.23045 39.7 20C39.7 30.7696 30.9695 39.5 20.2 39.5Z" fill="white" stroke="white"/>
</svg>
