<svg width="40" height="40" viewBox="0 0 40 40" fill="none" xmlns="http://www.w3.org/2000/svg">
<path d="M10.8213 12.3678C9.88142 13.9341 10.0286 15.7935 10.9519 17.2171C10.9054 17.1986 10.8584 17.1798 10.8107 17.1608L10.125 16.8865V17.625C10.125 19.0899 10.8649 20.4728 12.0141 21.3679L11.2754 21.2202L11.5221 22.022C11.9486 23.4083 13.0269 24.5555 14.4487 25.0236C13.1632 25.6337 11.577 25.9321 10.0584 25.7534L9.74275 26.6787C11.6744 27.8377 13.8876 28.625 16.25 28.625C24.0847 28.625 28.4897 22.1702 28.3835 16.1514C29.2238 15.6132 29.9401 14.8626 30.4341 13.9981L31.2534 12.5643L29.7764 13.3028C29.6202 13.3809 29.4637 13.4471 29.3043 13.5044C29.5539 13.1337 29.7431 12.7141 29.8601 12.2463L30.1737 10.9916L29.0977 11.709C28.4875 12.1157 27.7723 12.3459 26.8917 12.5732C26.0615 11.8455 24.9114 11.375 23.75 11.375C21.0423 11.375 18.9147 13.7485 19.1523 16.3348C16.1826 16.0534 13.5438 14.5516 11.631 12.3012L11.1797 11.7703L10.8213 12.3678ZM0.5 20C0.5 9.23045 9.23045 0.5 20 0.5C30.7696 0.5 39.5 9.23045 39.5 20C39.5 30.7696 30.7696 39.5 20 39.5C9.23045 39.5 0.5 30.7696 0.5 20Z" fill="white" stroke="white"/>
</svg>
