<svg width="454" height="302" viewBox="0 0 454 302" fill="none" xmlns="http://www.w3.org/2000/svg">
<g opacity="0.95">
<path d="M166.278 108.615L96.4273 61.7003" stroke="#5C5C5C" stroke-width="1.19033"/>
<path d="M106.121 211.708L60.286 238.198" stroke="#5C5C5C" stroke-width="1.19033"/>
<path d="M343.513 201.78L296.576 230.664" stroke="#5C5C5C" stroke-width="1.19033"/>
<path d="M366.972 225.248L445.511 269.035" stroke="#5C5C5C" stroke-width="1.19033"/>
<path d="M357.76 24.8636L297.64 56.1402" stroke="#5C5C5C" stroke-width="1.19033"/>
<path d="M67.2339 301V268.146M67.2339 301L19.5066 273.24V240.61M67.2339 301L91.0975 286.877V254.247M67.2339 268.146L91.0975 254.247M67.2339 268.146L19.5066 240.61M91.0975 254.247L42.8832 226.487L19.5066 240.61M272.753 244.507L296.617 230.87V197.753M272.753 244.507V211.877M272.753 244.507L248.403 230.87V197.753M296.617 197.753L272.753 184.117L248.403 197.753M296.617 197.753L272.753 211.877M248.403 197.753L272.753 211.877M367.234 225.513V215.286M367.234 225.513L343.857 212.851V201.649M367.234 225.513L415.448 197.753V187.039M367.234 215.286L343.857 201.649M367.234 215.286L415.448 187.039M343.857 201.649L391.098 173.403L415.448 187.039M429.572 65.2857V97.4286M429.572 65.2857L452.948 51.6494M429.572 65.2857L357.981 23.8896L358.468 56.0325L429.572 97.4286M429.572 97.4286L452.948 83.7922V51.6494M452.948 51.6494L381.357 9.27924L357.494 23.4026" stroke="#F45D22" stroke-width="1.28448"/>
<path d="M48.7273 57.0065V89.6364M48.7273 57.0065L95.9675 29.2468M48.7273 57.0065L1 29.2468M48.7273 89.6364L95.9675 62.3636V29.2468M48.7273 89.6364L1 62.3636V29.2468M95.9675 29.2468L48.7273 1L1 29.2468" stroke="#F45D22" stroke-width="1.28448"/>
<path d="M202.137 56.5196V88.6625L249.864 116.909L297.591 89.1495L297.104 56.0326L249.377 83.7923L202.137 56.5196Z" stroke="white" stroke-width="1.28448"/>
<path d="M202.137 56.5194L249.377 28.7596" stroke="white" stroke-width="1.28448"/>
<path d="M297.104 56.5194L248.89 29.2467" stroke="white" stroke-width="1.28448"/>
<path d="M249.864 116.909L201.649 144.669M249.864 116.909L201.649 88.6625M249.864 116.909V83.7923M201.649 144.669V177.879M201.649 144.669L153.435 117.396M201.649 177.879L249.864 150.026V182.656L153.435 239.637M201.649 177.879L153.435 206.52M201.649 177.879L153.435 150.513M153.435 239.637V206.52M153.435 239.637L105.708 211.877V177.879M153.435 206.52L105.708 177.879M153.435 117.396V150.513M153.435 117.396L201.649 88.6625M153.435 150.513L105.708 177.879M201.649 88.6625V56.0326" stroke="white" stroke-width="1.28448"/>
<path d="M297.591 89.1493V155.383L249.864 182.656V117.396" stroke="white" stroke-width="1.28448"/>
<path d="M249.864 150.026L297.591 122.266" stroke="white" stroke-width="1.28448"/>
<path d="M201.649 177.786V211.39" stroke="white" stroke-width="1.28448"/>
</g>
</svg>
